<svg xmlns="http://www.w3.org/2000/svg" xmlns:v="https://svgstorm.com"
viewBox = "0 0 512 512"
width="512"
height="512">
<g fill="None" fill-opacity="0.0" stroke="#000000" stroke-opacity="0.00" stroke-width="0.3"><path d="
M 0.00 28.00 
C 3.27 20.93 7.86 14.90 15.70 11.70 C 23.53 8.49 34.02 10.64 41.22 14.78 C 48.43 18.92 56.42 22.93 62.25 16.25 C 68.08 9.57 74.22 7.41 79.00 0.00
L 0.00 0.00
L 0.00 28.00 Z"/>
</g>
<g fill="None" fill-opacity="0.0" stroke="#4E2419" stroke-opacity="0.99" stroke-width="0.3"><path d="
M 0.00 28.00 
L 0.00 334.00
C 35.88 349.00 70.24 369.10 107.00 382.00
C 137.71 392.78 167.83 408.32 197.00 422.00
C 168.55 434.11 140.57 447.32 112.00 459.00
C 112.00 438.00 112.00 417.00 112.00 396.00
C 110.33 396.00 108.67 396.00 107.00 396.00
C 105.33 396.00 103.67 396.00 102.00 396.00
C 102.48 415.34 101.36 435.77 102.00 455.00 C 102.64 474.23 99.88 493.98 104.00 512.00
L 111.00 512.00
C 120.92 506.13 132.03 502.55 142.68 497.68 C 153.33 492.81 163.51 488.32 174.23 483.23 C 184.95 478.14 196.44 474.94 207.08 469.08 C 217.71 463.21 228.38 461.85 239.08 455.08 C 249.78 448.30 261.51 447.89 272.23 454.77 C 282.95 461.65 293.56 462.87 304.22 468.78 C 314.89 474.68 326.35 477.63 337.03 482.98 C 347.70 488.32 358.28 492.14 369.03 496.98 C 379.77 501.81 390.82 506.68 401.00 512.00
L 408.00 512.00
C 411.48 500.07 410.17 487.17 410.00 474.00 C 409.83 460.83 411.03 447.51 410.00 434.00 C 408.97 420.49 412.58 407.97 410.00 394.00 C 407.42 380.03 417.55 375.27 428.69 371.69 C 439.84 368.12 446.09 363.09 456.23 359.23 C 466.37 355.37 474.45 351.38 484.08 347.08 C 493.70 342.77 503.09 339.74 512.00 334.00
L 512.00 28.00
C 508.73 20.82 504.18 14.95 496.31 11.69 C 488.43 8.44 477.94 10.58 470.77 14.77 C 463.60 18.96 455.50 22.93 449.75 16.25 C 444.01 9.57 437.73 7.39 433.00 0.00
L 424.00 0.00
C 390.62 8.29 354.55 20.06 321.93 30.93 C 289.30 41.79 268.70 67.21 255.00 97.00
C 232.59 25.08 147.59 19.55 88.00 0.00
L 79.00 0.00
C 74.22 7.41 68.08 9.57 62.25 16.25 C 56.42 22.93 48.43 18.92 41.22 14.78 C 34.02 10.64 23.53 8.49 15.70 11.70 C 7.86 14.90 3.27 20.93 0.00 28.00
M 429.00 12.00 
C 440.10 16.85 443.70 27.30 453.75 35.25 C 463.81 43.20 473.81 51.26 472.00 66.00 C 470.19 80.74 472.84 99.48 472.00 115.00 C 471.16 130.52 472.38 147.09 472.00 163.00 C 471.62 178.91 472.20 195.89 472.00 212.00 C 471.80 228.11 472.15 244.83 472.00 261.00
C 466.76 258.95 463.14 253.86 458.00 252.00
C 458.00 190.00 458.00 128.00 458.00 66.00
C 454.67 66.00 451.33 66.00 448.00 66.00
C 448.00 125.00 448.00 184.00 448.00 243.00
C 442.76 240.95 439.15 235.86 434.00 234.00
C 434.00 164.33 434.00 94.67 434.00 25.00
C 432.33 25.00 430.67 25.00 429.00 25.00
C 427.33 25.00 425.67 25.00 424.00 25.00
C 424.00 94.00 424.00 163.00 424.00 232.00
C 366.84 251.13 285.03 254.56 263.00 323.00
C 258.94 312.75 261.54 297.84 261.00 285.00 C 260.46 272.16 261.29 258.07 261.00 245.00 C 260.71 231.93 261.22 218.11 261.00 205.00 C 260.78 191.89 261.30 176.89 261.00 164.00 C 260.70 151.11 261.60 136.24 261.00 124.00 C 260.40 111.76 265.51 102.71 269.77 92.77 C 274.03 82.84 278.87 76.38 285.25 68.25 C 291.63 60.11 298.15 53.92 307.23 49.23 C 316.31 44.54 325.49 40.70 335.22 37.22 C 344.96 33.75 355.15 30.26 365.22 27.22 C 375.30 24.18 386.34 21.24 396.67 18.67 C 407.00 16.10 418.91 10.99 429.00 12.00
M 249.00 323.00 
C 227.03 254.62 145.31 250.75 88.00 232.00
C 88.00 158.67 88.00 85.33 88.00 12.00
C 97.74 13.60 107.64 16.24 117.07 18.93 C 126.51 21.61 136.76 24.16 146.02 26.98 C 155.29 29.79 164.07 32.96 173.07 35.93 C 182.08 38.89 190.82 42.75 199.23 46.77 C 207.64 50.79 214.85 54.61 221.25 61.75 C 227.64 68.90 231.78 73.93 236.77 82.23 C 241.76 90.53 244.56 98.11 248.32 107.68 C 252.08 117.25 251.01 129.60 251.00 141.00 C 250.99 152.40 251.04 166.15 251.00 178.00 C 250.96 189.85 251.10 203.04 251.00 215.00 C 250.90 226.96 251.24 239.05 251.00 251.00 C 250.76 262.95 251.52 276.22 251.00 288.00 C 250.48 299.78 253.04 313.79 249.00 323.00
M 78.00 17.00 
C 78.00 89.33 78.00 161.67 78.00 234.00
C 72.77 235.67 69.23 241.34 64.00 243.00
C 64.00 184.00 64.00 125.00 64.00 66.00
C 60.67 66.00 57.33 66.00 54.00 66.00
C 54.09 79.78 53.89 93.18 54.00 107.00 C 54.11 120.82 53.78 135.15 54.00 149.00 C 54.22 162.85 53.54 177.23 54.00 191.00 C 54.46 204.77 52.99 219.47 54.00 233.00 C 55.01 246.53 53.22 255.86 40.00 261.00
C 40.03 242.55 39.96 223.37 40.00 205.00 C 40.04 186.63 39.92 167.10 40.00 149.00 C 40.08 130.90 39.83 109.37 40.00 92.00 C 40.17 74.63 35.96 55.09 48.75 44.75 C 61.53 34.40 65.35 26.09 78.00 17.00
M 502.00 288.00 
C 448.77 310.29 396.24 334.69 343.00 357.00
C 340.24 344.90 343.31 333.96 354.08 331.08 C 364.84 328.19 370.24 323.30 379.69 319.70 C 389.15 316.09 397.34 312.22 406.08 308.08 C 414.81 303.93 423.93 301.56 432.02 297.03 C 440.12 292.50 450.43 290.77 457.68 285.68 C 464.93 280.59 479.09 281.65 481.92 271.92 C 484.76 262.20 480.83 246.24 482.00 235.00 C 483.17 223.76 481.50 208.83 482.00 197.00 C 482.50 185.17 481.89 172.00 482.00 160.00 C 482.11 148.00 482.21 134.95 482.00 123.00 C 481.79 111.05 482.64 96.55 482.00 85.00 C 481.36 73.45 483.90 58.93 481.22 48.78 C 478.54 38.63 465.32 39.05 463.00 29.00
C 474.40 22.02 500.94 13.48 502.00 35.00 C 503.05 56.52 501.52 76.74 502.00 98.00 C 502.48 119.26 501.78 139.83 502.00 161.00 C 502.22 182.17 501.89 202.81 502.00 224.00 C 502.11 245.19 501.91 266.77 502.00 288.00
M 49.00 29.00 
C 44.63 40.53 29.41 40.89 30.00 55.00 C 30.59 69.11 29.66 86.44 30.00 101.00 C 30.34 115.56 29.69 131.38 30.00 146.00 C 30.31 160.62 29.52 177.67 30.00 192.00 C 30.48 206.33 29.00 223.57 30.00 237.00 C 31.00 250.43 25.22 270.47 36.03 276.97 C 46.83 283.48 56.37 285.60 67.08 290.92 C 77.79 296.25 88.35 300.16 99.07 304.93 C 109.80 309.69 119.35 314.28 130.08 318.92 C 140.81 323.56 151.32 328.06 162.08 332.92 C 172.83 337.79 182.32 341.52 193.23 346.77 C 204.14 352.02 213.88 354.97 225.22 360.78 C 236.57 366.59 253.77 362.61 267.00 364.00 C 280.23 365.39 291.55 358.93 303.00 354.00
C 304.69 365.40 304.03 378.04 291.78 379.78 C 279.52 381.51 266.90 381.36 255.00 381.00 C 243.10 380.64 229.85 382.75 219.77 379.23 C 209.70 375.70 202.24 371.86 192.98 368.03 C 183.71 364.19 176.29 360.39 167.31 356.69 C 158.33 353.00 149.79 348.75 140.92 345.08 C 132.06 341.41 124.11 337.36 115.31 333.69 C 106.50 330.03 97.65 325.98 88.92 322.08 C 80.20 318.17 71.69 314.90 62.93 311.07 C 54.16 307.25 45.59 302.98 36.77 299.23 C 27.95 295.47 19.00 291.29 10.00 288.00
C 10.00 267.11 10.00 246.97 10.00 226.00 C 10.00 205.03 10.01 184.13 10.00 163.00 C 9.99 141.87 10.01 121.38 10.00 100.00 C 9.99 78.62 10.03 58.88 10.00 37.00 C 9.97 15.12 36.59 21.02 49.00 29.00
M 228.00 351.00 
C 166.76 325.07 106.33 296.75 45.00 271.00
C 52.56 260.03 63.47 259.26 74.02 264.98 C 84.58 270.69 95.35 273.26 106.07 277.93 C 116.80 282.59 127.28 286.62 138.08 290.92 C 148.87 295.23 159.33 299.47 170.08 303.92 C 180.82 308.38 191.77 313.10 203.00 316.00
C 202.53 312.55 205.85 310.29 206.00 307.00
C 160.07 289.83 114.96 270.18 69.00 253.00
C 72.68 247.99 79.36 246.00 83.00 241.00
C 95.18 243.67 107.26 247.49 119.22 250.78 C 131.19 254.06 144.38 257.21 156.01 260.99 C 167.64 264.78 178.50 269.00 189.69 273.31 C 200.89 277.61 210.03 282.46 218.75 291.25 C 227.48 300.04 230.32 308.37 236.92 319.08 C 243.53 329.78 226.14 338.46 228.00 351.00
M 443.00 253.00 
C 434.03 255.82 425.79 259.59 416.93 262.93 C 408.07 266.26 399.65 270.20 390.77 273.77 C 381.90 277.34 372.94 280.31 363.98 283.98 C 355.01 287.64 347.78 290.93 338.32 294.32 C 328.86 297.71 322.32 301.73 311.93 304.93 C 301.54 308.13 300.82 321.61 303.00 333.00 C 305.18 344.39 293.61 348.46 284.00 351.00
C 285.07 337.79 268.02 328.38 275.92 316.92 C 283.83 305.47 286.54 295.94 297.25 287.25 C 307.95 278.55 317.91 275.36 330.22 270.22 C 342.54 265.08 356.04 262.20 368.68 257.68 C 381.31 253.16 394.81 250.77 407.67 246.67 C 420.54 242.57 434.14 239.49 443.00 253.00
M 467.00 271.00 
C 425.41 288.20 384.55 307.62 343.00 325.00
C 343.00 317.67 343.00 310.33 343.00 303.00
C 353.58 298.74 364.12 295.21 374.68 290.68 C 385.23 286.14 396.12 282.45 406.69 277.69 C 417.27 272.94 427.60 270.75 438.08 265.08 C 448.55 259.40 459.49 259.93 467.00 271.00
M 502.00 299.00 
C 502.00 308.67 502.00 318.33 502.00 328.00
C 492.46 331.71 483.42 335.92 473.92 339.92 C 464.42 343.93 455.27 348.56 445.77 352.77 C 436.27 356.98 426.48 360.62 416.93 364.93 C 407.37 369.24 398.46 373.41 388.77 377.77 C 379.08 382.13 369.93 385.46 359.98 389.98 C 350.02 394.49 342.31 397.92 331.77 402.77 C 321.23 407.63 314.84 409.46 302.98 414.98 C 291.11 420.49 304.32 430.21 314.23 432.77 C 324.14 435.34 333.39 441.49 343.07 444.93 C 352.76 448.36 361.61 454.06 371.23 457.77 C 380.85 461.49 390.36 466.31 400.00 470.00
C 400.00 479.67 400.00 489.33 400.00 499.00
C 389.17 494.72 378.59 489.91 367.92 485.08 C 357.26 480.24 346.54 476.20 335.92 471.08 C 325.31 465.95 314.48 462.72 303.92 457.08 C 293.37 451.43 282.51 449.49 271.93 443.07 C 261.35 436.66 250.55 436.09 239.93 442.93 C 229.31 449.77 218.59 451.31 207.93 456.93 C 197.26 462.54 186.71 466.10 175.98 470.98 C 165.24 475.85 155.08 480.71 144.31 485.31 C 133.53 489.90 122.97 494.91 112.00 499.00
C 112.00 489.33 112.00 479.67 112.00 470.00
C 121.49 466.48 130.64 461.83 140.08 458.08 C 149.51 454.32 159.12 448.94 168.68 445.68 C 178.23 442.42 187.39 435.30 197.08 433.08 C 206.76 430.85 221.42 421.10 209.77 415.23 C 198.12 409.36 191.39 408.05 180.93 403.07 C 170.46 398.10 162.70 394.77 152.77 390.23 C 142.84 385.68 133.64 382.38 123.93 378.07 C 114.22 373.76 105.37 369.46 95.77 365.23 C 86.17 361.00 76.53 357.19 66.98 353.02 C 57.42 348.86 48.35 344.24 38.77 340.23 C 29.20 336.21 19.66 331.76 10.00 328.00
C 10.00 318.33 10.00 308.67 10.00 299.00
C 22.63 304.31 35.13 309.87 47.69 315.31 C 60.26 320.74 72.50 326.39 85.08 331.92 C 97.65 337.46 110.16 342.41 122.69 348.31 C 135.23 354.20 148.54 358.75 161.07 364.93 C 173.61 371.10 186.08 374.82 198.68 381.32 C 211.27 387.82 223.58 390.17 236.22 397.78 C 248.87 405.38 262.50 406.25 275.08 398.08 C 287.65 389.90 300.44 388.70 313.02 382.03 C 325.61 375.35 337.60 371.15 350.23 365.23 C 362.86 359.30 376.10 354.47 388.69 348.69 C 401.28 342.92 413.46 337.63 426.08 332.08 C 438.69 326.52 451.06 321.32 463.69 315.69 C 476.33 310.07 489.20 304.36 502.00 299.00
M 333.00 308.00 
C 333.00 323.00 333.00 338.00 333.00 353.00
C 325.34 343.80 316.66 347.85 313.00 358.00
C 312.18 346.45 314.09 334.52 313.00 323.00 C 311.91 311.48 325.06 311.91 333.00 308.00
M 274.00 354.00 
C 262.00 354.00 250.00 354.00 238.00 354.00
C 232.84 326.16 278.50 326.52 274.00 354.00
M 329.00 364.00 
C 325.79 364.31 323.15 366.45 320.00 367.00
C 321.03 362.13 326.28 357.21 329.00 364.00
M 400.00 384.00 
C 400.00 409.00 400.00 434.00 400.00 459.00
C 371.07 447.47 342.99 433.43 314.00 422.00
C 342.05 408.65 371.20 396.14 400.00 384.00
M 265.00 392.00 
C 259.11 395.29 252.92 395.27 247.00 392.00
C 251.93 390.38 260.15 390.31 265.00 392.00 Z"/>
</g>
<g fill="None" fill-opacity="0.0" stroke="#000000" stroke-opacity="0.00" stroke-width="0.3"><path d="
M 424.00 0.00 
L 88.00 0.00
C 147.59 19.55 232.59 25.08 255.00 97.00
C 268.70 67.21 289.30 41.79 321.93 30.93 C 354.55 20.06 390.62 8.29 424.00 0.00 Z"/>
</g>
<g fill="None" fill-opacity="0.0" stroke="#000000" stroke-opacity="0.00" stroke-width="0.3"><path d="
M 512.00 28.00 
L 512.00 0.00
L 433.00 0.00
C 437.73 7.39 444.01 9.57 449.75 16.25 C 455.50 22.93 463.60 18.96 470.77 14.77 C 477.94 10.58 488.43 8.44 496.31 11.69 C 504.18 14.95 508.73 20.82 512.00 28.00 Z"/>
</g>
<g fill="None" fill-opacity="0.0" stroke="#FDCA5C" stroke-opacity="1.00" stroke-width="0.3"><path d="
M 429.00 25.00 
C 427.49 21.69 431.02 14.96 429.00 12.00
C 418.91 10.99 407.00 16.10 396.67 18.67 C 386.34 21.24 375.30 24.18 365.22 27.22 C 355.15 30.26 344.96 33.75 335.22 37.22 C 325.49 40.70 316.31 44.54 307.23 49.23 C 298.15 53.92 291.63 60.11 285.25 68.25 C 278.87 76.38 274.03 82.84 269.77 92.77 C 265.51 102.71 260.40 111.76 261.00 124.00 C 261.60 136.24 260.70 151.11 261.00 164.00 C 261.30 176.89 260.78 191.89 261.00 205.00 C 261.22 218.11 260.71 231.93 261.00 245.00 C 261.29 258.07 260.46 272.16 261.00 285.00 C 261.54 297.84 258.94 312.75 263.00 323.00
C 285.03 254.56 366.84 251.13 424.00 232.00
C 424.00 163.00 424.00 94.00 424.00 25.00
C 425.67 25.00 427.33 25.00 429.00 25.00
M 397.00 50.00 
C 398.24 53.26 399.77 56.43 400.00 60.00
C 368.53 70.19 337.39 81.51 306.00 92.00
C 304.76 88.74 303.23 85.57 303.00 82.00
C 334.47 71.91 365.59 60.55 397.00 50.00
M 400.00 109.00 
C 368.37 118.59 337.24 130.03 306.00 141.00
C 297.76 127.27 319.45 125.01 330.22 121.22 C 341.00 117.44 357.31 111.54 368.23 108.23 C 379.14 104.92 399.03 91.84 400.00 109.00
M 397.00 148.00 
C 397.57 151.12 399.68 153.76 400.00 157.00
C 368.29 167.57 337.02 179.61 305.00 189.00
C 305.19 185.45 302.39 182.70 303.00 179.00
C 334.77 170.10 365.22 156.94 397.00 148.00
M 397.00 196.00 
C 397.61 199.44 400.17 202.30 400.00 206.00
C 368.51 216.16 337.40 227.44 306.00 238.00
C 304.76 234.74 303.23 231.57 303.00 228.00
C 334.50 217.85 365.61 206.53 397.00 196.00 Z"/>
</g>
<g fill="None" fill-opacity="0.0" stroke="#FDCA5C" stroke-opacity="1.00" stroke-width="0.3"><path d="
M 249.00 323.00 
C 253.04 313.79 250.48 299.78 251.00 288.00 C 251.52 276.22 250.76 262.95 251.00 251.00 C 251.24 239.05 250.90 226.96 251.00 215.00 C 251.10 203.04 250.96 189.85 251.00 178.00 C 251.04 166.15 250.99 152.40 251.00 141.00 C 251.01 129.60 252.08 117.25 248.32 107.68 C 244.56 98.11 241.76 90.53 236.77 82.23 C 231.78 73.93 227.64 68.90 221.25 61.75 C 214.85 54.61 207.64 50.79 199.23 46.77 C 190.82 42.75 182.08 38.89 173.07 35.93 C 164.07 32.96 155.29 29.79 146.02 26.98 C 136.76 24.16 126.51 21.61 117.07 18.93 C 107.64 16.24 97.74 13.60 88.00 12.00
C 88.00 85.33 88.00 158.67 88.00 232.00
C 145.31 250.75 227.03 254.62 249.00 323.00
M 209.00 82.00 
C 208.78 85.53 207.22 88.72 206.00 92.00
C 174.64 81.36 143.57 69.93 112.00 60.00
C 112.22 56.47 113.78 53.28 115.00 50.00
C 146.40 60.56 177.48 71.83 209.00 82.00
M 206.00 141.00 
C 174.82 129.87 143.69 118.55 112.00 109.00
C 112.22 105.47 113.78 102.28 115.00 99.00
C 126.24 102.26 138.40 106.68 149.22 110.78 C 160.05 114.87 173.56 117.61 183.68 122.32 C 193.80 127.03 214.68 126.45 206.00 141.00
M 209.00 179.00 
C 209.62 182.68 206.80 185.40 207.00 189.00
C 175.06 179.36 143.74 167.43 112.00 157.00
C 114.02 141.33 129.39 153.22 140.07 155.93 C 150.76 158.64 163.11 164.61 174.22 167.78 C 185.33 170.94 197.51 176.56 209.00 179.00
M 209.00 228.00 
C 208.78 231.53 207.22 234.72 206.00 238.00
C 174.63 227.37 143.56 216.07 112.00 206.00
C 112.22 202.47 113.78 199.28 115.00 196.00
C 146.31 206.63 177.48 217.87 209.00 228.00 Z"/>
</g>
<g fill="None" fill-opacity="0.0" stroke="#FEE2A8" stroke-opacity="1.00" stroke-width="0.3"><path d="
M 429.00 25.00 
C 430.67 25.00 432.33 25.00 434.00 25.00
C 434.00 94.67 434.00 164.33 434.00 234.00
C 439.15 235.86 442.76 240.95 448.00 243.00
C 448.00 184.00 448.00 125.00 448.00 66.00
C 451.33 66.00 454.67 66.00 458.00 66.00
C 458.00 128.00 458.00 190.00 458.00 252.00
C 463.14 253.86 466.76 258.95 472.00 261.00
C 472.15 244.83 471.80 228.11 472.00 212.00 C 472.20 195.89 471.62 178.91 472.00 163.00 C 472.38 147.09 471.16 130.52 472.00 115.00 C 472.84 99.48 470.19 80.74 472.00 66.00 C 473.81 51.26 463.81 43.20 453.75 35.25 C 443.70 27.30 440.10 16.85 429.00 12.00
C 431.02 14.96 427.49 21.69 429.00 25.00 Z"/>
</g>
<g fill="None" fill-opacity="0.0" stroke="#FEE2A8" stroke-opacity="1.00" stroke-width="0.3"><path d="
M 78.00 17.00 
C 65.35 26.09 61.53 34.40 48.75 44.75 C 35.96 55.09 40.17 74.63 40.00 92.00 C 39.83 109.37 40.08 130.90 40.00 149.00 C 39.92 167.10 40.04 186.63 40.00 205.00 C 39.96 223.37 40.03 242.55 40.00 261.00
C 53.22 255.86 55.01 246.53 54.00 233.00 C 52.99 219.47 54.46 204.77 54.00 191.00 C 53.54 177.23 54.22 162.85 54.00 149.00 C 53.78 135.15 54.11 120.82 54.00 107.00 C 53.89 93.18 54.09 79.78 54.00 66.00
C 57.33 66.00 60.67 66.00 64.00 66.00
C 64.00 125.00 64.00 184.00 64.00 243.00
C 69.23 241.34 72.77 235.67 78.00 234.00
C 78.00 161.67 78.00 89.33 78.00 17.00 Z"/>
</g>
<g fill="None" fill-opacity="0.0" stroke="#399148" stroke-opacity="1.00" stroke-width="0.3"><path d="
M 502.00 288.00 
C 501.91 266.77 502.11 245.19 502.00 224.00 C 501.89 202.81 502.22 182.17 502.00 161.00 C 501.78 139.83 502.48 119.26 502.00 98.00 C 501.52 76.74 503.05 56.52 502.00 35.00 C 500.94 13.48 474.40 22.02 463.00 29.00
C 465.32 39.05 478.54 38.63 481.22 48.78 C 483.90 58.93 481.36 73.45 482.00 85.00 C 482.64 96.55 481.79 111.05 482.00 123.00 C 482.21 134.95 482.11 148.00 482.00 160.00 C 481.89 172.00 482.50 185.17 482.00 197.00 C 481.50 208.83 483.17 223.76 482.00 235.00 C 480.83 246.24 484.76 262.20 481.92 271.92 C 479.09 281.65 464.93 280.59 457.68 285.68 C 450.43 290.77 440.12 292.50 432.02 297.03 C 423.93 301.56 414.81 303.93 406.08 308.08 C 397.34 312.22 389.15 316.09 379.69 319.70 C 370.24 323.30 364.84 328.19 354.08 331.08 C 343.31 333.96 340.24 344.90 343.00 357.00
C 396.24 334.69 448.77 310.29 502.00 288.00 Z"/>
</g>
<g fill="None" fill-opacity="0.0" stroke="#399148" stroke-opacity="1.00" stroke-width="0.3"><path d="
M 49.00 29.00 
C 36.59 21.02 9.97 15.12 10.00 37.00 C 10.03 58.88 9.99 78.62 10.00 100.00 C 10.01 121.38 9.99 141.87 10.00 163.00 C 10.01 184.13 10.00 205.03 10.00 226.00 C 10.00 246.97 10.00 267.11 10.00 288.00
C 19.00 291.29 27.95 295.47 36.77 299.23 C 45.59 302.98 54.16 307.25 62.93 311.07 C 71.69 314.90 80.20 318.17 88.92 322.08 C 97.65 325.98 106.50 330.03 115.31 333.69 C 124.11 337.36 132.06 341.41 140.92 345.08 C 149.79 348.75 158.33 353.00 167.31 356.69 C 176.29 360.39 183.71 364.19 192.98 368.03 C 202.24 371.86 209.70 375.70 219.77 379.23 C 229.85 382.75 243.10 380.64 255.00 381.00 C 266.90 381.36 279.52 381.51 291.78 379.78 C 304.03 378.04 304.69 365.40 303.00 354.00
C 291.55 358.93 280.23 365.39 267.00 364.00 C 253.77 362.61 236.57 366.59 225.22 360.78 C 213.88 354.97 204.14 352.02 193.23 346.77 C 182.32 341.52 172.83 337.79 162.08 332.92 C 151.32 328.06 140.81 323.56 130.08 318.92 C 119.35 314.28 109.80 309.69 99.07 304.93 C 88.35 300.16 77.79 296.25 67.08 290.92 C 56.37 285.60 46.83 283.48 36.03 276.97 C 25.22 270.47 31.00 250.43 30.00 237.00 C 29.00 223.57 30.48 206.33 30.00 192.00 C 29.52 177.67 30.31 160.62 30.00 146.00 C 29.69 131.38 30.34 115.56 30.00 101.00 C 29.66 86.44 30.59 69.11 30.00 55.00 C 29.41 40.89 44.63 40.53 49.00 29.00 Z"/>
</g>
<g fill="None" fill-opacity="0.0" stroke="#4E281A" stroke-opacity="1.00" stroke-width="0.3"><path d="
M 209.00 82.00 
C 177.48 71.83 146.40 60.56 115.00 50.00
C 113.78 53.28 112.22 56.47 112.00 60.00
C 143.57 69.93 174.64 81.36 206.00 92.00
C 207.22 88.72 208.78 85.53 209.00 82.00 Z"/>
</g>
<g fill="None" fill-opacity="0.0" stroke="#4F281B" stroke-opacity="1.00" stroke-width="0.3"><path d="
M 397.00 50.00 
C 365.59 60.55 334.47 71.91 303.00 82.00
C 303.23 85.57 304.76 88.74 306.00 92.00
C 337.39 81.51 368.53 70.19 400.00 60.00
C 399.77 56.43 398.24 53.26 397.00 50.00 Z"/>
</g>
<g fill="None" fill-opacity="0.0" stroke="#4E281A" stroke-opacity="1.00" stroke-width="0.3"><path d="
M 206.00 141.00 
C 214.68 126.45 193.80 127.03 183.68 122.32 C 173.56 117.61 160.05 114.87 149.22 110.78 C 138.40 106.68 126.24 102.26 115.00 99.00
C 113.78 102.28 112.22 105.47 112.00 109.00
C 143.69 118.55 174.82 129.87 206.00 141.00 Z"/>
</g>
<g fill="None" fill-opacity="0.0" stroke="#4F291B" stroke-opacity="1.00" stroke-width="0.3"><path d="
M 400.00 109.00 
C 399.03 91.84 379.14 104.92 368.23 108.23 C 357.31 111.54 341.00 117.44 330.22 121.22 C 319.45 125.01 297.76 127.27 306.00 141.00
C 337.24 130.03 368.37 118.59 400.00 109.00 Z"/>
</g>
<g fill="None" fill-opacity="0.0" stroke="#4E281A" stroke-opacity="1.00" stroke-width="0.3"><path d="
M 209.00 179.00 
C 197.51 176.56 185.33 170.94 174.22 167.78 C 163.11 164.61 150.76 158.64 140.07 155.93 C 129.39 153.22 114.02 141.33 112.00 157.00
C 143.74 167.43 175.06 179.36 207.00 189.00
C 206.80 185.40 209.62 182.68 209.00 179.00 Z"/>
</g>
<g fill="None" fill-opacity="0.0" stroke="#4F281A" stroke-opacity="1.00" stroke-width="0.3"><path d="
M 397.00 148.00 
C 365.22 156.94 334.77 170.10 303.00 179.00
C 302.39 182.70 305.19 185.45 305.00 189.00
C 337.02 179.61 368.29 167.57 400.00 157.00
C 399.68 153.76 397.57 151.12 397.00 148.00 Z"/>
</g>
<g fill="None" fill-opacity="0.0" stroke="#4E281A" stroke-opacity="1.00" stroke-width="0.3"><path d="
M 209.00 228.00 
C 177.48 217.87 146.31 206.63 115.00 196.00
C 113.78 199.28 112.22 202.47 112.00 206.00
C 143.56 216.07 174.63 227.37 206.00 238.00
C 207.22 234.72 208.78 231.53 209.00 228.00 Z"/>
</g>
<g fill="None" fill-opacity="0.0" stroke="#4F281A" stroke-opacity="1.00" stroke-width="0.3"><path d="
M 397.00 196.00 
C 365.61 206.53 334.50 217.85 303.00 228.00
C 303.23 231.57 304.76 234.74 306.00 238.00
C 337.40 227.44 368.51 216.16 400.00 206.00
C 400.17 202.30 397.61 199.44 397.00 196.00 Z"/>
</g>
<g fill="None" fill-opacity="0.0" stroke="#FCB010" stroke-opacity="1.00" stroke-width="0.3"><path d="
M 228.00 351.00 
C 226.14 338.46 243.53 329.78 236.92 319.08 C 230.32 308.37 227.48 300.04 218.75 291.25 C 210.03 282.46 200.89 277.61 189.69 273.31 C 178.50 269.00 167.64 264.78 156.01 260.99 C 144.38 257.21 131.19 254.06 119.22 250.78 C 107.26 247.49 95.18 243.67 83.00 241.00
C 79.36 246.00 72.68 247.99 69.00 253.00
C 114.96 270.18 160.07 289.83 206.00 307.00
C 205.85 310.29 202.53 312.55 203.00 316.00
C 191.77 313.10 180.82 308.38 170.08 303.92 C 159.33 299.47 148.87 295.23 138.08 290.92 C 127.28 286.62 116.80 282.59 106.07 277.93 C 95.35 273.26 84.58 270.69 74.02 264.98 C 63.47 259.26 52.56 260.03 45.00 271.00
C 106.33 296.75 166.76 325.07 228.00 351.00 Z"/>
</g>
<g fill="None" fill-opacity="0.0" stroke="#FCB00F" stroke-opacity="1.00" stroke-width="0.3"><path d="
M 443.00 253.00 
C 434.14 239.49 420.54 242.57 407.67 246.67 C 394.81 250.77 381.31 253.16 368.68 257.68 C 356.04 262.20 342.54 265.08 330.22 270.22 C 317.91 275.36 307.95 278.55 297.25 287.25 C 286.54 295.94 283.83 305.47 275.92 316.92 C 268.02 328.38 285.07 337.79 284.00 351.00
C 293.61 348.46 305.18 344.39 303.00 333.00 C 300.82 321.61 301.54 308.13 311.93 304.93 C 322.32 301.73 328.86 297.71 338.32 294.32 C 347.78 290.93 355.01 287.64 363.98 283.98 C 372.94 280.31 381.90 277.34 390.77 273.77 C 399.65 270.20 408.07 266.26 416.93 262.93 C 425.79 259.59 434.03 255.82 443.00 253.00 Z"/>
</g>
<g fill="None" fill-opacity="0.0" stroke="#FBB011" stroke-opacity="1.00" stroke-width="0.3"><path d="
M 467.00 271.00 
C 459.49 259.93 448.55 259.40 438.08 265.08 C 427.60 270.75 417.27 272.94 406.69 277.69 C 396.12 282.45 385.23 286.14 374.68 290.68 C 364.12 295.21 353.58 298.74 343.00 303.00
C 343.00 310.33 343.00 317.67 343.00 325.00
C 384.55 307.62 425.41 288.20 467.00 271.00 Z"/>
</g>
<g fill="None" fill-opacity="0.0" stroke="#E16315" stroke-opacity="1.00" stroke-width="0.3"><path d="
M 502.00 299.00 
C 489.20 304.36 476.33 310.07 463.69 315.69 C 451.06 321.32 438.69 326.52 426.08 332.08 C 413.46 337.63 401.28 342.92 388.69 348.69 C 376.10 354.47 362.86 359.30 350.23 365.23 C 337.60 371.15 325.61 375.35 313.02 382.03 C 300.44 388.70 287.65 389.90 275.08 398.08 C 262.50 406.25 248.87 405.38 236.22 397.78 C 223.58 390.17 211.27 387.82 198.68 381.32 C 186.08 374.82 173.61 371.10 161.07 364.93 C 148.54 358.75 135.23 354.20 122.69 348.31 C 110.16 342.41 97.65 337.46 85.08 331.92 C 72.50 326.39 60.26 320.74 47.69 315.31 C 35.13 309.87 22.63 304.31 10.00 299.00
C 10.00 308.67 10.00 318.33 10.00 328.00
C 19.66 331.76 29.20 336.21 38.77 340.23 C 48.35 344.24 57.42 348.86 66.98 353.02 C 76.53 357.19 86.17 361.00 95.77 365.23 C 105.37 369.46 114.22 373.76 123.93 378.07 C 133.64 382.38 142.84 385.68 152.77 390.23 C 162.70 394.77 170.46 398.10 180.93 403.07 C 191.39 408.05 198.12 409.36 209.77 415.23 C 221.42 421.10 206.76 430.85 197.08 433.08 C 187.39 435.30 178.23 442.42 168.68 445.68 C 159.12 448.94 149.51 454.32 140.08 458.08 C 130.64 461.83 121.49 466.48 112.00 470.00
C 112.00 479.67 112.00 489.33 112.00 499.00
C 122.97 494.91 133.53 489.90 144.31 485.31 C 155.08 480.71 165.24 475.85 175.98 470.98 C 186.71 466.10 197.26 462.54 207.93 456.93 C 218.59 451.31 229.31 449.77 239.93 442.93 C 250.55 436.09 261.35 436.66 271.93 443.07 C 282.51 449.49 293.37 451.43 303.92 457.08 C 314.48 462.72 325.31 465.95 335.92 471.08 C 346.54 476.20 357.26 480.24 367.92 485.08 C 378.59 489.91 389.17 494.72 400.00 499.00
C 400.00 489.33 400.00 479.67 400.00 470.00
C 390.36 466.31 380.85 461.49 371.23 457.77 C 361.61 454.06 352.76 448.36 343.07 444.93 C 333.39 441.49 324.14 435.34 314.23 432.77 C 304.32 430.21 291.11 420.49 302.98 414.98 C 314.84 409.46 321.23 407.63 331.77 402.77 C 342.31 397.92 350.02 394.49 359.98 389.98 C 369.93 385.46 379.08 382.13 388.77 377.77 C 398.46 373.41 407.37 369.24 416.93 364.93 C 426.48 360.62 436.27 356.98 445.77 352.77 C 455.27 348.56 464.42 343.93 473.92 339.92 C 483.42 335.92 492.46 331.71 502.00 328.00
C 502.00 318.33 502.00 308.67 502.00 299.00 Z"/>
</g>
<g fill="None" fill-opacity="0.0" stroke="#E66A4C" stroke-opacity="1.00" stroke-width="0.3"><path d="
M 333.00 308.00 
C 325.06 311.91 311.91 311.48 313.00 323.00 C 314.09 334.52 312.18 346.45 313.00 358.00
C 316.66 347.85 325.34 343.80 333.00 353.00
C 333.00 338.00 333.00 323.00 333.00 308.00 Z"/>
</g>
<g fill="None" fill-opacity="0.0" stroke="#2C6C37" stroke-opacity="1.00" stroke-width="0.3"><path d="
M 274.00 354.00 
C 278.50 326.52 232.84 326.16 238.00 354.00
C 250.00 354.00 262.00 354.00 274.00 354.00 Z"/>
</g>
<g fill="None" fill-opacity="0.0" stroke="#000000" stroke-opacity="0.00" stroke-width="0.3"><path d="
M 0.00 512.00 
L 104.00 512.00
C 99.88 493.98 102.64 474.23 102.00 455.00 C 101.36 435.77 102.48 415.34 102.00 396.00
C 103.67 396.00 105.33 396.00 107.00 396.00
C 105.54 392.12 108.95 385.61 107.00 382.00
C 70.24 369.10 35.88 349.00 0.00 334.00
L 0.00 512.00 Z"/>
</g>
<g fill="None" fill-opacity="0.0" stroke="#000000" stroke-opacity="0.00" stroke-width="0.3"><path d="
M 408.00 512.00 
L 512.00 512.00
L 512.00 334.00
C 503.09 339.74 493.70 342.77 484.08 347.08 C 474.45 351.38 466.37 355.37 456.23 359.23 C 446.09 363.09 439.84 368.12 428.69 371.69 C 417.55 375.27 407.42 380.03 410.00 394.00 C 412.58 407.97 408.97 420.49 410.00 434.00 C 411.03 447.51 409.83 460.83 410.00 474.00 C 410.17 487.17 411.48 500.07 408.00 512.00 Z"/>
</g>
<g fill="None" fill-opacity="0.0" stroke="#407F40" stroke-opacity="1.00" stroke-width="0.3"><path d="
M 329.00 364.00 
C 326.28 357.21 321.03 362.13 320.00 367.00
C 323.15 366.45 325.79 364.31 329.00 364.00 Z"/>
</g>
<g fill="None" fill-opacity="0.0" stroke="#B14D10" stroke-opacity="1.00" stroke-width="0.3"><path d="
M 107.00 396.00 
C 108.67 396.00 110.33 396.00 112.00 396.00
C 112.00 417.00 112.00 438.00 112.00 459.00
C 140.57 447.32 168.55 434.11 197.00 422.00
C 167.83 408.32 137.71 392.78 107.00 382.00
C 108.95 385.61 105.54 392.12 107.00 396.00 Z"/>
</g>
<g fill="None" fill-opacity="0.0" stroke="#B14D10" stroke-opacity="1.00" stroke-width="0.3"><path d="
M 400.00 384.00 
C 371.20 396.14 342.05 408.65 314.00 422.00
C 342.99 433.43 371.07 447.47 400.00 459.00
C 400.00 434.00 400.00 409.00 400.00 384.00 Z"/>
</g>
<g fill="None" fill-opacity="0.0" stroke="#AC4B10" stroke-opacity="1.00" stroke-width="0.3"><path d="
M 265.00 392.00 
C 260.15 390.31 251.93 390.38 247.00 392.00
C 252.92 395.27 259.11 395.29 265.00 392.00 Z"/>
</g>
<g fill="None" fill-opacity="0.0" stroke="#000000" stroke-opacity="0.00" stroke-width="0.3"><path d="
M 111.00 512.00 
L 401.00 512.00
C 390.82 506.68 379.77 501.81 369.03 496.98 C 358.28 492.14 347.70 488.32 337.03 482.98 C 326.35 477.63 314.89 474.68 304.22 468.78 C 293.56 462.87 282.95 461.65 272.23 454.77 C 261.51 447.89 249.78 448.30 239.08 455.08 C 228.38 461.85 217.71 463.21 207.08 469.08 C 196.44 474.94 184.95 478.14 174.23 483.23 C 163.51 488.32 153.33 492.81 142.68 497.68 C 132.03 502.55 120.92 506.13 111.00 512.00 Z"/>
</g>
<g fill="#000000" fill-opacity="0.00" stroke="None">
<path d="
M 0.00 28.00 
C 3.27 20.93 7.86 14.90 15.70 11.70 C 23.53 8.49 34.02 10.64 41.22 14.78 C 48.43 18.92 56.42 22.93 62.25 16.25 C 68.08 9.57 74.22 7.41 79.00 0.00
L 0.00 0.00
L 0.00 28.00 Z"/>
</g>
<g fill="#4E2419" fill-opacity="0.99" stroke="None">
<path d="
M 0.00 28.00 
L 0.00 334.00
C 35.88 349.00 70.24 369.10 107.00 382.00
C 137.71 392.78 167.83 408.32 197.00 422.00
C 168.55 434.11 140.57 447.32 112.00 459.00
C 112.00 438.00 112.00 417.00 112.00 396.00
C 110.33 396.00 108.67 396.00 107.00 396.00
C 105.33 396.00 103.67 396.00 102.00 396.00
C 102.48 415.34 101.36 435.77 102.00 455.00 C 102.64 474.23 99.88 493.98 104.00 512.00
L 111.00 512.00
C 120.92 506.13 132.03 502.55 142.68 497.68 C 153.33 492.81 163.51 488.32 174.23 483.23 C 184.95 478.14 196.44 474.94 207.08 469.08 C 217.71 463.21 228.38 461.85 239.08 455.08 C 249.78 448.30 261.51 447.89 272.23 454.77 C 282.95 461.65 293.56 462.87 304.22 468.78 C 314.89 474.68 326.35 477.63 337.03 482.98 C 347.70 488.32 358.28 492.14 369.03 496.98 C 379.77 501.81 390.82 506.68 401.00 512.00
L 408.00 512.00
C 411.48 500.07 410.17 487.17 410.00 474.00 C 409.83 460.83 411.03 447.51 410.00 434.00 C 408.97 420.49 412.58 407.97 410.00 394.00 C 407.42 380.03 417.55 375.27 428.69 371.69 C 439.84 368.12 446.09 363.09 456.23 359.23 C 466.37 355.37 474.45 351.38 484.08 347.08 C 493.70 342.77 503.09 339.74 512.00 334.00
L 512.00 28.00
C 508.73 20.82 504.18 14.95 496.31 11.69 C 488.43 8.44 477.94 10.58 470.77 14.77 C 463.60 18.96 455.50 22.93 449.75 16.25 C 444.01 9.57 437.73 7.39 433.00 0.00
L 424.00 0.00
C 390.62 8.29 354.55 20.06 321.93 30.93 C 289.30 41.79 268.70 67.21 255.00 97.00
C 232.59 25.08 147.59 19.55 88.00 0.00
L 79.00 0.00
C 74.22 7.41 68.08 9.57 62.25 16.25 C 56.42 22.93 48.43 18.92 41.22 14.78 C 34.02 10.64 23.53 8.49 15.70 11.70 C 7.86 14.90 3.27 20.93 0.00 28.00
M 429.00 12.00 
C 440.10 16.85 443.70 27.30 453.75 35.25 C 463.81 43.20 473.81 51.26 472.00 66.00 C 470.19 80.74 472.84 99.48 472.00 115.00 C 471.16 130.52 472.38 147.09 472.00 163.00 C 471.62 178.91 472.20 195.89 472.00 212.00 C 471.80 228.11 472.15 244.83 472.00 261.00
C 466.76 258.95 463.14 253.86 458.00 252.00
C 458.00 190.00 458.00 128.00 458.00 66.00
C 454.67 66.00 451.33 66.00 448.00 66.00
C 448.00 125.00 448.00 184.00 448.00 243.00
C 442.76 240.95 439.15 235.86 434.00 234.00
C 434.00 164.33 434.00 94.67 434.00 25.00
C 432.33 25.00 430.67 25.00 429.00 25.00
C 427.33 25.00 425.67 25.00 424.00 25.00
C 424.00 94.00 424.00 163.00 424.00 232.00
C 366.84 251.13 285.03 254.56 263.00 323.00
C 258.94 312.75 261.54 297.84 261.00 285.00 C 260.46 272.16 261.29 258.07 261.00 245.00 C 260.71 231.93 261.22 218.11 261.00 205.00 C 260.78 191.89 261.30 176.89 261.00 164.00 C 260.70 151.11 261.60 136.24 261.00 124.00 C 260.40 111.76 265.51 102.71 269.77 92.77 C 274.03 82.84 278.87 76.38 285.25 68.25 C 291.63 60.11 298.15 53.92 307.23 49.23 C 316.31 44.54 325.49 40.70 335.22 37.22 C 344.96 33.75 355.15 30.26 365.22 27.22 C 375.30 24.18 386.34 21.24 396.67 18.67 C 407.00 16.10 418.91 10.99 429.00 12.00
M 249.00 323.00 
C 227.03 254.62 145.31 250.75 88.00 232.00
C 88.00 158.67 88.00 85.33 88.00 12.00
C 97.74 13.60 107.64 16.24 117.07 18.93 C 126.51 21.61 136.76 24.16 146.02 26.98 C 155.29 29.79 164.07 32.96 173.07 35.93 C 182.08 38.89 190.82 42.75 199.23 46.77 C 207.64 50.79 214.85 54.61 221.25 61.75 C 227.64 68.90 231.78 73.93 236.77 82.23 C 241.76 90.53 244.56 98.11 248.32 107.68 C 252.08 117.25 251.01 129.60 251.00 141.00 C 250.99 152.40 251.04 166.15 251.00 178.00 C 250.96 189.85 251.10 203.04 251.00 215.00 C 250.90 226.96 251.24 239.05 251.00 251.00 C 250.76 262.95 251.52 276.22 251.00 288.00 C 250.48 299.78 253.04 313.79 249.00 323.00
M 78.00 17.00 
C 78.00 89.33 78.00 161.67 78.00 234.00
C 72.77 235.67 69.23 241.34 64.00 243.00
C 64.00 184.00 64.00 125.00 64.00 66.00
C 60.67 66.00 57.33 66.00 54.00 66.00
C 54.09 79.78 53.89 93.18 54.00 107.00 C 54.11 120.82 53.78 135.15 54.00 149.00 C 54.22 162.85 53.54 177.23 54.00 191.00 C 54.46 204.77 52.99 219.47 54.00 233.00 C 55.01 246.53 53.22 255.86 40.00 261.00
C 40.03 242.55 39.96 223.37 40.00 205.00 C 40.04 186.63 39.92 167.10 40.00 149.00 C 40.08 130.90 39.83 109.37 40.00 92.00 C 40.17 74.63 35.96 55.09 48.75 44.75 C 61.53 34.40 65.35 26.09 78.00 17.00
M 502.00 288.00 
C 448.77 310.29 396.24 334.69 343.00 357.00
C 340.24 344.90 343.31 333.96 354.08 331.08 C 364.84 328.19 370.24 323.30 379.69 319.70 C 389.15 316.09 397.34 312.22 406.08 308.08 C 414.81 303.93 423.93 301.56 432.02 297.03 C 440.12 292.50 450.43 290.77 457.68 285.68 C 464.93 280.59 479.09 281.65 481.92 271.92 C 484.76 262.20 480.83 246.24 482.00 235.00 C 483.17 223.76 481.50 208.83 482.00 197.00 C 482.50 185.17 481.89 172.00 482.00 160.00 C 482.11 148.00 482.21 134.95 482.00 123.00 C 481.79 111.05 482.64 96.55 482.00 85.00 C 481.36 73.45 483.90 58.93 481.22 48.78 C 478.54 38.63 465.32 39.05 463.00 29.00
C 474.40 22.02 500.94 13.48 502.00 35.00 C 503.05 56.52 501.52 76.74 502.00 98.00 C 502.48 119.26 501.78 139.83 502.00 161.00 C 502.22 182.17 501.89 202.81 502.00 224.00 C 502.11 245.19 501.91 266.77 502.00 288.00
M 49.00 29.00 
C 44.63 40.53 29.41 40.89 30.00 55.00 C 30.59 69.11 29.66 86.44 30.00 101.00 C 30.34 115.56 29.69 131.38 30.00 146.00 C 30.31 160.62 29.52 177.67 30.00 192.00 C 30.48 206.33 29.00 223.57 30.00 237.00 C 31.00 250.43 25.22 270.47 36.03 276.97 C 46.83 283.48 56.37 285.60 67.08 290.92 C 77.79 296.25 88.35 300.16 99.07 304.93 C 109.80 309.69 119.35 314.28 130.08 318.92 C 140.81 323.56 151.32 328.06 162.08 332.92 C 172.83 337.79 182.32 341.52 193.23 346.77 C 204.14 352.02 213.88 354.97 225.22 360.78 C 236.57 366.59 253.77 362.61 267.00 364.00 C 280.23 365.39 291.55 358.93 303.00 354.00
C 304.69 365.40 304.03 378.04 291.78 379.78 C 279.52 381.51 266.90 381.36 255.00 381.00 C 243.10 380.64 229.85 382.75 219.77 379.23 C 209.70 375.70 202.24 371.86 192.98 368.03 C 183.71 364.19 176.29 360.39 167.31 356.69 C 158.33 353.00 149.79 348.75 140.92 345.08 C 132.06 341.41 124.11 337.36 115.31 333.69 C 106.50 330.03 97.65 325.98 88.92 322.08 C 80.20 318.17 71.69 314.90 62.93 311.07 C 54.16 307.25 45.59 302.98 36.77 299.23 C 27.95 295.47 19.00 291.29 10.00 288.00
C 10.00 267.11 10.00 246.97 10.00 226.00 C 10.00 205.03 10.01 184.13 10.00 163.00 C 9.99 141.87 10.01 121.38 10.00 100.00 C 9.99 78.62 10.03 58.88 10.00 37.00 C 9.97 15.12 36.59 21.02 49.00 29.00
M 228.00 351.00 
C 166.76 325.07 106.33 296.75 45.00 271.00
C 52.56 260.03 63.47 259.26 74.02 264.98 C 84.58 270.69 95.35 273.26 106.07 277.93 C 116.80 282.59 127.28 286.62 138.08 290.92 C 148.87 295.23 159.33 299.47 170.08 303.92 C 180.82 308.38 191.77 313.10 203.00 316.00
C 202.53 312.55 205.85 310.29 206.00 307.00
C 160.07 289.83 114.96 270.18 69.00 253.00
C 72.68 247.99 79.36 246.00 83.00 241.00
C 95.18 243.67 107.26 247.49 119.22 250.78 C 131.19 254.06 144.38 257.21 156.01 260.99 C 167.64 264.78 178.50 269.00 189.69 273.31 C 200.89 277.61 210.03 282.46 218.75 291.25 C 227.48 300.04 230.32 308.37 236.92 319.08 C 243.53 329.78 226.14 338.46 228.00 351.00
M 443.00 253.00 
C 434.03 255.82 425.79 259.59 416.93 262.93 C 408.07 266.26 399.65 270.20 390.77 273.77 C 381.90 277.34 372.94 280.31 363.98 283.98 C 355.01 287.64 347.78 290.93 338.32 294.32 C 328.86 297.71 322.32 301.73 311.93 304.93 C 301.54 308.13 300.82 321.61 303.00 333.00 C 305.18 344.39 293.61 348.46 284.00 351.00
C 285.07 337.79 268.02 328.38 275.92 316.92 C 283.83 305.47 286.54 295.94 297.25 287.25 C 307.95 278.55 317.91 275.36 330.22 270.22 C 342.54 265.08 356.04 262.20 368.68 257.68 C 381.31 253.16 394.81 250.77 407.67 246.67 C 420.54 242.57 434.14 239.49 443.00 253.00
M 467.00 271.00 
C 425.41 288.20 384.55 307.62 343.00 325.00
C 343.00 317.67 343.00 310.33 343.00 303.00
C 353.58 298.74 364.12 295.21 374.68 290.68 C 385.23 286.14 396.12 282.45 406.69 277.69 C 417.27 272.94 427.60 270.75 438.08 265.08 C 448.55 259.40 459.49 259.93 467.00 271.00
M 502.00 299.00 
C 502.00 308.67 502.00 318.33 502.00 328.00
C 492.46 331.71 483.42 335.92 473.92 339.92 C 464.42 343.93 455.27 348.56 445.77 352.77 C 436.27 356.98 426.48 360.62 416.93 364.93 C 407.37 369.24 398.46 373.41 388.77 377.77 C 379.08 382.13 369.93 385.46 359.98 389.98 C 350.02 394.49 342.31 397.92 331.77 402.77 C 321.23 407.63 314.84 409.46 302.98 414.98 C 291.11 420.49 304.32 430.21 314.23 432.77 C 324.14 435.34 333.39 441.49 343.07 444.93 C 352.76 448.36 361.61 454.06 371.23 457.77 C 380.85 461.49 390.36 466.31 400.00 470.00
C 400.00 479.67 400.00 489.33 400.00 499.00
C 389.17 494.72 378.59 489.91 367.92 485.08 C 357.26 480.24 346.54 476.20 335.92 471.08 C 325.31 465.95 314.48 462.72 303.92 457.08 C 293.37 451.43 282.51 449.49 271.93 443.07 C 261.35 436.66 250.55 436.09 239.93 442.93 C 229.31 449.77 218.59 451.31 207.93 456.93 C 197.26 462.54 186.71 466.10 175.98 470.98 C 165.24 475.85 155.08 480.71 144.31 485.31 C 133.53 489.90 122.97 494.91 112.00 499.00
C 112.00 489.33 112.00 479.67 112.00 470.00
C 121.49 466.48 130.64 461.83 140.08 458.08 C 149.51 454.32 159.12 448.94 168.68 445.68 C 178.23 442.42 187.39 435.30 197.08 433.08 C 206.76 430.85 221.42 421.10 209.77 415.23 C 198.12 409.36 191.39 408.05 180.93 403.07 C 170.46 398.10 162.70 394.77 152.77 390.23 C 142.84 385.68 133.64 382.38 123.93 378.07 C 114.22 373.76 105.37 369.46 95.77 365.23 C 86.17 361.00 76.53 357.19 66.98 353.02 C 57.42 348.86 48.35 344.24 38.77 340.23 C 29.20 336.21 19.66 331.76 10.00 328.00
C 10.00 318.33 10.00 308.67 10.00 299.00
C 22.63 304.31 35.13 309.87 47.69 315.31 C 60.26 320.74 72.50 326.39 85.08 331.92 C 97.65 337.46 110.16 342.41 122.69 348.31 C 135.23 354.20 148.54 358.75 161.07 364.93 C 173.61 371.10 186.08 374.82 198.68 381.32 C 211.27 387.82 223.58 390.17 236.22 397.78 C 248.87 405.38 262.50 406.25 275.08 398.08 C 287.65 389.90 300.44 388.70 313.02 382.03 C 325.61 375.35 337.60 371.15 350.23 365.23 C 362.86 359.30 376.10 354.47 388.69 348.69 C 401.28 342.92 413.46 337.63 426.08 332.08 C 438.69 326.52 451.06 321.32 463.69 315.69 C 476.33 310.07 489.20 304.36 502.00 299.00
M 333.00 308.00 
C 333.00 323.00 333.00 338.00 333.00 353.00
C 325.34 343.80 316.66 347.85 313.00 358.00
C 312.18 346.45 314.09 334.52 313.00 323.00 C 311.91 311.48 325.06 311.91 333.00 308.00
M 274.00 354.00 
C 262.00 354.00 250.00 354.00 238.00 354.00
C 232.84 326.16 278.50 326.52 274.00 354.00
M 329.00 364.00 
C 325.79 364.31 323.15 366.45 320.00 367.00
C 321.03 362.13 326.28 357.21 329.00 364.00
M 400.00 384.00 
C 400.00 409.00 400.00 434.00 400.00 459.00
C 371.07 447.47 342.99 433.43 314.00 422.00
C 342.05 408.65 371.20 396.14 400.00 384.00
M 265.00 392.00 
C 259.11 395.29 252.92 395.27 247.00 392.00
C 251.93 390.38 260.15 390.31 265.00 392.00 Z"/>
</g>
<g fill="#000000" fill-opacity="0.00" stroke="None">
<path d="
M 424.00 0.00 
L 88.00 0.00
C 147.59 19.55 232.59 25.08 255.00 97.00
C 268.70 67.21 289.30 41.79 321.93 30.93 C 354.55 20.06 390.62 8.29 424.00 0.00 Z"/>
</g>
<g fill="#000000" fill-opacity="0.00" stroke="None">
<path d="
M 512.00 28.00 
L 512.00 0.00
L 433.00 0.00
C 437.73 7.39 444.01 9.57 449.75 16.25 C 455.50 22.93 463.60 18.96 470.77 14.77 C 477.94 10.58 488.43 8.44 496.31 11.69 C 504.18 14.95 508.73 20.82 512.00 28.00 Z"/>
</g>
<g fill="#FDCA5C" fill-opacity="1.00" stroke="None">
<path d="
M 429.00 25.00 
C 427.49 21.69 431.02 14.96 429.00 12.00
C 418.91 10.99 407.00 16.10 396.67 18.67 C 386.34 21.24 375.30 24.18 365.22 27.22 C 355.15 30.26 344.96 33.75 335.22 37.22 C 325.49 40.70 316.31 44.54 307.23 49.23 C 298.15 53.92 291.63 60.11 285.25 68.25 C 278.87 76.38 274.03 82.84 269.77 92.77 C 265.51 102.71 260.40 111.76 261.00 124.00 C 261.60 136.24 260.70 151.11 261.00 164.00 C 261.30 176.89 260.78 191.89 261.00 205.00 C 261.22 218.11 260.71 231.93 261.00 245.00 C 261.29 258.07 260.46 272.16 261.00 285.00 C 261.54 297.84 258.94 312.75 263.00 323.00
C 285.03 254.56 366.84 251.13 424.00 232.00
C 424.00 163.00 424.00 94.00 424.00 25.00
C 425.67 25.00 427.33 25.00 429.00 25.00
M 397.00 50.00 
C 398.24 53.26 399.77 56.43 400.00 60.00
C 368.53 70.19 337.39 81.51 306.00 92.00
C 304.76 88.74 303.23 85.57 303.00 82.00
C 334.47 71.91 365.59 60.55 397.00 50.00
M 400.00 109.00 
C 368.37 118.59 337.24 130.03 306.00 141.00
C 297.76 127.27 319.45 125.01 330.22 121.22 C 341.00 117.44 357.31 111.54 368.23 108.23 C 379.14 104.92 399.03 91.84 400.00 109.00
M 397.00 148.00 
C 397.57 151.12 399.68 153.76 400.00 157.00
C 368.29 167.57 337.02 179.61 305.00 189.00
C 305.19 185.45 302.39 182.70 303.00 179.00
C 334.77 170.10 365.22 156.94 397.00 148.00
M 397.00 196.00 
C 397.61 199.44 400.17 202.30 400.00 206.00
C 368.51 216.16 337.40 227.44 306.00 238.00
C 304.76 234.74 303.23 231.57 303.00 228.00
C 334.50 217.85 365.61 206.53 397.00 196.00 Z"/>
</g>
<g fill="#FDCA5C" fill-opacity="1.00" stroke="None">
<path d="
M 249.00 323.00 
C 253.04 313.79 250.48 299.78 251.00 288.00 C 251.52 276.22 250.76 262.95 251.00 251.00 C 251.24 239.05 250.90 226.96 251.00 215.00 C 251.10 203.04 250.96 189.85 251.00 178.00 C 251.04 166.15 250.99 152.40 251.00 141.00 C 251.01 129.60 252.08 117.25 248.32 107.68 C 244.56 98.11 241.76 90.53 236.77 82.23 C 231.78 73.93 227.64 68.90 221.25 61.75 C 214.85 54.61 207.64 50.79 199.23 46.77 C 190.82 42.75 182.08 38.89 173.07 35.93 C 164.07 32.96 155.29 29.79 146.02 26.98 C 136.76 24.16 126.51 21.61 117.07 18.93 C 107.64 16.24 97.74 13.60 88.00 12.00
C 88.00 85.33 88.00 158.67 88.00 232.00
C 145.31 250.75 227.03 254.62 249.00 323.00
M 209.00 82.00 
C 208.78 85.53 207.22 88.72 206.00 92.00
C 174.64 81.36 143.57 69.93 112.00 60.00
C 112.22 56.47 113.78 53.28 115.00 50.00
C 146.40 60.56 177.48 71.83 209.00 82.00
M 206.00 141.00 
C 174.82 129.87 143.69 118.55 112.00 109.00
C 112.22 105.47 113.78 102.28 115.00 99.00
C 126.24 102.26 138.40 106.68 149.22 110.78 C 160.05 114.87 173.56 117.61 183.68 122.32 C 193.80 127.03 214.68 126.45 206.00 141.00
M 209.00 179.00 
C 209.62 182.68 206.80 185.40 207.00 189.00
C 175.06 179.36 143.74 167.43 112.00 157.00
C 114.02 141.33 129.39 153.22 140.07 155.93 C 150.76 158.64 163.11 164.61 174.22 167.78 C 185.33 170.94 197.51 176.56 209.00 179.00
M 209.00 228.00 
C 208.78 231.53 207.22 234.72 206.00 238.00
C 174.63 227.37 143.56 216.07 112.00 206.00
C 112.22 202.47 113.78 199.28 115.00 196.00
C 146.31 206.63 177.48 217.87 209.00 228.00 Z"/>
</g>
<g fill="#FEE2A8" fill-opacity="1.00" stroke="None">
<path d="
M 429.00 25.00 
C 430.67 25.00 432.33 25.00 434.00 25.00
C 434.00 94.67 434.00 164.33 434.00 234.00
C 439.15 235.86 442.76 240.95 448.00 243.00
C 448.00 184.00 448.00 125.00 448.00 66.00
C 451.33 66.00 454.67 66.00 458.00 66.00
C 458.00 128.00 458.00 190.00 458.00 252.00
C 463.14 253.86 466.76 258.95 472.00 261.00
C 472.15 244.83 471.80 228.11 472.00 212.00 C 472.20 195.89 471.62 178.91 472.00 163.00 C 472.38 147.09 471.16 130.52 472.00 115.00 C 472.84 99.48 470.19 80.74 472.00 66.00 C 473.81 51.26 463.81 43.20 453.75 35.25 C 443.70 27.30 440.10 16.85 429.00 12.00
C 431.02 14.96 427.49 21.69 429.00 25.00 Z"/>
</g>
<g fill="#FEE2A8" fill-opacity="1.00" stroke="None">
<path d="
M 78.00 17.00 
C 65.35 26.09 61.53 34.40 48.75 44.75 C 35.96 55.09 40.17 74.63 40.00 92.00 C 39.83 109.37 40.08 130.90 40.00 149.00 C 39.92 167.10 40.04 186.63 40.00 205.00 C 39.96 223.37 40.03 242.55 40.00 261.00
C 53.22 255.86 55.01 246.53 54.00 233.00 C 52.99 219.47 54.46 204.77 54.00 191.00 C 53.54 177.23 54.22 162.85 54.00 149.00 C 53.78 135.15 54.11 120.82 54.00 107.00 C 53.89 93.18 54.09 79.78 54.00 66.00
C 57.33 66.00 60.67 66.00 64.00 66.00
C 64.00 125.00 64.00 184.00 64.00 243.00
C 69.23 241.34 72.77 235.67 78.00 234.00
C 78.00 161.67 78.00 89.33 78.00 17.00 Z"/>
</g>
<g fill="#399148" fill-opacity="1.00" stroke="None">
<path d="
M 502.00 288.00 
C 501.91 266.77 502.11 245.19 502.00 224.00 C 501.89 202.81 502.22 182.17 502.00 161.00 C 501.78 139.83 502.48 119.26 502.00 98.00 C 501.52 76.74 503.05 56.52 502.00 35.00 C 500.94 13.48 474.40 22.02 463.00 29.00
C 465.32 39.05 478.54 38.63 481.22 48.78 C 483.90 58.93 481.36 73.45 482.00 85.00 C 482.64 96.55 481.79 111.05 482.00 123.00 C 482.21 134.95 482.11 148.00 482.00 160.00 C 481.89 172.00 482.50 185.17 482.00 197.00 C 481.50 208.83 483.17 223.76 482.00 235.00 C 480.83 246.24 484.76 262.20 481.92 271.92 C 479.09 281.65 464.93 280.59 457.68 285.68 C 450.43 290.77 440.12 292.50 432.02 297.03 C 423.93 301.56 414.81 303.93 406.08 308.08 C 397.34 312.22 389.15 316.09 379.69 319.70 C 370.24 323.30 364.84 328.19 354.08 331.08 C 343.31 333.96 340.24 344.90 343.00 357.00
C 396.24 334.69 448.77 310.29 502.00 288.00 Z"/>
</g>
<g fill="#399148" fill-opacity="1.00" stroke="None">
<path d="
M 49.00 29.00 
C 36.59 21.02 9.97 15.12 10.00 37.00 C 10.03 58.88 9.99 78.62 10.00 100.00 C 10.01 121.38 9.99 141.87 10.00 163.00 C 10.01 184.13 10.00 205.03 10.00 226.00 C 10.00 246.97 10.00 267.11 10.00 288.00
C 19.00 291.29 27.95 295.47 36.77 299.23 C 45.59 302.98 54.16 307.25 62.93 311.07 C 71.69 314.90 80.20 318.17 88.92 322.08 C 97.65 325.98 106.50 330.03 115.31 333.69 C 124.11 337.36 132.06 341.41 140.92 345.08 C 149.79 348.75 158.33 353.00 167.31 356.69 C 176.29 360.39 183.71 364.19 192.98 368.03 C 202.24 371.86 209.70 375.70 219.77 379.23 C 229.85 382.75 243.10 380.64 255.00 381.00 C 266.90 381.36 279.52 381.51 291.78 379.78 C 304.03 378.04 304.69 365.40 303.00 354.00
C 291.55 358.93 280.23 365.39 267.00 364.00 C 253.77 362.61 236.57 366.59 225.22 360.78 C 213.88 354.97 204.14 352.02 193.23 346.77 C 182.32 341.52 172.83 337.79 162.08 332.92 C 151.32 328.06 140.81 323.56 130.08 318.92 C 119.35 314.28 109.80 309.69 99.07 304.93 C 88.35 300.16 77.79 296.25 67.08 290.92 C 56.37 285.60 46.83 283.48 36.03 276.97 C 25.22 270.47 31.00 250.43 30.00 237.00 C 29.00 223.57 30.48 206.33 30.00 192.00 C 29.52 177.67 30.31 160.62 30.00 146.00 C 29.69 131.38 30.34 115.56 30.00 101.00 C 29.66 86.44 30.59 69.11 30.00 55.00 C 29.41 40.89 44.63 40.53 49.00 29.00 Z"/>
</g>
<g fill="#4E281A" fill-opacity="1.00" stroke="None">
<path d="
M 209.00 82.00 
C 177.48 71.83 146.40 60.56 115.00 50.00
C 113.78 53.28 112.22 56.47 112.00 60.00
C 143.57 69.93 174.64 81.36 206.00 92.00
C 207.22 88.72 208.78 85.53 209.00 82.00 Z"/>
</g>
<g fill="#4F281B" fill-opacity="1.00" stroke="None">
<path d="
M 397.00 50.00 
C 365.59 60.55 334.47 71.91 303.00 82.00
C 303.23 85.57 304.76 88.74 306.00 92.00
C 337.39 81.51 368.53 70.19 400.00 60.00
C 399.77 56.43 398.24 53.26 397.00 50.00 Z"/>
</g>
<g fill="#4E281A" fill-opacity="1.00" stroke="None">
<path d="
M 206.00 141.00 
C 214.68 126.45 193.80 127.03 183.68 122.32 C 173.56 117.61 160.05 114.87 149.22 110.78 C 138.40 106.68 126.24 102.26 115.00 99.00
C 113.78 102.28 112.22 105.47 112.00 109.00
C 143.69 118.55 174.82 129.87 206.00 141.00 Z"/>
</g>
<g fill="#4F291B" fill-opacity="1.00" stroke="None">
<path d="
M 400.00 109.00 
C 399.03 91.84 379.14 104.92 368.23 108.23 C 357.31 111.54 341.00 117.44 330.22 121.22 C 319.45 125.01 297.76 127.27 306.00 141.00
C 337.24 130.03 368.37 118.59 400.00 109.00 Z"/>
</g>
<g fill="#4E281A" fill-opacity="1.00" stroke="None">
<path d="
M 209.00 179.00 
C 197.51 176.56 185.33 170.94 174.22 167.78 C 163.11 164.61 150.76 158.64 140.07 155.93 C 129.39 153.22 114.02 141.33 112.00 157.00
C 143.74 167.43 175.06 179.36 207.00 189.00
C 206.80 185.40 209.62 182.68 209.00 179.00 Z"/>
</g>
<g fill="#4F281A" fill-opacity="1.00" stroke="None">
<path d="
M 397.00 148.00 
C 365.22 156.94 334.77 170.10 303.00 179.00
C 302.39 182.70 305.19 185.45 305.00 189.00
C 337.02 179.61 368.29 167.57 400.00 157.00
C 399.68 153.76 397.57 151.12 397.00 148.00 Z"/>
</g>
<g fill="#4E281A" fill-opacity="1.00" stroke="None">
<path d="
M 209.00 228.00 
C 177.48 217.87 146.31 206.63 115.00 196.00
C 113.78 199.28 112.22 202.47 112.00 206.00
C 143.56 216.07 174.63 227.37 206.00 238.00
C 207.22 234.72 208.78 231.53 209.00 228.00 Z"/>
</g>
<g fill="#4F281A" fill-opacity="1.00" stroke="None">
<path d="
M 397.00 196.00 
C 365.61 206.53 334.50 217.85 303.00 228.00
C 303.23 231.57 304.76 234.74 306.00 238.00
C 337.40 227.44 368.51 216.16 400.00 206.00
C 400.17 202.30 397.61 199.44 397.00 196.00 Z"/>
</g>
<g fill="#FCB010" fill-opacity="1.00" stroke="None">
<path d="
M 228.00 351.00 
C 226.14 338.46 243.53 329.78 236.92 319.08 C 230.32 308.37 227.48 300.04 218.75 291.25 C 210.03 282.46 200.89 277.61 189.69 273.31 C 178.50 269.00 167.64 264.78 156.01 260.99 C 144.38 257.21 131.19 254.06 119.22 250.78 C 107.26 247.49 95.18 243.67 83.00 241.00
C 79.36 246.00 72.68 247.99 69.00 253.00
C 114.96 270.18 160.07 289.83 206.00 307.00
C 205.85 310.29 202.53 312.55 203.00 316.00
C 191.77 313.10 180.82 308.38 170.08 303.92 C 159.33 299.47 148.87 295.23 138.08 290.92 C 127.28 286.62 116.80 282.59 106.07 277.93 C 95.35 273.26 84.58 270.69 74.02 264.98 C 63.47 259.26 52.56 260.03 45.00 271.00
C 106.33 296.75 166.76 325.07 228.00 351.00 Z"/>
</g>
<g fill="#FCB00F" fill-opacity="1.00" stroke="None">
<path d="
M 443.00 253.00 
C 434.14 239.49 420.54 242.57 407.67 246.67 C 394.81 250.77 381.31 253.16 368.68 257.68 C 356.04 262.20 342.54 265.08 330.22 270.22 C 317.91 275.36 307.95 278.55 297.25 287.25 C 286.54 295.94 283.83 305.47 275.92 316.92 C 268.02 328.38 285.07 337.79 284.00 351.00
C 293.61 348.46 305.18 344.39 303.00 333.00 C 300.82 321.61 301.54 308.13 311.93 304.93 C 322.32 301.73 328.86 297.71 338.32 294.32 C 347.78 290.93 355.01 287.64 363.98 283.98 C 372.94 280.31 381.90 277.34 390.77 273.77 C 399.65 270.20 408.07 266.26 416.93 262.93 C 425.79 259.59 434.03 255.82 443.00 253.00 Z"/>
</g>
<g fill="#FBB011" fill-opacity="1.00" stroke="None">
<path d="
M 467.00 271.00 
C 459.49 259.93 448.55 259.40 438.08 265.08 C 427.60 270.75 417.27 272.94 406.69 277.69 C 396.12 282.45 385.23 286.14 374.68 290.68 C 364.12 295.21 353.58 298.74 343.00 303.00
C 343.00 310.33 343.00 317.67 343.00 325.00
C 384.55 307.62 425.41 288.20 467.00 271.00 Z"/>
</g>
<g fill="#E16315" fill-opacity="1.00" stroke="None">
<path d="
M 502.00 299.00 
C 489.20 304.36 476.33 310.07 463.69 315.69 C 451.06 321.32 438.69 326.52 426.08 332.08 C 413.46 337.63 401.28 342.92 388.69 348.69 C 376.10 354.47 362.86 359.30 350.23 365.23 C 337.60 371.15 325.61 375.35 313.02 382.03 C 300.44 388.70 287.65 389.90 275.08 398.08 C 262.50 406.25 248.87 405.38 236.22 397.78 C 223.58 390.17 211.27 387.82 198.68 381.32 C 186.08 374.82 173.61 371.10 161.07 364.93 C 148.54 358.75 135.23 354.20 122.69 348.31 C 110.16 342.41 97.65 337.46 85.08 331.92 C 72.50 326.39 60.26 320.74 47.69 315.31 C 35.13 309.87 22.63 304.31 10.00 299.00
C 10.00 308.67 10.00 318.33 10.00 328.00
C 19.66 331.76 29.20 336.21 38.77 340.23 C 48.35 344.24 57.42 348.86 66.98 353.02 C 76.53 357.19 86.17 361.00 95.77 365.23 C 105.37 369.46 114.22 373.76 123.93 378.07 C 133.64 382.38 142.84 385.68 152.77 390.23 C 162.70 394.77 170.46 398.10 180.93 403.07 C 191.39 408.05 198.12 409.36 209.77 415.23 C 221.42 421.10 206.76 430.85 197.08 433.08 C 187.39 435.30 178.23 442.42 168.68 445.68 C 159.12 448.94 149.51 454.32 140.08 458.08 C 130.64 461.83 121.49 466.48 112.00 470.00
C 112.00 479.67 112.00 489.33 112.00 499.00
C 122.97 494.91 133.53 489.90 144.31 485.31 C 155.08 480.71 165.24 475.85 175.98 470.98 C 186.71 466.10 197.26 462.54 207.93 456.93 C 218.59 451.31 229.31 449.77 239.93 442.93 C 250.55 436.09 261.35 436.66 271.93 443.07 C 282.51 449.49 293.37 451.43 303.92 457.08 C 314.48 462.72 325.31 465.95 335.92 471.08 C 346.54 476.20 357.26 480.24 367.92 485.08 C 378.59 489.91 389.17 494.72 400.00 499.00
C 400.00 489.33 400.00 479.67 400.00 470.00
C 390.36 466.31 380.85 461.49 371.23 457.77 C 361.61 454.06 352.76 448.36 343.07 444.93 C 333.39 441.49 324.14 435.34 314.23 432.77 C 304.32 430.21 291.11 420.49 302.98 414.98 C 314.84 409.46 321.23 407.63 331.77 402.77 C 342.31 397.92 350.02 394.49 359.98 389.98 C 369.93 385.46 379.08 382.13 388.77 377.77 C 398.46 373.41 407.37 369.24 416.93 364.93 C 426.48 360.62 436.27 356.98 445.77 352.77 C 455.27 348.56 464.42 343.93 473.92 339.92 C 483.42 335.92 492.46 331.71 502.00 328.00
C 502.00 318.33 502.00 308.67 502.00 299.00 Z"/>
</g>
<g fill="#E66A4C" fill-opacity="1.00" stroke="None">
<path d="
M 333.00 308.00 
C 325.06 311.91 311.91 311.48 313.00 323.00 C 314.09 334.52 312.18 346.45 313.00 358.00
C 316.66 347.85 325.34 343.80 333.00 353.00
C 333.00 338.00 333.00 323.00 333.00 308.00 Z"/>
</g>
<g fill="#2C6C37" fill-opacity="1.00" stroke="None">
<path d="
M 274.00 354.00 
C 278.50 326.52 232.84 326.16 238.00 354.00
C 250.00 354.00 262.00 354.00 274.00 354.00 Z"/>
</g>
<g fill="#000000" fill-opacity="0.00" stroke="None">
<path d="
M 0.00 512.00 
L 104.00 512.00
C 99.88 493.98 102.64 474.23 102.00 455.00 C 101.36 435.77 102.48 415.34 102.00 396.00
C 103.67 396.00 105.33 396.00 107.00 396.00
C 105.54 392.12 108.95 385.61 107.00 382.00
C 70.24 369.10 35.88 349.00 0.00 334.00
L 0.00 512.00 Z"/>
</g>
<g fill="#000000" fill-opacity="0.00" stroke="None">
<path d="
M 408.00 512.00 
L 512.00 512.00
L 512.00 334.00
C 503.09 339.74 493.70 342.77 484.08 347.08 C 474.45 351.38 466.37 355.37 456.23 359.23 C 446.09 363.09 439.84 368.12 428.69 371.69 C 417.55 375.27 407.42 380.03 410.00 394.00 C 412.58 407.97 408.97 420.49 410.00 434.00 C 411.03 447.51 409.83 460.83 410.00 474.00 C 410.17 487.17 411.48 500.07 408.00 512.00 Z"/>
</g>
<g fill="#407F40" fill-opacity="1.00" stroke="None">
<path d="
M 329.00 364.00 
C 326.28 357.21 321.03 362.13 320.00 367.00
C 323.15 366.45 325.79 364.31 329.00 364.00 Z"/>
</g>
<g fill="#B14D10" fill-opacity="1.00" stroke="None">
<path d="
M 107.00 396.00 
C 108.67 396.00 110.33 396.00 112.00 396.00
C 112.00 417.00 112.00 438.00 112.00 459.00
C 140.57 447.32 168.55 434.11 197.00 422.00
C 167.83 408.32 137.71 392.78 107.00 382.00
C 108.95 385.61 105.54 392.12 107.00 396.00 Z"/>
</g>
<g fill="#B14D10" fill-opacity="1.00" stroke="None">
<path d="
M 400.00 384.00 
C 371.20 396.14 342.05 408.65 314.00 422.00
C 342.99 433.43 371.07 447.47 400.00 459.00
C 400.00 434.00 400.00 409.00 400.00 384.00 Z"/>
</g>
<g fill="#AC4B10" fill-opacity="1.00" stroke="None">
<path d="
M 265.00 392.00 
C 260.15 390.31 251.93 390.38 247.00 392.00
C 252.92 395.27 259.11 395.29 265.00 392.00 Z"/>
</g>
<g fill="#000000" fill-opacity="0.00" stroke="None">
<path d="
M 111.00 512.00 
L 401.00 512.00
C 390.82 506.68 379.77 501.81 369.03 496.98 C 358.28 492.14 347.70 488.32 337.03 482.98 C 326.35 477.63 314.89 474.68 304.22 468.78 C 293.56 462.87 282.95 461.65 272.23 454.77 C 261.51 447.89 249.78 448.30 239.08 455.08 C 228.38 461.85 217.71 463.21 207.08 469.08 C 196.44 474.94 184.95 478.14 174.23 483.23 C 163.51 488.32 153.33 492.81 142.68 497.68 C 132.03 502.55 120.92 506.13 111.00 512.00 Z"/>
</g>
</svg>