<svg xmlns="http://www.w3.org/2000/svg" xmlns:v="https://svgstorm.com"
viewBox = "0 0 512 512"
width="512"
height="512">
<g fill="None" fill-opacity="0.0" stroke="#000000" stroke-opacity="0.01" stroke-width="0.3"><path d="
M 0.00 250.00 
C 0.83 210.99 13.83 166.65 25.13 143.08 C 36.43 119.52 49.71 98.10 71.00 74.00
C 73.68 75.33 76.11 74.21 79.00 74.00
C 82.97 84.45 93.60 85.99 99.25 77.25 C 104.89 68.51 111.40 67.59 117.25 61.81 C 123.11 56.03 128.44 53.32 134.25 49.81 C 140.07 46.31 144.98 41.60 150.77 39.42 C 156.56 37.25 160.29 33.63 166.30 31.29 C 172.32 28.95 177.82 26.89 184.25 24.24 C 190.68 21.60 197.17 20.55 204.25 18.81 C 211.33 17.06 219.09 13.91 226.25 13.24 C 233.40 12.58 239.25 10.90 246.75 11.40 C 254.25 11.90 271.81 6.04 273.39 15.75 C 274.98 25.47 273.70 39.99 274.00 52.00 C 274.30 64.01 273.86 79.40 274.00 92.00 C 274.14 104.60 273.94 118.16 274.00 131.00 C 274.06 143.84 273.97 157.02 274.00 170.00 C 274.03 182.98 273.99 195.91 274.00 209.00 C 274.01 222.09 273.99 235.85 274.00 249.00
C 287.34 249.04 300.66 248.95 314.00 249.00 C 327.34 249.05 340.65 248.90 354.00 249.00 C 367.35 249.10 381.73 248.79 395.00 249.00 C 408.27 249.21 422.00 248.53 435.00 249.00 C 448.00 249.47 462.48 247.95 475.00 249.00 C 487.52 250.05 503.35 244.51 511.00 254.00
C 511.05 254.15 512.00 254.00 512.00 254.00
L 512.00 200.00
C 506.35 210.97 491.23 205.11 477.00 206.00 C 462.77 206.89 443.97 205.71 429.00 206.00 C 414.03 206.29 397.15 206.15 382.00 206.00 C 366.85 205.85 348.87 206.66 334.00 206.00 C 319.13 205.34 303.91 209.51 294.00 202.00
C 291.85 187.58 306.42 191.18 319.00 191.00
C 318.43 172.04 319.76 155.17 319.00 136.00 C 318.24 116.83 320.45 100.94 319.00 81.00 C 317.55 61.06 322.38 58.82 342.00 59.00 C 361.62 59.18 366.96 60.92 365.00 81.00 C 363.04 101.08 366.02 116.76 365.00 136.00 C 363.98 155.24 365.77 171.98 365.00 191.00
C 370.00 191.00 375.00 191.00 380.00 191.00
C 378.94 177.05 377.98 153.52 379.00 140.00 C 380.02 126.48 374.94 101.93 383.11 95.11 C 391.27 88.28 413.59 88.75 422.10 94.91 C 430.61 101.06 426.42 125.24 427.00 139.00 C 427.58 152.76 427.39 176.81 426.00 191.00
C 431.00 191.00 436.00 191.00 441.00 191.00
C 438.59 172.74 444.21 156.45 441.00 138.00 C 437.79 119.55 449.42 118.65 466.00 119.00 C 482.58 119.35 488.69 120.67 488.00 138.00 C 487.31 155.33 489.34 174.05 487.00 191.00
C 495.35 191.15 504.97 190.28 510.00 192.00
C 511.27 193.53 509.54 195.95 512.00 197.00
L 512.00 0.00
L 0.00 0.00
L 0.00 250.00 Z"/>
</g>
<g fill="None" fill-opacity="0.0" stroke="#000000" stroke-opacity="1.00" stroke-width="0.3"><path d="
M 0.00 250.00 
L 0.00 263.00
C 1.99 266.44 0.71 271.80 1.00 276.00
C 2.02 290.92 5.54 307.10 8.78 321.22 C 12.02 335.34 17.08 348.64 22.31 361.69 C 27.53 374.75 34.02 384.22 40.75 396.25 C 47.49 408.27 55.28 416.14 63.25 427.75 C 71.23 439.35 84.37 446.38 93.00 430.00
C 159.66 500.01 274.00 518.13 360.23 482.23 C 446.46 446.33 503.23 366.03 511.00 275.00
C 511.55 268.05 510.37 260.94 511.00 254.00
C 503.35 244.51 487.52 250.05 475.00 249.00 C 462.48 247.95 448.00 249.47 435.00 249.00 C 422.00 248.53 408.27 249.21 395.00 249.00 C 381.73 248.79 367.35 249.10 354.00 249.00 C 340.65 248.90 327.34 249.05 314.00 249.00 C 300.66 248.95 287.34 249.04 274.00 249.00
C 273.99 235.85 274.01 222.09 274.00 209.00 C 273.99 195.91 274.03 182.98 274.00 170.00 C 273.97 157.02 274.06 143.84 274.00 131.00 C 273.94 118.16 274.14 104.60 274.00 92.00 C 273.86 79.40 274.30 64.01 274.00 52.00 C 273.70 39.99 274.98 25.47 273.39 15.75 C 271.81 6.04 254.25 11.90 246.75 11.40 C 239.25 10.90 233.40 12.58 226.25 13.24 C 219.09 13.91 211.33 17.06 204.25 18.81 C 197.17 20.55 190.68 21.60 184.25 24.24 C 177.82 26.89 172.32 28.95 166.30 31.29 C 160.29 33.63 156.56 37.25 150.77 39.42 C 144.98 41.60 140.07 46.31 134.25 49.81 C 128.44 53.32 123.11 56.03 117.25 61.81 C 111.40 67.59 104.89 68.51 99.25 77.25 C 93.60 85.99 82.97 84.45 79.00 74.00
C 76.11 74.21 73.68 75.33 71.00 74.00
C 49.71 98.10 36.43 119.52 25.13 143.08 C 13.83 166.65 0.83 210.99 0.00 250.00
M 259.00 41.00 
C 259.00 90.00 259.00 139.00 259.00 188.00
C 259.00 194.30 259.22 208.49 259.00 214.00 C 258.78 219.51 260.05 236.96 258.00 237.00
C 252.82 237.11 248.55 226.75 243.75 224.25 C 238.95 221.75 234.03 215.21 229.30 211.70 C 224.57 208.19 220.13 202.41 215.25 198.75 C 210.37 195.10 206.19 189.51 201.25 185.75 C 196.31 181.99 191.95 177.00 187.25 172.75 C 182.55 168.51 177.46 164.53 172.77 160.23 C 168.08 155.93 163.38 151.65 158.75 147.25 C 154.12 142.84 149.42 138.63 144.75 134.25 C 140.09 129.86 134.98 126.05 130.30 121.70 C 125.62 117.34 121.15 112.74 116.25 108.75 C 111.35 104.77 107.13 99.63 102.00 96.00
C 142.52 53.05 198.23 29.72 256.00 26.00
C 256.94 26.23 258.04 25.82 259.00 26.00
C 259.00 31.00 259.00 36.00 259.00 41.00
M 55.00 390.00 
C 31.66 352.69 16.00 310.38 16.00 265.00
C 15.48 259.65 15.49 253.28 16.00 248.00
C 16.00 203.07 30.85 162.31 53.00 125.00
C 59.50 114.05 66.81 103.10 75.00 93.00
C 135.60 145.69 194.28 202.25 255.00 255.00
C 249.61 263.60 239.98 269.23 232.75 276.75 C 225.53 284.28 217.83 291.15 210.25 298.25 C 202.67 305.35 194.86 313.17 187.25 320.25 C 179.63 327.33 172.26 334.56 164.75 341.75 C 157.24 348.94 149.97 356.42 142.25 363.25 C 134.53 370.07 126.66 378.10 119.25 385.25 C 111.84 392.40 103.61 399.47 96.25 406.25 C 88.89 413.02 80.66 426.43 73.75 416.25 C 66.84 406.06 59.69 400.92 55.00 390.00
M 496.00 267.00 
C 497.60 306.68 479.53 349.53 458.75 381.75 C 437.96 413.96 414.07 436.14 380.75 455.75 C 347.44 475.37 299.59 488.20 259.00 486.00
C 201.37 482.87 145.75 461.36 105.00 419.00
C 158.29 370.30 210.55 319.43 263.00 270.00
C 269.72 262.14 275.70 262.45 286.00 263.00 C 296.30 263.55 306.72 262.74 317.00 263.00 C 327.28 263.26 337.78 262.86 348.00 263.00 C 358.22 263.14 368.91 262.88 379.00 263.00 C 389.09 263.12 399.11 262.82 409.00 263.00 C 418.89 263.18 430.48 262.64 440.00 263.00 C 449.52 263.36 462.38 262.23 471.00 263.00 C 479.62 263.77 495.70 259.54 496.00 267.00 Z"/>
</g>
<g fill="None" fill-opacity="0.0" stroke="#FD5C5B" stroke-opacity="1.00" stroke-width="0.3"><path d="
M 258.00 237.00 
C 255.64 229.78 258.83 220.72 258.00 213.00 C 257.17 205.28 257.99 195.87 258.00 188.00
C 258.00 187.50 258.00 187.00 258.00 187.00
C 224.38 163.50 198.93 128.40 166.00 104.00
C 171.27 97.64 176.94 92.51 183.08 87.08 C 189.22 81.66 194.96 76.50 201.75 71.75 C 208.53 66.99 215.02 61.49 222.75 57.75 C 230.47 54.00 236.34 48.56 245.22 46.22 C 254.10 43.89 264.00 36.07 256.00 26.00
C 198.23 29.72 142.52 53.05 102.00 96.00
C 107.13 99.63 111.35 104.77 116.25 108.75 C 121.15 112.74 125.62 117.34 130.30 121.70 C 134.98 126.05 140.09 129.86 144.75 134.25 C 149.42 138.63 154.12 142.84 158.75 147.25 C 163.38 151.65 168.08 155.93 172.77 160.23 C 177.46 164.53 182.55 168.51 187.25 172.75 C 191.95 177.00 196.31 181.99 201.25 185.75 C 206.19 189.51 210.37 195.10 215.25 198.75 C 220.13 202.41 224.57 208.19 229.30 211.70 C 234.03 215.21 238.95 221.75 243.75 224.25 C 248.55 226.75 252.82 237.11 258.00 237.00 Z"/>
</g>
<g fill="None" fill-opacity="0.0" stroke="#E00F5A" stroke-opacity="1.00" stroke-width="0.3"><path d="
M 258.00 187.00 
C 257.97 138.96 254.45 88.07 259.00 41.00
C 259.00 36.00 259.00 31.00 259.00 26.00
C 258.04 25.82 256.94 26.23 256.00 26.00
C 264.00 36.07 254.10 43.89 245.22 46.22 C 236.34 48.56 230.47 54.00 222.75 57.75 C 215.02 61.49 208.53 66.99 201.75 71.75 C 194.96 76.50 189.22 81.66 183.08 87.08 C 176.94 92.51 171.27 97.64 166.00 104.00
C 198.93 128.40 224.38 163.50 258.00 187.00 Z"/>
</g>
<g fill="None" fill-opacity="0.0" stroke="#B30C49" stroke-opacity="1.00" stroke-width="0.3"><path d="
M 258.00 187.00 
C 258.00 187.00 258.00 187.50 258.00 188.00
C 258.25 188.25 259.00 188.00 259.00 188.00
C 259.00 139.00 259.00 90.00 259.00 41.00
C 254.45 88.07 257.97 138.96 258.00 187.00 Z"/>
</g>
<g fill="None" fill-opacity="0.0" stroke="#000000" stroke-opacity="0.99" stroke-width="0.3"><path d="
M 512.00 200.00 
L 512.00 197.00
C 509.54 195.95 511.27 193.53 510.00 192.00
C 504.97 190.28 495.35 191.15 487.00 191.00
C 489.34 174.05 487.31 155.33 488.00 138.00 C 488.69 120.67 482.58 119.35 466.00 119.00 C 449.42 118.65 437.79 119.55 441.00 138.00 C 444.21 156.45 438.59 172.74 441.00 191.00
C 436.00 191.00 431.00 191.00 426.00 191.00
C 427.39 176.81 427.58 152.76 427.00 139.00 C 426.42 125.24 430.61 101.06 422.10 94.91 C 413.59 88.75 391.27 88.28 383.11 95.11 C 374.94 101.93 380.02 126.48 379.00 140.00 C 377.98 153.52 378.94 177.05 380.00 191.00
C 375.00 191.00 370.00 191.00 365.00 191.00
C 365.77 171.98 363.98 155.24 365.00 136.00 C 366.02 116.76 363.04 101.08 365.00 81.00 C 366.96 60.92 361.62 59.18 342.00 59.00 C 322.38 58.82 317.55 61.06 319.00 81.00 C 320.45 100.94 318.24 116.83 319.00 136.00 C 319.76 155.17 318.43 172.04 319.00 191.00
C 306.42 191.18 291.85 187.58 294.00 202.00
C 303.91 209.51 319.13 205.34 334.00 206.00 C 348.87 206.66 366.85 205.85 382.00 206.00 C 397.15 206.15 414.03 206.29 429.00 206.00 C 443.97 205.71 462.77 206.89 477.00 206.00 C 491.23 205.11 506.35 210.97 512.00 200.00
M 350.00 191.00 
C 346.42 193.51 338.02 189.12 334.00 191.00
C 334.00 152.00 334.00 113.00 334.00 74.00
C 339.33 74.00 344.67 74.00 350.00 74.00
C 353.84 76.69 350.03 86.85 351.00 92.00 C 351.97 97.15 350.65 106.13 351.00 112.00 C 351.35 117.87 351.02 125.93 351.00 132.00 C 350.98 138.07 351.41 146.12 351.00 152.00 C 350.59 157.88 352.07 166.84 351.00 172.00 C 349.93 177.16 353.92 188.25 350.00 191.00
M 411.00 108.00 
C 411.00 135.67 411.00 163.33 411.00 191.00
C 405.67 191.00 400.33 191.00 395.00 191.00
C 395.00 163.33 395.00 135.67 395.00 108.00
C 400.33 108.00 405.67 108.00 411.00 108.00
M 472.00 135.00 
C 474.89 139.13 470.73 147.68 472.00 153.00 C 473.27 158.32 471.34 166.20 472.00 172.00 C 472.66 177.80 471.50 185.06 472.00 191.00
C 466.67 191.00 461.33 191.00 456.00 191.00
C 456.00 172.33 456.00 153.67 456.00 135.00
C 457.39 133.02 470.66 133.09 472.00 135.00 Z"/>
</g>
<g fill="None" fill-opacity="0.0" stroke="#25B6F9" stroke-opacity="1.00" stroke-width="0.3"><path d="
M 350.00 191.00 
C 350.00 152.00 350.00 113.00 350.00 74.00
C 344.67 74.00 339.33 74.00 334.00 74.00
C 334.00 113.00 334.00 152.00 334.00 191.00
C 338.02 189.12 346.42 193.51 350.00 191.00 Z"/>
</g>
<g fill="None" fill-opacity="0.0" stroke="#0E4965" stroke-opacity="1.00" stroke-width="0.3"><path d="
M 350.00 191.00 
C 353.92 188.25 349.93 177.16 351.00 172.00 C 352.07 166.84 350.59 157.88 351.00 152.00 C 351.41 146.12 350.98 138.07 351.00 132.00 C 351.02 125.93 351.35 117.87 351.00 112.00 C 350.65 106.13 351.97 97.15 351.00 92.00 C 350.03 86.85 353.84 76.69 350.00 74.00
C 350.00 113.00 350.00 152.00 350.00 191.00 Z"/>
</g>
<g fill="None" fill-opacity="0.0" stroke="#FDC637" stroke-opacity="1.00" stroke-width="0.3"><path d="
M 53.00 125.00 
C 53.82 129.04 62.47 132.74 65.25 136.75 C 68.02 140.76 75.21 144.10 78.75 148.25 C 82.29 152.40 87.71 156.31 91.75 160.25 C 95.79 164.19 100.56 168.30 104.75 172.25 C 108.94 176.20 113.63 180.12 117.75 184.25 C 121.88 188.37 126.00 191.76 130.25 195.75 C 134.50 199.74 139.04 203.58 143.25 207.75 C 147.45 211.93 152.44 215.18 156.70 219.30 C 160.96 223.42 165.28 227.48 169.75 231.25 C 174.23 235.01 178.11 239.72 182.75 243.25 C 187.39 246.78 191.48 251.28 196.00 255.00
C 150.91 300.92 101.60 344.71 55.00 390.00
C 59.69 400.92 66.84 406.06 73.75 416.25 C 80.66 426.43 88.89 413.02 96.25 406.25 C 103.61 399.47 111.84 392.40 119.25 385.25 C 126.66 378.10 134.53 370.07 142.25 363.25 C 149.97 356.42 157.24 348.94 164.75 341.75 C 172.26 334.56 179.63 327.33 187.25 320.25 C 194.86 313.17 202.67 305.35 210.25 298.25 C 217.83 291.15 225.53 284.28 232.75 276.75 C 239.98 269.23 249.61 263.60 255.00 255.00
C 194.28 202.25 135.60 145.69 75.00 93.00
C 66.81 103.10 59.50 114.05 53.00 125.00 Z"/>
</g>
<g fill="None" fill-opacity="0.0" stroke="#FEF158" stroke-opacity="1.00" stroke-width="0.3"><path d="
M 411.00 108.00 
C 405.67 108.00 400.33 108.00 395.00 108.00
C 395.00 135.67 395.00 163.33 395.00 191.00
C 400.33 191.00 405.67 191.00 411.00 191.00
C 411.00 163.33 411.00 135.67 411.00 108.00 Z"/>
</g>
<g fill="None" fill-opacity="0.0" stroke="#FEF158" stroke-opacity="1.00" stroke-width="0.3"><path d="
M 16.00 248.00 
C 16.00 253.67 16.00 259.33 16.00 265.00
C 16.00 310.38 31.66 352.69 55.00 390.00
C 101.60 344.71 150.91 300.92 196.00 255.00
C 191.48 251.28 187.39 246.78 182.75 243.25 C 178.11 239.72 174.23 235.01 169.75 231.25 C 165.28 227.48 160.96 223.42 156.70 219.30 C 152.44 215.18 147.45 211.93 143.25 207.75 C 139.04 203.58 134.50 199.74 130.25 195.75 C 126.00 191.76 121.88 188.37 117.75 184.25 C 113.63 180.12 108.94 176.20 104.75 172.25 C 100.56 168.30 95.79 164.19 91.75 160.25 C 87.71 156.31 82.29 152.40 78.75 148.25 C 75.21 144.10 68.02 140.76 65.25 136.75 C 62.47 132.74 53.82 129.04 53.00 125.00
C 30.85 162.31 16.00 203.07 16.00 248.00 Z"/>
</g>
<g fill="None" fill-opacity="0.0" stroke="#752A2A" stroke-opacity="1.00" stroke-width="0.3"><path d="
M 456.00 135.00 
C 461.33 135.00 466.67 135.00 472.00 135.00
C 470.66 133.09 457.39 133.02 456.00 135.00 Z"/>
</g>
<g fill="None" fill-opacity="0.0" stroke="#FB5B5A" stroke-opacity="1.00" stroke-width="0.3"><path d="
M 472.00 135.00 
C 466.67 135.00 461.33 135.00 456.00 135.00
C 456.00 153.67 456.00 172.33 456.00 191.00
C 461.33 191.00 466.67 191.00 472.00 191.00
C 471.50 185.06 472.66 177.80 472.00 172.00 C 471.34 166.20 473.27 158.32 472.00 153.00 C 470.73 147.68 474.89 139.13 472.00 135.00 Z"/>
</g>
<g fill="None" fill-opacity="0.0" stroke="#CB4949" stroke-opacity="1.00" stroke-width="0.3"><path d="
M 258.00 237.00 
C 260.05 236.96 258.78 219.51 259.00 214.00 C 259.22 208.49 259.00 194.30 259.00 188.00
C 259.00 188.00 258.25 188.25 258.00 188.00
C 257.99 195.87 257.17 205.28 258.00 213.00 C 258.83 220.72 255.64 229.78 258.00 237.00 Z"/>
</g>
<g fill="None" fill-opacity="0.0" stroke="#676224" stroke-opacity="1.00" stroke-width="0.3"><path d="
M 16.00 265.00 
C 16.00 259.33 16.00 253.67 16.00 248.00
C 15.49 253.28 15.48 259.65 16.00 265.00 Z"/>
</g>
<g fill="None" fill-opacity="0.0" stroke="#000000" stroke-opacity="0.66" stroke-width="0.3"><path d="
M 511.00 275.00 
C 511.04 274.87 512.00 275.00 512.00 275.00
L 512.00 254.00
C 512.00 254.00 511.05 254.15 511.00 254.00
C 510.37 260.94 511.55 268.05 511.00 275.00 Z"/>
</g>
<g fill="None" fill-opacity="0.0" stroke="#000000" stroke-opacity="0.62" stroke-width="0.3"><path d="
M 0.00 276.00 
C 0.50 276.00 1.00 276.00 1.00 276.00
C 0.71 271.80 1.99 266.44 0.00 263.00
L 0.00 276.00 Z"/>
</g>
<g fill="None" fill-opacity="0.0" stroke="#073042" stroke-opacity="1.00" stroke-width="0.3"><path d="
M 263.00 270.00 
C 273.18 259.82 286.93 264.72 301.00 264.00 C 315.07 263.28 331.51 264.32 346.00 264.00 C 360.49 263.68 375.32 264.12 390.00 264.00 C 404.68 263.88 420.24 264.00 435.00 264.00
C 455.33 264.00 475.67 264.00 496.00 264.00
C 496.00 265.00 496.00 266.00 496.00 267.00
C 495.70 259.54 479.62 263.77 471.00 263.00 C 462.38 262.23 449.52 263.36 440.00 263.00 C 430.48 262.64 418.89 263.18 409.00 263.00 C 399.11 262.82 389.09 263.12 379.00 263.00 C 368.91 262.88 358.22 263.14 348.00 263.00 C 337.78 262.86 327.28 263.26 317.00 263.00 C 306.72 262.74 296.30 263.55 286.00 263.00 C 275.70 262.45 269.72 262.14 263.00 270.00 Z"/>
</g>
<g fill="None" fill-opacity="0.0" stroke="#25B9FE" stroke-opacity="1.00" stroke-width="0.3"><path d="
M 263.00 270.00 
C 210.55 319.43 158.29 370.30 105.00 419.00
C 145.75 461.36 201.37 482.87 259.00 486.00
C 282.81 484.98 307.71 467.94 328.08 456.08 C 348.45 444.22 364.61 427.11 380.75 408.75 C 396.90 390.40 407.91 370.22 417.92 346.92 C 427.94 323.63 435.53 290.91 435.00 264.00
C 420.24 264.00 404.68 263.88 390.00 264.00 C 375.32 264.12 360.49 263.68 346.00 264.00 C 331.51 264.32 315.07 263.28 301.00 264.00 C 286.93 264.72 273.18 259.82 263.00 270.00 Z"/>
</g>
<g fill="None" fill-opacity="0.0" stroke="#0CA7E4" stroke-opacity="1.00" stroke-width="0.3"><path d="
M 259.00 486.00 
C 299.59 488.20 347.44 475.37 380.75 455.75 C 414.07 436.14 437.96 413.96 458.75 381.75 C 479.53 349.53 497.60 306.68 496.00 267.00
C 496.00 266.00 496.00 265.00 496.00 264.00
C 475.67 264.00 455.33 264.00 435.00 264.00
C 435.53 290.91 427.94 323.63 417.92 346.92 C 407.91 370.22 396.90 390.40 380.75 408.75 C 364.61 427.11 348.45 444.22 328.08 456.08 C 307.71 467.94 282.81 484.98 259.00 486.00 Z"/>
</g>
<g fill="None" fill-opacity="0.0" stroke="#000000" stroke-opacity="0.01" stroke-width="0.3"><path d="
M 1.00 276.00 
C 1.00 276.00 0.50 276.00 0.00 276.00
L 0.00 512.00
L 512.00 512.00
L 512.00 275.00
C 512.00 275.00 511.04 274.87 511.00 275.00
C 503.23 366.03 446.46 446.33 360.23 482.23 C 274.00 518.13 159.66 500.01 93.00 430.00
C 84.37 446.38 71.23 439.35 63.25 427.75 C 55.28 416.14 47.49 408.27 40.75 396.25 C 34.02 384.22 27.53 374.75 22.31 361.69 C 17.08 348.64 12.02 335.34 8.78 321.22 C 5.54 307.10 2.02 290.92 1.00 276.00 Z"/>
</g>
<g fill="#000000" fill-opacity="0.01" stroke="None">
<path d="
M 0.00 250.00 
C 0.83 210.99 13.83 166.65 25.13 143.08 C 36.43 119.52 49.71 98.10 71.00 74.00
C 73.68 75.33 76.11 74.21 79.00 74.00
C 82.97 84.45 93.60 85.99 99.25 77.25 C 104.89 68.51 111.40 67.59 117.25 61.81 C 123.11 56.03 128.44 53.32 134.25 49.81 C 140.07 46.31 144.98 41.60 150.77 39.42 C 156.56 37.25 160.29 33.63 166.30 31.29 C 172.32 28.95 177.82 26.89 184.25 24.24 C 190.68 21.60 197.17 20.55 204.25 18.81 C 211.33 17.06 219.09 13.91 226.25 13.24 C 233.40 12.58 239.25 10.90 246.75 11.40 C 254.25 11.90 271.81 6.04 273.39 15.75 C 274.98 25.47 273.70 39.99 274.00 52.00 C 274.30 64.01 273.86 79.40 274.00 92.00 C 274.14 104.60 273.94 118.16 274.00 131.00 C 274.06 143.84 273.97 157.02 274.00 170.00 C 274.03 182.98 273.99 195.91 274.00 209.00 C 274.01 222.09 273.99 235.85 274.00 249.00
C 287.34 249.04 300.66 248.95 314.00 249.00 C 327.34 249.05 340.65 248.90 354.00 249.00 C 367.35 249.10 381.73 248.79 395.00 249.00 C 408.27 249.21 422.00 248.53 435.00 249.00 C 448.00 249.47 462.48 247.95 475.00 249.00 C 487.52 250.05 503.35 244.51 511.00 254.00
C 511.05 254.15 512.00 254.00 512.00 254.00
L 512.00 200.00
C 506.35 210.97 491.23 205.11 477.00 206.00 C 462.77 206.89 443.97 205.71 429.00 206.00 C 414.03 206.29 397.15 206.15 382.00 206.00 C 366.85 205.85 348.87 206.66 334.00 206.00 C 319.13 205.34 303.91 209.51 294.00 202.00
C 291.85 187.58 306.42 191.18 319.00 191.00
C 318.43 172.04 319.76 155.17 319.00 136.00 C 318.24 116.83 320.45 100.94 319.00 81.00 C 317.55 61.06 322.38 58.82 342.00 59.00 C 361.62 59.18 366.96 60.92 365.00 81.00 C 363.04 101.08 366.02 116.76 365.00 136.00 C 363.98 155.24 365.77 171.98 365.00 191.00
C 370.00 191.00 375.00 191.00 380.00 191.00
C 378.94 177.05 377.98 153.52 379.00 140.00 C 380.02 126.48 374.94 101.93 383.11 95.11 C 391.27 88.28 413.59 88.75 422.10 94.91 C 430.61 101.06 426.42 125.24 427.00 139.00 C 427.58 152.76 427.39 176.81 426.00 191.00
C 431.00 191.00 436.00 191.00 441.00 191.00
C 438.59 172.74 444.21 156.45 441.00 138.00 C 437.79 119.55 449.42 118.65 466.00 119.00 C 482.58 119.35 488.69 120.67 488.00 138.00 C 487.31 155.33 489.34 174.05 487.00 191.00
C 495.35 191.15 504.97 190.28 510.00 192.00
C 511.27 193.53 509.54 195.95 512.00 197.00
L 512.00 0.00
L 0.00 0.00
L 0.00 250.00 Z"/>
</g>
<g fill="#000000" fill-opacity="1.00" stroke="None">
<path d="
M 0.00 250.00 
L 0.00 263.00
C 1.99 266.44 0.71 271.80 1.00 276.00
C 2.02 290.92 5.54 307.10 8.78 321.22 C 12.02 335.34 17.08 348.64 22.31 361.69 C 27.53 374.75 34.02 384.22 40.75 396.25 C 47.49 408.27 55.28 416.14 63.25 427.75 C 71.23 439.35 84.37 446.38 93.00 430.00
C 159.66 500.01 274.00 518.13 360.23 482.23 C 446.46 446.33 503.23 366.03 511.00 275.00
C 511.55 268.05 510.37 260.94 511.00 254.00
C 503.35 244.51 487.52 250.05 475.00 249.00 C 462.48 247.95 448.00 249.47 435.00 249.00 C 422.00 248.53 408.27 249.21 395.00 249.00 C 381.73 248.79 367.35 249.10 354.00 249.00 C 340.65 248.90 327.34 249.05 314.00 249.00 C 300.66 248.95 287.34 249.04 274.00 249.00
C 273.99 235.85 274.01 222.09 274.00 209.00 C 273.99 195.91 274.03 182.98 274.00 170.00 C 273.97 157.02 274.06 143.84 274.00 131.00 C 273.94 118.16 274.14 104.60 274.00 92.00 C 273.86 79.40 274.30 64.01 274.00 52.00 C 273.70 39.99 274.98 25.47 273.39 15.75 C 271.81 6.04 254.25 11.90 246.75 11.40 C 239.25 10.90 233.40 12.58 226.25 13.24 C 219.09 13.91 211.33 17.06 204.25 18.81 C 197.17 20.55 190.68 21.60 184.25 24.24 C 177.82 26.89 172.32 28.95 166.30 31.29 C 160.29 33.63 156.56 37.25 150.77 39.42 C 144.98 41.60 140.07 46.31 134.25 49.81 C 128.44 53.32 123.11 56.03 117.25 61.81 C 111.40 67.59 104.89 68.51 99.25 77.25 C 93.60 85.99 82.97 84.45 79.00 74.00
C 76.11 74.21 73.68 75.33 71.00 74.00
C 49.71 98.10 36.43 119.52 25.13 143.08 C 13.83 166.65 0.83 210.99 0.00 250.00
M 259.00 41.00 
C 259.00 90.00 259.00 139.00 259.00 188.00
C 259.00 194.30 259.22 208.49 259.00 214.00 C 258.78 219.51 260.05 236.96 258.00 237.00
C 252.82 237.11 248.55 226.75 243.75 224.25 C 238.95 221.75 234.03 215.21 229.30 211.70 C 224.57 208.19 220.13 202.41 215.25 198.75 C 210.37 195.10 206.19 189.51 201.25 185.75 C 196.31 181.99 191.95 177.00 187.25 172.75 C 182.55 168.51 177.46 164.53 172.77 160.23 C 168.08 155.93 163.38 151.65 158.75 147.25 C 154.12 142.84 149.42 138.63 144.75 134.25 C 140.09 129.86 134.98 126.05 130.30 121.70 C 125.62 117.34 121.15 112.74 116.25 108.75 C 111.35 104.77 107.13 99.63 102.00 96.00
C 142.52 53.05 198.23 29.72 256.00 26.00
C 256.94 26.23 258.04 25.82 259.00 26.00
C 259.00 31.00 259.00 36.00 259.00 41.00
M 55.00 390.00 
C 31.66 352.69 16.00 310.38 16.00 265.00
C 15.48 259.65 15.49 253.28 16.00 248.00
C 16.00 203.07 30.85 162.31 53.00 125.00
C 59.50 114.05 66.81 103.10 75.00 93.00
C 135.60 145.69 194.28 202.25 255.00 255.00
C 249.61 263.60 239.98 269.23 232.75 276.75 C 225.53 284.28 217.83 291.15 210.25 298.25 C 202.67 305.35 194.86 313.17 187.25 320.25 C 179.63 327.33 172.26 334.56 164.75 341.75 C 157.24 348.94 149.97 356.42 142.25 363.25 C 134.53 370.07 126.66 378.10 119.25 385.25 C 111.84 392.40 103.61 399.47 96.25 406.25 C 88.89 413.02 80.66 426.43 73.75 416.25 C 66.84 406.06 59.69 400.92 55.00 390.00
M 496.00 267.00 
C 497.60 306.68 479.53 349.53 458.75 381.75 C 437.96 413.96 414.07 436.14 380.75 455.75 C 347.44 475.37 299.59 488.20 259.00 486.00
C 201.37 482.87 145.75 461.36 105.00 419.00
C 158.29 370.30 210.55 319.43 263.00 270.00
C 269.72 262.14 275.70 262.45 286.00 263.00 C 296.30 263.55 306.72 262.74 317.00 263.00 C 327.28 263.26 337.78 262.86 348.00 263.00 C 358.22 263.14 368.91 262.88 379.00 263.00 C 389.09 263.12 399.11 262.82 409.00 263.00 C 418.89 263.18 430.48 262.64 440.00 263.00 C 449.52 263.36 462.38 262.23 471.00 263.00 C 479.62 263.77 495.70 259.54 496.00 267.00 Z"/>
</g>
<g fill="#FD5C5B" fill-opacity="1.00" stroke="None">
<path d="
M 258.00 237.00 
C 255.64 229.78 258.83 220.72 258.00 213.00 C 257.17 205.28 257.99 195.87 258.00 188.00
C 258.00 187.50 258.00 187.00 258.00 187.00
C 224.38 163.50 198.93 128.40 166.00 104.00
C 171.27 97.64 176.94 92.51 183.08 87.08 C 189.22 81.66 194.96 76.50 201.75 71.75 C 208.53 66.99 215.02 61.49 222.75 57.75 C 230.47 54.00 236.34 48.56 245.22 46.22 C 254.10 43.89 264.00 36.07 256.00 26.00
C 198.23 29.72 142.52 53.05 102.00 96.00
C 107.13 99.63 111.35 104.77 116.25 108.75 C 121.15 112.74 125.62 117.34 130.30 121.70 C 134.98 126.05 140.09 129.86 144.75 134.25 C 149.42 138.63 154.12 142.84 158.75 147.25 C 163.38 151.65 168.08 155.93 172.77 160.23 C 177.46 164.53 182.55 168.51 187.25 172.75 C 191.95 177.00 196.31 181.99 201.25 185.75 C 206.19 189.51 210.37 195.10 215.25 198.75 C 220.13 202.41 224.57 208.19 229.30 211.70 C 234.03 215.21 238.95 221.75 243.75 224.25 C 248.55 226.75 252.82 237.11 258.00 237.00 Z"/>
</g>
<g fill="#E00F5A" fill-opacity="1.00" stroke="None">
<path d="
M 258.00 187.00 
C 257.97 138.96 254.45 88.07 259.00 41.00
C 259.00 36.00 259.00 31.00 259.00 26.00
C 258.04 25.82 256.94 26.23 256.00 26.00
C 264.00 36.07 254.10 43.89 245.22 46.22 C 236.34 48.56 230.47 54.00 222.75 57.75 C 215.02 61.49 208.53 66.99 201.75 71.75 C 194.96 76.50 189.22 81.66 183.08 87.08 C 176.94 92.51 171.27 97.64 166.00 104.00
C 198.93 128.40 224.38 163.50 258.00 187.00 Z"/>
</g>
<g fill="#B30C49" fill-opacity="1.00" stroke="None">
<path d="
M 258.00 187.00 
C 258.00 187.00 258.00 187.50 258.00 188.00
C 258.25 188.25 259.00 188.00 259.00 188.00
C 259.00 139.00 259.00 90.00 259.00 41.00
C 254.45 88.07 257.97 138.96 258.00 187.00 Z"/>
</g>
<g fill="#000000" fill-opacity="0.99" stroke="None">
<path d="
M 512.00 200.00 
L 512.00 197.00
C 509.54 195.95 511.27 193.53 510.00 192.00
C 504.97 190.28 495.35 191.15 487.00 191.00
C 489.34 174.05 487.31 155.33 488.00 138.00 C 488.69 120.67 482.58 119.35 466.00 119.00 C 449.42 118.65 437.79 119.55 441.00 138.00 C 444.21 156.45 438.59 172.74 441.00 191.00
C 436.00 191.00 431.00 191.00 426.00 191.00
C 427.39 176.81 427.58 152.76 427.00 139.00 C 426.42 125.24 430.61 101.06 422.10 94.91 C 413.59 88.75 391.27 88.28 383.11 95.11 C 374.94 101.93 380.02 126.48 379.00 140.00 C 377.98 153.52 378.94 177.05 380.00 191.00
C 375.00 191.00 370.00 191.00 365.00 191.00
C 365.77 171.98 363.98 155.24 365.00 136.00 C 366.02 116.76 363.04 101.08 365.00 81.00 C 366.96 60.92 361.62 59.18 342.00 59.00 C 322.38 58.82 317.55 61.06 319.00 81.00 C 320.45 100.94 318.24 116.83 319.00 136.00 C 319.76 155.17 318.43 172.04 319.00 191.00
C 306.42 191.18 291.85 187.58 294.00 202.00
C 303.91 209.51 319.13 205.34 334.00 206.00 C 348.87 206.66 366.85 205.85 382.00 206.00 C 397.15 206.15 414.03 206.29 429.00 206.00 C 443.97 205.71 462.77 206.89 477.00 206.00 C 491.23 205.11 506.35 210.97 512.00 200.00
M 350.00 191.00 
C 346.42 193.51 338.02 189.12 334.00 191.00
C 334.00 152.00 334.00 113.00 334.00 74.00
C 339.33 74.00 344.67 74.00 350.00 74.00
C 353.84 76.69 350.03 86.85 351.00 92.00 C 351.97 97.15 350.65 106.13 351.00 112.00 C 351.35 117.87 351.02 125.93 351.00 132.00 C 350.98 138.07 351.41 146.12 351.00 152.00 C 350.59 157.88 352.07 166.84 351.00 172.00 C 349.93 177.16 353.92 188.25 350.00 191.00
M 411.00 108.00 
C 411.00 135.67 411.00 163.33 411.00 191.00
C 405.67 191.00 400.33 191.00 395.00 191.00
C 395.00 163.33 395.00 135.67 395.00 108.00
C 400.33 108.00 405.67 108.00 411.00 108.00
M 472.00 135.00 
C 474.89 139.13 470.73 147.68 472.00 153.00 C 473.27 158.32 471.34 166.20 472.00 172.00 C 472.66 177.80 471.50 185.06 472.00 191.00
C 466.67 191.00 461.33 191.00 456.00 191.00
C 456.00 172.33 456.00 153.67 456.00 135.00
C 457.39 133.02 470.66 133.09 472.00 135.00 Z"/>
</g>
<g fill="#25B6F9" fill-opacity="1.00" stroke="None">
<path d="
M 350.00 191.00 
C 350.00 152.00 350.00 113.00 350.00 74.00
C 344.67 74.00 339.33 74.00 334.00 74.00
C 334.00 113.00 334.00 152.00 334.00 191.00
C 338.02 189.12 346.42 193.51 350.00 191.00 Z"/>
</g>
<g fill="#0E4965" fill-opacity="1.00" stroke="None">
<path d="
M 350.00 191.00 
C 353.92 188.25 349.93 177.16 351.00 172.00 C 352.07 166.84 350.59 157.88 351.00 152.00 C 351.41 146.12 350.98 138.07 351.00 132.00 C 351.02 125.93 351.35 117.87 351.00 112.00 C 350.65 106.13 351.97 97.15 351.00 92.00 C 350.03 86.85 353.84 76.69 350.00 74.00
C 350.00 113.00 350.00 152.00 350.00 191.00 Z"/>
</g>
<g fill="#FDC637" fill-opacity="1.00" stroke="None">
<path d="
M 53.00 125.00 
C 53.82 129.04 62.47 132.74 65.25 136.75 C 68.02 140.76 75.21 144.10 78.75 148.25 C 82.29 152.40 87.71 156.31 91.75 160.25 C 95.79 164.19 100.56 168.30 104.75 172.25 C 108.94 176.20 113.63 180.12 117.75 184.25 C 121.88 188.37 126.00 191.76 130.25 195.75 C 134.50 199.74 139.04 203.58 143.25 207.75 C 147.45 211.93 152.44 215.18 156.70 219.30 C 160.96 223.42 165.28 227.48 169.75 231.25 C 174.23 235.01 178.11 239.72 182.75 243.25 C 187.39 246.78 191.48 251.28 196.00 255.00
C 150.91 300.92 101.60 344.71 55.00 390.00
C 59.69 400.92 66.84 406.06 73.75 416.25 C 80.66 426.43 88.89 413.02 96.25 406.25 C 103.61 399.47 111.84 392.40 119.25 385.25 C 126.66 378.10 134.53 370.07 142.25 363.25 C 149.97 356.42 157.24 348.94 164.75 341.75 C 172.26 334.56 179.63 327.33 187.25 320.25 C 194.86 313.17 202.67 305.35 210.25 298.25 C 217.83 291.15 225.53 284.28 232.75 276.75 C 239.98 269.23 249.61 263.60 255.00 255.00
C 194.28 202.25 135.60 145.69 75.00 93.00
C 66.81 103.10 59.50 114.05 53.00 125.00 Z"/>
</g>
<g fill="#FEF158" fill-opacity="1.00" stroke="None">
<path d="
M 411.00 108.00 
C 405.67 108.00 400.33 108.00 395.00 108.00
C 395.00 135.67 395.00 163.33 395.00 191.00
C 400.33 191.00 405.67 191.00 411.00 191.00
C 411.00 163.33 411.00 135.67 411.00 108.00 Z"/>
</g>
<g fill="#FEF158" fill-opacity="1.00" stroke="None">
<path d="
M 16.00 248.00 
C 16.00 253.67 16.00 259.33 16.00 265.00
C 16.00 310.38 31.66 352.69 55.00 390.00
C 101.60 344.71 150.91 300.92 196.00 255.00
C 191.48 251.28 187.39 246.78 182.75 243.25 C 178.11 239.72 174.23 235.01 169.75 231.25 C 165.28 227.48 160.96 223.42 156.70 219.30 C 152.44 215.18 147.45 211.93 143.25 207.75 C 139.04 203.58 134.50 199.74 130.25 195.75 C 126.00 191.76 121.88 188.37 117.75 184.25 C 113.63 180.12 108.94 176.20 104.75 172.25 C 100.56 168.30 95.79 164.19 91.75 160.25 C 87.71 156.31 82.29 152.40 78.75 148.25 C 75.21 144.10 68.02 140.76 65.25 136.75 C 62.47 132.74 53.82 129.04 53.00 125.00
C 30.85 162.31 16.00 203.07 16.00 248.00 Z"/>
</g>
<g fill="#752A2A" fill-opacity="1.00" stroke="None">
<path d="
M 456.00 135.00 
C 461.33 135.00 466.67 135.00 472.00 135.00
C 470.66 133.09 457.39 133.02 456.00 135.00 Z"/>
</g>
<g fill="#FB5B5A" fill-opacity="1.00" stroke="None">
<path d="
M 472.00 135.00 
C 466.67 135.00 461.33 135.00 456.00 135.00
C 456.00 153.67 456.00 172.33 456.00 191.00
C 461.33 191.00 466.67 191.00 472.00 191.00
C 471.50 185.06 472.66 177.80 472.00 172.00 C 471.34 166.20 473.27 158.32 472.00 153.00 C 470.73 147.68 474.89 139.13 472.00 135.00 Z"/>
</g>
<g fill="#CB4949" fill-opacity="1.00" stroke="None">
<path d="
M 258.00 237.00 
C 260.05 236.96 258.78 219.51 259.00 214.00 C 259.22 208.49 259.00 194.30 259.00 188.00
C 259.00 188.00 258.25 188.25 258.00 188.00
C 257.99 195.87 257.17 205.28 258.00 213.00 C 258.83 220.72 255.64 229.78 258.00 237.00 Z"/>
</g>
<g fill="#676224" fill-opacity="1.00" stroke="None">
<path d="
M 16.00 265.00 
C 16.00 259.33 16.00 253.67 16.00 248.00
C 15.49 253.28 15.48 259.65 16.00 265.00 Z"/>
</g>
<g fill="#000000" fill-opacity="0.66" stroke="None">
<path d="
M 511.00 275.00 
C 511.04 274.87 512.00 275.00 512.00 275.00
L 512.00 254.00
C 512.00 254.00 511.05 254.15 511.00 254.00
C 510.37 260.94 511.55 268.05 511.00 275.00 Z"/>
</g>
<g fill="#000000" fill-opacity="0.62" stroke="None">
<path d="
M 0.00 276.00 
C 0.50 276.00 1.00 276.00 1.00 276.00
C 0.71 271.80 1.99 266.44 0.00 263.00
L 0.00 276.00 Z"/>
</g>
<g fill="#073042" fill-opacity="1.00" stroke="None">
<path d="
M 263.00 270.00 
C 273.18 259.82 286.93 264.72 301.00 264.00 C 315.07 263.28 331.51 264.32 346.00 264.00 C 360.49 263.68 375.32 264.12 390.00 264.00 C 404.68 263.88 420.24 264.00 435.00 264.00
C 455.33 264.00 475.67 264.00 496.00 264.00
C 496.00 265.00 496.00 266.00 496.00 267.00
C 495.70 259.54 479.62 263.77 471.00 263.00 C 462.38 262.23 449.52 263.36 440.00 263.00 C 430.48 262.64 418.89 263.18 409.00 263.00 C 399.11 262.82 389.09 263.12 379.00 263.00 C 368.91 262.88 358.22 263.14 348.00 263.00 C 337.78 262.86 327.28 263.26 317.00 263.00 C 306.72 262.74 296.30 263.55 286.00 263.00 C 275.70 262.45 269.72 262.14 263.00 270.00 Z"/>
</g>
<g fill="#25B9FE" fill-opacity="1.00" stroke="None">
<path d="
M 263.00 270.00 
C 210.55 319.43 158.29 370.30 105.00 419.00
C 145.75 461.36 201.37 482.87 259.00 486.00
C 282.81 484.98 307.71 467.94 328.08 456.08 C 348.45 444.22 364.61 427.11 380.75 408.75 C 396.90 390.40 407.91 370.22 417.92 346.92 C 427.94 323.63 435.53 290.91 435.00 264.00
C 420.24 264.00 404.68 263.88 390.00 264.00 C 375.32 264.12 360.49 263.68 346.00 264.00 C 331.51 264.32 315.07 263.28 301.00 264.00 C 286.93 264.72 273.18 259.82 263.00 270.00 Z"/>
</g>
<g fill="#0CA7E4" fill-opacity="1.00" stroke="None">
<path d="
M 259.00 486.00 
C 299.59 488.20 347.44 475.37 380.75 455.75 C 414.07 436.14 437.96 413.96 458.75 381.75 C 479.53 349.53 497.60 306.68 496.00 267.00
C 496.00 266.00 496.00 265.00 496.00 264.00
C 475.67 264.00 455.33 264.00 435.00 264.00
C 435.53 290.91 427.94 323.63 417.92 346.92 C 407.91 370.22 396.90 390.40 380.75 408.75 C 364.61 427.11 348.45 444.22 328.08 456.08 C 307.71 467.94 282.81 484.98 259.00 486.00 Z"/>
</g>
<g fill="#000000" fill-opacity="0.01" stroke="None">
<path d="
M 1.00 276.00 
C 1.00 276.00 0.50 276.00 0.00 276.00
L 0.00 512.00
L 512.00 512.00
L 512.00 275.00
C 512.00 275.00 511.04 274.87 511.00 275.00
C 503.23 366.03 446.46 446.33 360.23 482.23 C 274.00 518.13 159.66 500.01 93.00 430.00
C 84.37 446.38 71.23 439.35 63.25 427.75 C 55.28 416.14 47.49 408.27 40.75 396.25 C 34.02 384.22 27.53 374.75 22.31 361.69 C 17.08 348.64 12.02 335.34 8.78 321.22 C 5.54 307.10 2.02 290.92 1.00 276.00 Z"/>
</g>
</svg>