<svg xmlns="http://www.w3.org/2000/svg" xmlns:v="https://svgstorm.com"
viewBox = "0 0 512 512"
width="512"
height="512">
<g fill="None" fill-opacity="0.0" stroke="#000000" stroke-opacity="0.01" stroke-width="0.3"><path d="
M 0.00 335.00 
C 29.42 307.39 67.03 287.15 99.00 262.00
C 85.55 247.80 62.21 247.57 52.08 228.92 C 41.95 210.27 49.64 175.60 50.00 155.00
C 38.79 146.00 19.81 142.21 19.74 128.25 C 19.66 114.29 18.80 85.77 21.71 73.70 C 24.62 61.63 34.31 55.32 46.25 53.80 C 58.19 52.28 70.11 48.97 82.25 47.80 C 94.38 46.63 106.86 42.67 118.75 41.40 C 130.64 40.12 143.12 36.86 155.25 35.20 C 167.38 33.54 178.78 31.60 190.75 29.41 C 202.73 27.22 214.62 26.74 226.75 23.41 C 238.88 20.08 252.01 20.93 260.75 28.59 C 269.50 36.25 279.32 38.80 288.75 45.39 C 298.19 51.99 308.01 58.50 317.25 64.75 C 326.50 70.99 336.02 74.81 345.25 81.19 C 354.49 87.57 363.69 93.48 373.25 99.19 C 382.81 104.90 391.63 111.81 402.00 118.00
C 402.06 125.44 400.97 131.22 397.00 136.00
C 430.83 161.30 476.56 184.08 512.00 212.00
L 512.00 0.00
L 0.00 0.00
L 0.00 335.00 Z"/>
</g>
<g fill="None" fill-opacity="0.0" stroke="#000000" stroke-opacity="1.00" stroke-width="0.3"><path d="
M 0.00 335.00 
L 0.00 338.00
C 3.88 352.26 11.97 369.17 10.80 384.25 C 9.63 399.33 8.92 420.79 1.00 434.00
C 1.31 434.90 1.31 438.10 1.00 439.00
C 3.50 451.34 27.18 447.06 38.02 450.98 C 48.87 454.89 67.19 455.16 79.67 458.33 C 92.15 461.49 107.87 462.86 121.02 465.98 C 134.18 469.09 149.53 470.09 163.00 473.00 C 176.47 475.91 190.60 477.77 204.07 480.93 C 217.55 484.09 232.81 483.92 246.00 488.00 C 259.19 492.08 272.26 490.21 282.08 481.08 C 291.90 471.95 300.87 468.30 310.70 460.70 C 320.52 453.10 329.49 447.38 339.25 440.25 C 349.00 433.11 358.38 427.11 368.08 420.08 C 377.78 413.06 387.04 406.88 396.75 399.75 C 406.45 392.61 415.79 387.06 425.70 379.70 C 435.60 372.33 443.97 367.33 454.25 359.25 C 464.53 351.16 465.09 332.61 464.00 320.00
C 479.44 315.02 499.85 319.10 512.00 308.00
L 512.00 304.00
C 500.80 276.76 498.12 242.82 512.00 216.00
L 512.00 212.00
C 476.56 184.08 430.83 161.30 397.00 136.00
C 400.97 131.22 402.06 125.44 402.00 118.00
C 391.63 111.81 382.81 104.90 373.25 99.19 C 363.69 93.48 354.49 87.57 345.25 81.19 C 336.02 74.81 326.50 70.99 317.25 64.75 C 308.01 58.50 298.19 51.99 288.75 45.39 C 279.32 38.80 269.50 36.25 260.75 28.59 C 252.01 20.93 238.88 20.08 226.75 23.41 C 214.62 26.74 202.73 27.22 190.75 29.41 C 178.78 31.60 167.38 33.54 155.25 35.20 C 143.12 36.86 130.64 40.12 118.75 41.40 C 106.86 42.67 94.38 46.63 82.25 47.80 C 70.11 48.97 58.19 52.28 46.25 53.80 C 34.31 55.32 24.62 61.63 21.71 73.70 C 18.80 85.77 19.66 114.29 19.74 128.25 C 19.81 142.21 38.79 146.00 50.00 155.00
C 49.64 175.60 41.95 210.27 52.08 228.92 C 62.21 247.57 85.55 247.80 99.00 262.00
C 67.03 287.15 29.42 307.39 0.00 335.00
M 371.00 118.00 
C 356.57 120.75 341.59 122.94 327.00 125.00 C 312.41 127.06 297.31 131.35 282.78 132.78 C 268.25 134.21 252.04 139.08 237.98 139.98 C 223.91 140.88 206.17 148.08 192.99 146.99 C 179.81 145.91 171.97 132.33 160.30 127.70 C 148.64 123.06 139.87 112.96 128.75 107.25 C 117.64 101.53 107.52 93.64 96.77 87.23 C 86.02 80.82 75.36 73.68 65.00 67.00
C 79.72 65.38 94.29 61.61 109.00 60.00 C 123.72 58.39 138.69 53.77 153.22 52.22 C 167.75 50.67 184.07 46.35 198.07 45.07 C 212.07 43.79 229.85 37.24 243.01 38.01 C 256.16 38.78 264.24 52.44 275.70 57.30 C 287.15 62.16 296.68 71.49 307.70 77.30 C 318.71 83.12 328.47 91.46 339.25 97.75 C 350.02 104.05 360.89 110.96 371.00 118.00
M 173.00 155.00 
C 162.94 170.83 168.36 191.57 167.00 210.00
C 157.79 205.03 148.74 198.89 139.77 193.23 C 130.80 187.57 121.68 181.98 112.77 176.23 C 103.86 170.48 94.04 164.52 85.30 158.70 C 76.56 152.88 66.56 147.73 58.30 141.70 C 50.05 135.66 34.22 131.35 36.00 119.00 C 37.78 106.65 32.37 87.27 37.77 76.77 C 43.17 66.27 55.88 82.40 64.08 85.92 C 72.29 89.44 82.25 98.45 91.08 102.92 C 99.91 107.40 109.18 115.80 118.25 120.75 C 127.31 125.71 136.26 132.20 145.25 137.75 C 154.24 143.31 163.96 149.33 173.00 155.00
M 381.00 134.00 
C 373.29 151.95 375.26 173.18 382.00 191.00
C 370.83 193.06 359.62 194.55 348.33 196.33 C 337.04 198.11 325.36 200.53 313.99 201.99 C 302.62 203.45 291.15 206.40 279.93 207.93 C 268.70 209.45 257.01 211.68 246.00 213.00 C 234.99 214.31 222.37 218.15 211.78 218.78 C 201.19 219.40 184.14 228.63 184.00 215.00 C 183.87 201.37 184.78 189.99 184.00 176.00 C 183.22 162.01 198.09 162.93 209.07 161.07 C 220.05 159.21 232.78 157.74 244.00 156.00 C 255.22 154.26 265.78 152.05 277.07 150.07 C 288.36 148.10 300.61 146.95 312.00 145.00 C 323.40 143.05 334.60 140.93 346.07 139.07 C 357.54 137.21 369.40 135.50 381.00 134.00
M 393.00 164.00 
C 392.56 161.29 391.20 158.81 393.00 156.00
C 394.91 153.02 405.10 161.51 409.75 164.25 C 414.39 167.00 422.31 172.07 427.70 175.30 C 433.08 178.54 439.51 183.28 445.23 186.77 C 450.95 190.26 457.30 194.15 463.08 197.92 C 468.86 201.69 475.82 205.66 481.00 210.00
C 466.60 211.57 452.29 213.94 438.00 216.00 C 423.71 218.06 409.96 221.42 395.78 223.78 C 381.60 226.14 366.98 226.88 353.00 230.00 C 339.02 233.12 324.04 234.12 310.00 237.00 C 295.96 239.88 281.89 240.54 268.00 244.00 C 254.11 247.46 244.92 239.97 234.00 232.00
C 251.94 229.07 268.12 226.09 286.22 223.22 C 304.32 220.36 320.35 217.86 339.00 215.00 C 357.65 212.15 371.15 209.36 391.07 206.07 C 410.99 202.79 392.52 178.35 393.00 164.00
M 237.00 253.00 
C 220.86 272.05 230.76 300.45 228.00 324.00
C 214.54 316.35 201.52 308.16 188.30 299.70 C 175.09 291.23 161.88 283.10 148.75 274.25 C 135.63 265.40 122.28 259.35 109.30 249.70 C 96.33 240.05 82.55 235.37 69.75 224.25 C 56.96 213.12 67.41 181.17 64.00 165.00
C 75.12 171.72 85.48 178.35 96.25 185.75 C 107.02 193.15 117.89 198.51 128.70 206.30 C 139.51 214.10 150.64 219.06 161.70 227.30 C 172.75 235.55 186.68 242.23 201.00 237.00 C 215.33 231.78 224.34 250.37 237.00 253.00
M 491.00 225.00 
C 483.19 248.87 485.85 275.43 493.00 299.00
C 478.64 300.29 465.27 304.21 450.98 305.98 C 436.68 307.74 422.09 310.63 407.93 312.93 C 393.77 315.22 378.82 317.14 364.93 319.93 C 351.03 322.72 335.69 323.60 322.00 326.00 C 308.31 328.40 292.38 331.92 279.00 333.00 C 265.62 334.07 244.98 345.51 245.00 327.00 C 245.02 308.49 245.58 296.27 245.00 278.00 C 244.42 259.73 263.07 262.11 276.67 259.67 C 290.27 257.23 305.71 255.02 319.67 252.67 C 333.63 250.32 347.83 248.23 362.00 246.00 C 376.17 243.77 390.70 241.11 405.00 239.00 C 419.31 236.89 433.64 234.09 448.01 232.01 C 462.37 229.93 476.61 227.08 491.00 225.00
M 290.00 349.00 
C 279.74 355.40 273.01 360.69 262.77 367.77 C 252.53 374.85 238.33 369.28 225.99 367.01 C 213.66 364.74 198.78 362.22 186.00 360.00 C 173.22 357.78 159.98 355.13 147.00 353.00 C 134.02 350.87 120.37 347.73 107.33 345.67 C 94.29 343.61 81.63 340.65 68.78 338.22 C 55.93 335.79 40.63 334.74 30.00 330.00
C 40.40 324.23 50.27 315.93 60.25 309.25 C 70.23 302.56 80.24 294.62 90.23 288.23 C 100.22 281.84 110.15 268.78 120.75 276.25 C 131.34 283.73 141.11 289.51 151.75 296.25 C 162.39 303.00 172.07 309.80 182.75 316.25 C 193.42 322.71 203.05 330.19 214.08 335.92 C 225.11 341.65 233.40 352.72 246.22 354.78 C 259.04 356.84 277.70 347.19 290.00 349.00
M 448.00 323.00 
C 453.04 351.94 420.36 362.16 401.77 376.77 C 383.18 391.38 362.28 403.98 343.25 418.25 C 324.21 432.52 303.52 445.70 284.00 459.00
C 281.65 432.27 290.57 401.65 275.00 379.00
C 300.86 363.41 317.54 342.02 349.00 339.00 C 380.47 335.99 416.04 326.24 448.00 323.00
M 19.00 431.00 
C 27.90 404.11 29.48 374.07 20.00 347.00
C 30.40 349.08 41.20 350.45 51.67 352.33 C 62.14 354.21 72.45 356.45 83.01 357.99 C 93.56 359.53 103.81 361.86 114.22 363.78 C 124.63 365.70 135.69 367.06 146.01 368.99 C 156.33 370.92 166.95 372.78 177.07 374.93 C 187.20 377.08 199.20 377.86 209.00 380.00 C 218.80 382.14 230.98 383.72 240.01 385.99 C 249.04 388.26 262.95 386.61 265.92 397.08 C 268.90 407.54 267.22 422.03 267.00 433.00 C 266.78 443.97 268.98 459.72 267.00 470.00 C 265.02 480.28 247.54 471.08 239.00 471.00 C 230.46 470.92 217.69 465.69 207.99 465.01 C 198.29 464.33 186.84 460.79 176.78 459.22 C 166.72 457.65 155.25 455.77 145.00 454.00 C 134.74 452.24 124.37 449.79 113.98 448.02 C 103.58 446.26 92.77 444.63 82.33 442.67 C 71.89 440.71 61.53 438.96 50.99 437.01 C 40.46 435.06 29.56 433.07 19.00 431.00 Z"/>
</g>
<g fill="None" fill-opacity="0.0" stroke="#0069B2" stroke-opacity="1.00" stroke-width="0.3"><path d="
M 371.00 118.00 
C 360.89 110.96 350.02 104.05 339.25 97.75 C 328.47 91.46 318.71 83.12 307.70 77.30 C 296.68 71.49 287.15 62.16 275.70 57.30 C 264.24 52.44 256.16 38.78 243.01 38.01 C 229.85 37.24 212.07 43.79 198.07 45.07 C 184.07 46.35 167.75 50.67 153.22 52.22 C 138.69 53.77 123.72 58.39 109.00 60.00 C 94.29 61.61 79.72 65.38 65.00 67.00
C 75.36 73.68 86.02 80.82 96.77 87.23 C 107.52 93.64 117.64 101.53 128.75 107.25 C 139.87 112.96 148.64 123.06 160.30 127.70 C 171.97 132.33 179.81 145.91 192.99 146.99 C 206.17 148.08 223.91 140.88 237.98 139.98 C 252.04 139.08 268.25 134.21 282.78 132.78 C 297.31 131.35 312.41 127.06 327.00 125.00 C 341.59 122.94 356.57 120.75 371.00 118.00 Z"/>
</g>
<g fill="None" fill-opacity="0.0" stroke="#0069B1" stroke-opacity="1.00" stroke-width="0.3"><path d="
M 173.00 155.00 
C 163.96 149.33 154.24 143.31 145.25 137.75 C 136.26 132.20 127.31 125.71 118.25 120.75 C 109.18 115.80 99.91 107.40 91.08 102.92 C 82.25 98.45 72.29 89.44 64.08 85.92 C 55.88 82.40 43.17 66.27 37.77 76.77 C 32.37 87.27 37.78 106.65 36.00 119.00 C 34.22 131.35 50.05 135.66 58.30 141.70 C 66.56 147.73 76.56 152.88 85.30 158.70 C 94.04 164.52 103.86 170.48 112.77 176.23 C 121.68 181.98 130.80 187.57 139.77 193.23 C 148.74 198.89 157.79 205.03 167.00 210.00
C 168.36 191.57 162.94 170.83 173.00 155.00 Z"/>
</g>
<g fill="None" fill-opacity="0.0" stroke="#E2DBC8" stroke-opacity="1.00" stroke-width="0.3"><path d="
M 381.00 134.00 
C 369.40 135.50 357.54 137.21 346.07 139.07 C 334.60 140.93 323.40 143.05 312.00 145.00 C 300.61 146.95 288.36 148.10 277.07 150.07 C 265.78 152.05 255.22 154.26 244.00 156.00 C 232.78 157.74 220.05 159.21 209.07 161.07 C 198.09 162.93 183.22 162.01 184.00 176.00 C 184.78 189.99 183.87 201.37 184.00 215.00 C 184.14 228.63 201.19 219.40 211.78 218.78 C 222.37 218.15 234.99 214.31 246.00 213.00 C 257.01 211.68 268.70 209.45 279.93 207.93 C 291.15 206.40 302.62 203.45 313.99 201.99 C 325.36 200.53 337.04 198.11 348.33 196.33 C 359.62 194.55 370.83 193.06 382.00 191.00
C 375.26 173.18 373.29 151.95 381.00 134.00 Z"/>
</g>
<g fill="None" fill-opacity="0.0" stroke="#DA6D6D" stroke-opacity="1.00" stroke-width="0.3"><path d="
M 393.00 156.00 
C 392.27 157.90 392.89 161.95 393.00 164.00
C 392.52 178.35 410.99 202.79 391.07 206.07 C 371.15 209.36 357.65 212.15 339.00 215.00 C 320.35 217.86 304.32 220.36 286.22 223.22 C 268.12 226.09 251.94 229.07 234.00 232.00
C 244.92 239.97 254.11 247.46 268.00 244.00 C 281.89 240.54 295.96 239.88 310.00 237.00 C 324.04 234.12 339.02 233.12 353.00 230.00 C 366.98 226.88 381.60 226.14 395.78 223.78 C 409.96 221.42 423.71 218.06 438.00 216.00 C 452.29 213.94 466.60 211.57 481.00 210.00
C 475.82 205.66 468.86 201.69 463.08 197.92 C 457.30 194.15 450.95 190.26 445.23 186.77 C 439.51 183.28 433.08 178.54 427.70 175.30 C 422.31 172.07 414.39 167.00 409.75 164.25 C 405.10 161.51 394.91 153.02 393.00 156.00 Z"/>
</g>
<g fill="None" fill-opacity="0.0" stroke="#603030" stroke-opacity="1.00" stroke-width="0.3"><path d="
M 393.00 164.00 
C 392.89 161.95 392.27 157.90 393.00 156.00
C 391.20 158.81 392.56 161.29 393.00 164.00 Z"/>
</g>
<g fill="None" fill-opacity="0.0" stroke="#E43330" stroke-opacity="1.00" stroke-width="0.3"><path d="
M 237.00 253.00 
C 224.34 250.37 215.33 231.78 201.00 237.00 C 186.68 242.23 172.75 235.55 161.70 227.30 C 150.64 219.06 139.51 214.10 128.70 206.30 C 117.89 198.51 107.02 193.15 96.25 185.75 C 85.48 178.35 75.12 171.72 64.00 165.00
C 67.41 181.17 56.96 213.12 69.75 224.25 C 82.55 235.37 96.33 240.05 109.30 249.70 C 122.28 259.35 135.63 265.40 148.75 274.25 C 161.88 283.10 175.09 291.23 188.30 299.70 C 201.52 308.16 214.54 316.35 228.00 324.00
C 230.76 300.45 220.86 272.05 237.00 253.00 Z"/>
</g>
<g fill="None" fill-opacity="0.0" stroke="#000000" stroke-opacity="0.07" stroke-width="0.3"><path d="
M 512.00 304.00 
L 512.00 216.00
C 498.12 242.82 500.80 276.76 512.00 304.00 Z"/>
</g>
<g fill="None" fill-opacity="0.0" stroke="#E3DBC8" stroke-opacity="1.00" stroke-width="0.3"><path d="
M 491.00 225.00 
C 476.61 227.08 462.37 229.93 448.01 232.01 C 433.64 234.09 419.31 236.89 405.00 239.00 C 390.70 241.11 376.17 243.77 362.00 246.00 C 347.83 248.23 333.63 250.32 319.67 252.67 C 305.71 255.02 290.27 257.23 276.67 259.67 C 263.07 262.11 244.42 259.73 245.00 278.00 C 245.58 296.27 245.02 308.49 245.00 327.00 C 244.98 345.51 265.62 334.07 279.00 333.00 C 292.38 331.92 308.31 328.40 322.00 326.00 C 335.69 323.60 351.03 322.72 364.93 319.93 C 378.82 317.14 393.77 315.22 407.93 312.93 C 422.09 310.63 436.68 307.74 450.98 305.98 C 465.27 304.21 478.64 300.29 493.00 299.00
C 485.85 275.43 483.19 248.87 491.00 225.00 Z"/>
</g>
<g fill="None" fill-opacity="0.0" stroke="#F2CF76" stroke-opacity="1.00" stroke-width="0.3"><path d="
M 290.00 349.00 
C 277.70 347.19 259.04 356.84 246.22 354.78 C 233.40 352.72 225.11 341.65 214.08 335.92 C 203.05 330.19 193.42 322.71 182.75 316.25 C 172.07 309.80 162.39 303.00 151.75 296.25 C 141.11 289.51 131.34 283.73 120.75 276.25 C 110.15 268.78 100.22 281.84 90.23 288.23 C 80.24 294.62 70.23 302.56 60.25 309.25 C 50.27 315.93 40.40 324.23 30.00 330.00
C 40.63 334.74 55.93 335.79 68.78 338.22 C 81.63 340.65 94.29 343.61 107.33 345.67 C 120.37 347.73 134.02 350.87 147.00 353.00 C 159.98 355.13 173.22 357.78 186.00 360.00 C 198.78 362.22 213.66 364.74 225.99 367.01 C 238.33 369.28 252.53 374.85 262.77 367.77 C 273.01 360.69 279.74 355.40 290.00 349.00 Z"/>
</g>
<g fill="None" fill-opacity="0.0" stroke="#000000" stroke-opacity="0.01" stroke-width="0.3"><path d="
M 1.00 439.00 
C 0.98 438.90 0.00 439.00 0.00 439.00
L 0.00 512.00
L 512.00 512.00
L 512.00 308.00
C 499.85 319.10 479.44 315.02 464.00 320.00
C 465.09 332.61 464.53 351.16 454.25 359.25 C 443.97 367.33 435.60 372.33 425.70 379.70 C 415.79 387.06 406.45 392.61 396.75 399.75 C 387.04 406.88 377.78 413.06 368.08 420.08 C 358.38 427.11 349.00 433.11 339.25 440.25 C 329.49 447.38 320.52 453.10 310.70 460.70 C 300.87 468.30 291.90 471.95 282.08 481.08 C 272.26 490.21 259.19 492.08 246.00 488.00 C 232.81 483.92 217.55 484.09 204.07 480.93 C 190.60 477.77 176.47 475.91 163.00 473.00 C 149.53 470.09 134.18 469.09 121.02 465.98 C 107.87 462.86 92.15 461.49 79.67 458.33 C 67.19 455.16 48.87 454.89 38.02 450.98 C 27.18 447.06 3.50 451.34 1.00 439.00 Z"/>
</g>
<g fill="None" fill-opacity="0.0" stroke="#F9AB0E" stroke-opacity="1.00" stroke-width="0.3"><path d="
M 448.00 323.00 
C 416.04 326.24 380.47 335.99 349.00 339.00 C 317.54 342.02 300.86 363.41 275.00 379.00
C 290.57 401.65 281.65 432.27 284.00 459.00
C 303.52 445.70 324.21 432.52 343.25 418.25 C 362.28 403.98 383.18 391.38 401.77 376.77 C 420.36 362.16 453.04 351.94 448.00 323.00 Z"/>
</g>
<g fill="None" fill-opacity="0.0" stroke="#000000" stroke-opacity="0.07" stroke-width="0.3"><path d="
M 0.00 434.00 
C 0.50 434.00 1.00 434.00 1.00 434.00
C 8.92 420.79 9.63 399.33 10.80 384.25 C 11.97 369.17 3.88 352.26 0.00 338.00
L 0.00 434.00 Z"/>
</g>
<g fill="None" fill-opacity="0.0" stroke="#E3DBC8" stroke-opacity="1.00" stroke-width="0.3"><path d="
M 19.00 431.00 
C 29.56 433.07 40.46 435.06 50.99 437.01 C 61.53 438.96 71.89 440.71 82.33 442.67 C 92.77 444.63 103.58 446.26 113.98 448.02 C 124.37 449.79 134.74 452.24 145.00 454.00 C 155.25 455.77 166.72 457.65 176.78 459.22 C 186.84 460.79 198.29 464.33 207.99 465.01 C 217.69 465.69 230.46 470.92 239.00 471.00 C 247.54 471.08 265.02 480.28 267.00 470.00 C 268.98 459.72 266.78 443.97 267.00 433.00 C 267.22 422.03 268.90 407.54 265.92 397.08 C 262.95 386.61 249.04 388.26 240.01 385.99 C 230.98 383.72 218.80 382.14 209.00 380.00 C 199.20 377.86 187.20 377.08 177.07 374.93 C 166.95 372.78 156.33 370.92 146.01 368.99 C 135.69 367.06 124.63 365.70 114.22 363.78 C 103.81 361.86 93.56 359.53 83.01 357.99 C 72.45 356.45 62.14 354.21 51.67 352.33 C 41.20 350.45 30.40 349.08 20.00 347.00
C 29.48 374.07 27.90 404.11 19.00 431.00 Z"/>
</g>
<g fill="None" fill-opacity="0.0" stroke="#000000" stroke-opacity="0.67" stroke-width="0.3"><path d="
M 0.00 439.00 
C 0.00 439.00 0.98 438.90 1.00 439.00
C 1.31 438.10 1.31 434.90 1.00 434.00
C 1.00 434.00 0.50 434.00 0.00 434.00
L 0.00 439.00 Z"/>
</g>
<g fill="#000000" fill-opacity="0.01" stroke="None">
<path d="
M 0.00 335.00 
C 29.42 307.39 67.03 287.15 99.00 262.00
C 85.55 247.80 62.21 247.57 52.08 228.92 C 41.95 210.27 49.64 175.60 50.00 155.00
C 38.79 146.00 19.81 142.21 19.74 128.25 C 19.66 114.29 18.80 85.77 21.71 73.70 C 24.62 61.63 34.31 55.32 46.25 53.80 C 58.19 52.28 70.11 48.97 82.25 47.80 C 94.38 46.63 106.86 42.67 118.75 41.40 C 130.64 40.12 143.12 36.86 155.25 35.20 C 167.38 33.54 178.78 31.60 190.75 29.41 C 202.73 27.22 214.62 26.74 226.75 23.41 C 238.88 20.08 252.01 20.93 260.75 28.59 C 269.50 36.25 279.32 38.80 288.75 45.39 C 298.19 51.99 308.01 58.50 317.25 64.75 C 326.50 70.99 336.02 74.81 345.25 81.19 C 354.49 87.57 363.69 93.48 373.25 99.19 C 382.81 104.90 391.63 111.81 402.00 118.00
C 402.06 125.44 400.97 131.22 397.00 136.00
C 430.83 161.30 476.56 184.08 512.00 212.00
L 512.00 0.00
L 0.00 0.00
L 0.00 335.00 Z"/>
</g>
<g fill="#000000" fill-opacity="1.00" stroke="None">
<path d="
M 0.00 335.00 
L 0.00 338.00
C 3.88 352.26 11.97 369.17 10.80 384.25 C 9.63 399.33 8.92 420.79 1.00 434.00
C 1.31 434.90 1.31 438.10 1.00 439.00
C 3.50 451.34 27.18 447.06 38.02 450.98 C 48.87 454.89 67.19 455.16 79.67 458.33 C 92.15 461.49 107.87 462.86 121.02 465.98 C 134.18 469.09 149.53 470.09 163.00 473.00 C 176.47 475.91 190.60 477.77 204.07 480.93 C 217.55 484.09 232.81 483.92 246.00 488.00 C 259.19 492.08 272.26 490.21 282.08 481.08 C 291.90 471.95 300.87 468.30 310.70 460.70 C 320.52 453.10 329.49 447.38 339.25 440.25 C 349.00 433.11 358.38 427.11 368.08 420.08 C 377.78 413.06 387.04 406.88 396.75 399.75 C 406.45 392.61 415.79 387.06 425.70 379.70 C 435.60 372.33 443.97 367.33 454.25 359.25 C 464.53 351.16 465.09 332.61 464.00 320.00
C 479.44 315.02 499.85 319.10 512.00 308.00
L 512.00 304.00
C 500.80 276.76 498.12 242.82 512.00 216.00
L 512.00 212.00
C 476.56 184.08 430.83 161.30 397.00 136.00
C 400.97 131.22 402.06 125.44 402.00 118.00
C 391.63 111.81 382.81 104.90 373.25 99.19 C 363.69 93.48 354.49 87.57 345.25 81.19 C 336.02 74.81 326.50 70.99 317.25 64.75 C 308.01 58.50 298.19 51.99 288.75 45.39 C 279.32 38.80 269.50 36.25 260.75 28.59 C 252.01 20.93 238.88 20.08 226.75 23.41 C 214.62 26.74 202.73 27.22 190.75 29.41 C 178.78 31.60 167.38 33.54 155.25 35.20 C 143.12 36.86 130.64 40.12 118.75 41.40 C 106.86 42.67 94.38 46.63 82.25 47.80 C 70.11 48.97 58.19 52.28 46.25 53.80 C 34.31 55.32 24.62 61.63 21.71 73.70 C 18.80 85.77 19.66 114.29 19.74 128.25 C 19.81 142.21 38.79 146.00 50.00 155.00
C 49.64 175.60 41.95 210.27 52.08 228.92 C 62.21 247.57 85.55 247.80 99.00 262.00
C 67.03 287.15 29.42 307.39 0.00 335.00
M 371.00 118.00 
C 356.57 120.75 341.59 122.94 327.00 125.00 C 312.41 127.06 297.31 131.35 282.78 132.78 C 268.25 134.21 252.04 139.08 237.98 139.98 C 223.91 140.88 206.17 148.08 192.99 146.99 C 179.81 145.91 171.97 132.33 160.30 127.70 C 148.64 123.06 139.87 112.96 128.75 107.25 C 117.64 101.53 107.52 93.64 96.77 87.23 C 86.02 80.82 75.36 73.68 65.00 67.00
C 79.72 65.38 94.29 61.61 109.00 60.00 C 123.72 58.39 138.69 53.77 153.22 52.22 C 167.75 50.67 184.07 46.35 198.07 45.07 C 212.07 43.79 229.85 37.24 243.01 38.01 C 256.16 38.78 264.24 52.44 275.70 57.30 C 287.15 62.16 296.68 71.49 307.70 77.30 C 318.71 83.12 328.47 91.46 339.25 97.75 C 350.02 104.05 360.89 110.96 371.00 118.00
M 173.00 155.00 
C 162.94 170.83 168.36 191.57 167.00 210.00
C 157.79 205.03 148.74 198.89 139.77 193.23 C 130.80 187.57 121.68 181.98 112.77 176.23 C 103.86 170.48 94.04 164.52 85.30 158.70 C 76.56 152.88 66.56 147.73 58.30 141.70 C 50.05 135.66 34.22 131.35 36.00 119.00 C 37.78 106.65 32.37 87.27 37.77 76.77 C 43.17 66.27 55.88 82.40 64.08 85.92 C 72.29 89.44 82.25 98.45 91.08 102.92 C 99.91 107.40 109.18 115.80 118.25 120.75 C 127.31 125.71 136.26 132.20 145.25 137.75 C 154.24 143.31 163.96 149.33 173.00 155.00
M 381.00 134.00 
C 373.29 151.95 375.26 173.18 382.00 191.00
C 370.83 193.06 359.62 194.55 348.33 196.33 C 337.04 198.11 325.36 200.53 313.99 201.99 C 302.62 203.45 291.15 206.40 279.93 207.93 C 268.70 209.45 257.01 211.68 246.00 213.00 C 234.99 214.31 222.37 218.15 211.78 218.78 C 201.19 219.40 184.14 228.63 184.00 215.00 C 183.87 201.37 184.78 189.99 184.00 176.00 C 183.22 162.01 198.09 162.93 209.07 161.07 C 220.05 159.21 232.78 157.74 244.00 156.00 C 255.22 154.26 265.78 152.05 277.07 150.07 C 288.36 148.10 300.61 146.95 312.00 145.00 C 323.40 143.05 334.60 140.93 346.07 139.07 C 357.54 137.21 369.40 135.50 381.00 134.00
M 393.00 164.00 
C 392.56 161.29 391.20 158.81 393.00 156.00
C 394.91 153.02 405.10 161.51 409.75 164.25 C 414.39 167.00 422.31 172.07 427.70 175.30 C 433.08 178.54 439.51 183.28 445.23 186.77 C 450.95 190.26 457.30 194.15 463.08 197.92 C 468.86 201.69 475.82 205.66 481.00 210.00
C 466.60 211.57 452.29 213.94 438.00 216.00 C 423.71 218.06 409.96 221.42 395.78 223.78 C 381.60 226.14 366.98 226.88 353.00 230.00 C 339.02 233.12 324.04 234.12 310.00 237.00 C 295.96 239.88 281.89 240.54 268.00 244.00 C 254.11 247.46 244.92 239.97 234.00 232.00
C 251.94 229.07 268.12 226.09 286.22 223.22 C 304.32 220.36 320.35 217.86 339.00 215.00 C 357.65 212.15 371.15 209.36 391.07 206.07 C 410.99 202.79 392.52 178.35 393.00 164.00
M 237.00 253.00 
C 220.86 272.05 230.76 300.45 228.00 324.00
C 214.54 316.35 201.52 308.16 188.30 299.70 C 175.09 291.23 161.88 283.10 148.75 274.25 C 135.63 265.40 122.28 259.35 109.30 249.70 C 96.33 240.05 82.55 235.37 69.75 224.25 C 56.96 213.12 67.41 181.17 64.00 165.00
C 75.12 171.72 85.48 178.35 96.25 185.75 C 107.02 193.15 117.89 198.51 128.70 206.30 C 139.51 214.10 150.64 219.06 161.70 227.30 C 172.75 235.55 186.68 242.23 201.00 237.00 C 215.33 231.78 224.34 250.37 237.00 253.00
M 491.00 225.00 
C 483.19 248.87 485.85 275.43 493.00 299.00
C 478.64 300.29 465.27 304.21 450.98 305.98 C 436.68 307.74 422.09 310.63 407.93 312.93 C 393.77 315.22 378.82 317.14 364.93 319.93 C 351.03 322.72 335.69 323.60 322.00 326.00 C 308.31 328.40 292.38 331.92 279.00 333.00 C 265.62 334.07 244.98 345.51 245.00 327.00 C 245.02 308.49 245.58 296.27 245.00 278.00 C 244.42 259.73 263.07 262.11 276.67 259.67 C 290.27 257.23 305.71 255.02 319.67 252.67 C 333.63 250.32 347.83 248.23 362.00 246.00 C 376.17 243.77 390.70 241.11 405.00 239.00 C 419.31 236.89 433.64 234.09 448.01 232.01 C 462.37 229.93 476.61 227.08 491.00 225.00
M 290.00 349.00 
C 279.74 355.40 273.01 360.69 262.77 367.77 C 252.53 374.85 238.33 369.28 225.99 367.01 C 213.66 364.74 198.78 362.22 186.00 360.00 C 173.22 357.78 159.98 355.13 147.00 353.00 C 134.02 350.87 120.37 347.73 107.33 345.67 C 94.29 343.61 81.63 340.65 68.78 338.22 C 55.93 335.79 40.63 334.74 30.00 330.00
C 40.40 324.23 50.27 315.93 60.25 309.25 C 70.23 302.56 80.24 294.62 90.23 288.23 C 100.22 281.84 110.15 268.78 120.75 276.25 C 131.34 283.73 141.11 289.51 151.75 296.25 C 162.39 303.00 172.07 309.80 182.75 316.25 C 193.42 322.71 203.05 330.19 214.08 335.92 C 225.11 341.65 233.40 352.72 246.22 354.78 C 259.04 356.84 277.70 347.19 290.00 349.00
M 448.00 323.00 
C 453.04 351.94 420.36 362.16 401.77 376.77 C 383.18 391.38 362.28 403.98 343.25 418.25 C 324.21 432.52 303.52 445.70 284.00 459.00
C 281.65 432.27 290.57 401.65 275.00 379.00
C 300.86 363.41 317.54 342.02 349.00 339.00 C 380.47 335.99 416.04 326.24 448.00 323.00
M 19.00 431.00 
C 27.90 404.11 29.48 374.07 20.00 347.00
C 30.40 349.08 41.20 350.45 51.67 352.33 C 62.14 354.21 72.45 356.45 83.01 357.99 C 93.56 359.53 103.81 361.86 114.22 363.78 C 124.63 365.70 135.69 367.06 146.01 368.99 C 156.33 370.92 166.95 372.78 177.07 374.93 C 187.20 377.08 199.20 377.86 209.00 380.00 C 218.80 382.14 230.98 383.72 240.01 385.99 C 249.04 388.26 262.95 386.61 265.92 397.08 C 268.90 407.54 267.22 422.03 267.00 433.00 C 266.78 443.97 268.98 459.72 267.00 470.00 C 265.02 480.28 247.54 471.08 239.00 471.00 C 230.46 470.92 217.69 465.69 207.99 465.01 C 198.29 464.33 186.84 460.79 176.78 459.22 C 166.72 457.65 155.25 455.77 145.00 454.00 C 134.74 452.24 124.37 449.79 113.98 448.02 C 103.58 446.26 92.77 444.63 82.33 442.67 C 71.89 440.71 61.53 438.96 50.99 437.01 C 40.46 435.06 29.56 433.07 19.00 431.00 Z"/>
</g>
<g fill="#0069B2" fill-opacity="1.00" stroke="None">
<path d="
M 371.00 118.00 
C 360.89 110.96 350.02 104.05 339.25 97.75 C 328.47 91.46 318.71 83.12 307.70 77.30 C 296.68 71.49 287.15 62.16 275.70 57.30 C 264.24 52.44 256.16 38.78 243.01 38.01 C 229.85 37.24 212.07 43.79 198.07 45.07 C 184.07 46.35 167.75 50.67 153.22 52.22 C 138.69 53.77 123.72 58.39 109.00 60.00 C 94.29 61.61 79.72 65.38 65.00 67.00
C 75.36 73.68 86.02 80.82 96.77 87.23 C 107.52 93.64 117.64 101.53 128.75 107.25 C 139.87 112.96 148.64 123.06 160.30 127.70 C 171.97 132.33 179.81 145.91 192.99 146.99 C 206.17 148.08 223.91 140.88 237.98 139.98 C 252.04 139.08 268.25 134.21 282.78 132.78 C 297.31 131.35 312.41 127.06 327.00 125.00 C 341.59 122.94 356.57 120.75 371.00 118.00 Z"/>
</g>
<g fill="#0069B1" fill-opacity="1.00" stroke="None">
<path d="
M 173.00 155.00 
C 163.96 149.33 154.24 143.31 145.25 137.75 C 136.26 132.20 127.31 125.71 118.25 120.75 C 109.18 115.80 99.91 107.40 91.08 102.92 C 82.25 98.45 72.29 89.44 64.08 85.92 C 55.88 82.40 43.17 66.27 37.77 76.77 C 32.37 87.27 37.78 106.65 36.00 119.00 C 34.22 131.35 50.05 135.66 58.30 141.70 C 66.56 147.73 76.56 152.88 85.30 158.70 C 94.04 164.52 103.86 170.48 112.77 176.23 C 121.68 181.98 130.80 187.57 139.77 193.23 C 148.74 198.89 157.79 205.03 167.00 210.00
C 168.36 191.57 162.94 170.83 173.00 155.00 Z"/>
</g>
<g fill="#E2DBC8" fill-opacity="1.00" stroke="None">
<path d="
M 381.00 134.00 
C 369.40 135.50 357.54 137.21 346.07 139.07 C 334.60 140.93 323.40 143.05 312.00 145.00 C 300.61 146.95 288.36 148.10 277.07 150.07 C 265.78 152.05 255.22 154.26 244.00 156.00 C 232.78 157.74 220.05 159.21 209.07 161.07 C 198.09 162.93 183.22 162.01 184.00 176.00 C 184.78 189.99 183.87 201.37 184.00 215.00 C 184.14 228.63 201.19 219.40 211.78 218.78 C 222.37 218.15 234.99 214.31 246.00 213.00 C 257.01 211.68 268.70 209.45 279.93 207.93 C 291.15 206.40 302.62 203.45 313.99 201.99 C 325.36 200.53 337.04 198.11 348.33 196.33 C 359.62 194.55 370.83 193.06 382.00 191.00
C 375.26 173.18 373.29 151.95 381.00 134.00 Z"/>
</g>
<g fill="#DA6D6D" fill-opacity="1.00" stroke="None">
<path d="
M 393.00 156.00 
C 392.27 157.90 392.89 161.95 393.00 164.00
C 392.52 178.35 410.99 202.79 391.07 206.07 C 371.15 209.36 357.65 212.15 339.00 215.00 C 320.35 217.86 304.32 220.36 286.22 223.22 C 268.12 226.09 251.94 229.07 234.00 232.00
C 244.92 239.97 254.11 247.46 268.00 244.00 C 281.89 240.54 295.96 239.88 310.00 237.00 C 324.04 234.12 339.02 233.12 353.00 230.00 C 366.98 226.88 381.60 226.14 395.78 223.78 C 409.96 221.42 423.71 218.06 438.00 216.00 C 452.29 213.94 466.60 211.57 481.00 210.00
C 475.82 205.66 468.86 201.69 463.08 197.92 C 457.30 194.15 450.95 190.26 445.23 186.77 C 439.51 183.28 433.08 178.54 427.70 175.30 C 422.31 172.07 414.39 167.00 409.75 164.25 C 405.10 161.51 394.91 153.02 393.00 156.00 Z"/>
</g>
<g fill="#603030" fill-opacity="1.00" stroke="None">
<path d="
M 393.00 164.00 
C 392.89 161.95 392.27 157.90 393.00 156.00
C 391.20 158.81 392.56 161.29 393.00 164.00 Z"/>
</g>
<g fill="#E43330" fill-opacity="1.00" stroke="None">
<path d="
M 237.00 253.00 
C 224.34 250.37 215.33 231.78 201.00 237.00 C 186.68 242.23 172.75 235.55 161.70 227.30 C 150.64 219.06 139.51 214.10 128.70 206.30 C 117.89 198.51 107.02 193.15 96.25 185.75 C 85.48 178.35 75.12 171.72 64.00 165.00
C 67.41 181.17 56.96 213.12 69.75 224.25 C 82.55 235.37 96.33 240.05 109.30 249.70 C 122.28 259.35 135.63 265.40 148.75 274.25 C 161.88 283.10 175.09 291.23 188.30 299.70 C 201.52 308.16 214.54 316.35 228.00 324.00
C 230.76 300.45 220.86 272.05 237.00 253.00 Z"/>
</g>
<g fill="#000000" fill-opacity="0.07" stroke="None">
<path d="
M 512.00 304.00 
L 512.00 216.00
C 498.12 242.82 500.80 276.76 512.00 304.00 Z"/>
</g>
<g fill="#E3DBC8" fill-opacity="1.00" stroke="None">
<path d="
M 491.00 225.00 
C 476.61 227.08 462.37 229.93 448.01 232.01 C 433.64 234.09 419.31 236.89 405.00 239.00 C 390.70 241.11 376.17 243.77 362.00 246.00 C 347.83 248.23 333.63 250.32 319.67 252.67 C 305.71 255.02 290.27 257.23 276.67 259.67 C 263.07 262.11 244.42 259.73 245.00 278.00 C 245.58 296.27 245.02 308.49 245.00 327.00 C 244.98 345.51 265.62 334.07 279.00 333.00 C 292.38 331.92 308.31 328.40 322.00 326.00 C 335.69 323.60 351.03 322.72 364.93 319.93 C 378.82 317.14 393.77 315.22 407.93 312.93 C 422.09 310.63 436.68 307.74 450.98 305.98 C 465.27 304.21 478.64 300.29 493.00 299.00
C 485.85 275.43 483.19 248.87 491.00 225.00 Z"/>
</g>
<g fill="#F2CF76" fill-opacity="1.00" stroke="None">
<path d="
M 290.00 349.00 
C 277.70 347.19 259.04 356.84 246.22 354.78 C 233.40 352.72 225.11 341.65 214.08 335.92 C 203.05 330.19 193.42 322.71 182.75 316.25 C 172.07 309.80 162.39 303.00 151.75 296.25 C 141.11 289.51 131.34 283.73 120.75 276.25 C 110.15 268.78 100.22 281.84 90.23 288.23 C 80.24 294.62 70.23 302.56 60.25 309.25 C 50.27 315.93 40.40 324.23 30.00 330.00
C 40.63 334.74 55.93 335.79 68.78 338.22 C 81.63 340.65 94.29 343.61 107.33 345.67 C 120.37 347.73 134.02 350.87 147.00 353.00 C 159.98 355.13 173.22 357.78 186.00 360.00 C 198.78 362.22 213.66 364.74 225.99 367.01 C 238.33 369.28 252.53 374.85 262.77 367.77 C 273.01 360.69 279.74 355.40 290.00 349.00 Z"/>
</g>
<g fill="#000000" fill-opacity="0.01" stroke="None">
<path d="
M 1.00 439.00 
C 0.98 438.90 0.00 439.00 0.00 439.00
L 0.00 512.00
L 512.00 512.00
L 512.00 308.00
C 499.85 319.10 479.44 315.02 464.00 320.00
C 465.09 332.61 464.53 351.16 454.25 359.25 C 443.97 367.33 435.60 372.33 425.70 379.70 C 415.79 387.06 406.45 392.61 396.75 399.75 C 387.04 406.88 377.78 413.06 368.08 420.08 C 358.38 427.11 349.00 433.11 339.25 440.25 C 329.49 447.38 320.52 453.10 310.70 460.70 C 300.87 468.30 291.90 471.95 282.08 481.08 C 272.26 490.21 259.19 492.08 246.00 488.00 C 232.81 483.92 217.55 484.09 204.07 480.93 C 190.60 477.77 176.47 475.91 163.00 473.00 C 149.53 470.09 134.18 469.09 121.02 465.98 C 107.87 462.86 92.15 461.49 79.67 458.33 C 67.19 455.16 48.87 454.89 38.02 450.98 C 27.18 447.06 3.50 451.34 1.00 439.00 Z"/>
</g>
<g fill="#F9AB0E" fill-opacity="1.00" stroke="None">
<path d="
M 448.00 323.00 
C 416.04 326.24 380.47 335.99 349.00 339.00 C 317.54 342.02 300.86 363.41 275.00 379.00
C 290.57 401.65 281.65 432.27 284.00 459.00
C 303.52 445.70 324.21 432.52 343.25 418.25 C 362.28 403.98 383.18 391.38 401.77 376.77 C 420.36 362.16 453.04 351.94 448.00 323.00 Z"/>
</g>
<g fill="#000000" fill-opacity="0.07" stroke="None">
<path d="
M 0.00 434.00 
C 0.50 434.00 1.00 434.00 1.00 434.00
C 8.92 420.79 9.63 399.33 10.80 384.25 C 11.97 369.17 3.88 352.26 0.00 338.00
L 0.00 434.00 Z"/>
</g>
<g fill="#E3DBC8" fill-opacity="1.00" stroke="None">
<path d="
M 19.00 431.00 
C 29.56 433.07 40.46 435.06 50.99 437.01 C 61.53 438.96 71.89 440.71 82.33 442.67 C 92.77 444.63 103.58 446.26 113.98 448.02 C 124.37 449.79 134.74 452.24 145.00 454.00 C 155.25 455.77 166.72 457.65 176.78 459.22 C 186.84 460.79 198.29 464.33 207.99 465.01 C 217.69 465.69 230.46 470.92 239.00 471.00 C 247.54 471.08 265.02 480.28 267.00 470.00 C 268.98 459.72 266.78 443.97 267.00 433.00 C 267.22 422.03 268.90 407.54 265.92 397.08 C 262.95 386.61 249.04 388.26 240.01 385.99 C 230.98 383.72 218.80 382.14 209.00 380.00 C 199.20 377.86 187.20 377.08 177.07 374.93 C 166.95 372.78 156.33 370.92 146.01 368.99 C 135.69 367.06 124.63 365.70 114.22 363.78 C 103.81 361.86 93.56 359.53 83.01 357.99 C 72.45 356.45 62.14 354.21 51.67 352.33 C 41.20 350.45 30.40 349.08 20.00 347.00
C 29.48 374.07 27.90 404.11 19.00 431.00 Z"/>
</g>
<g fill="#000000" fill-opacity="0.67" stroke="None">
<path d="
M 0.00 439.00 
C 0.00 439.00 0.98 438.90 1.00 439.00
C 1.31 438.10 1.31 434.90 1.00 434.00
C 1.00 434.00 0.50 434.00 0.00 434.00
L 0.00 439.00 Z"/>
</g>
</svg>