<svg xmlns="http://www.w3.org/2000/svg" xmlns:v="https://svgstorm.com"
viewBox = "0 0 512 512"
width="512"
height="512">
<g fill="None" fill-opacity="0.0" stroke="#000000" stroke-opacity="0.00" stroke-width="0.3"><path d="
M 0.00 512.00 
L 512.00 512.00
L 512.00 0.00
L 0.00 0.00
L 0.00 512.00
M 251.00 93.00 
C 252.33 102.57 259.53 104.01 260.77 114.23 C 262.01 124.45 267.48 130.07 279.00 128.00 C 290.52 125.93 289.79 142.87 289.00 150.00 C 288.21 157.13 292.33 173.20 284.75 177.75 C 277.17 182.31 263.66 176.83 262.22 187.22 C 260.78 197.61 256.26 201.04 252.70 209.70 C 249.13 218.35 261.40 219.52 262.92 228.08 C 264.45 236.63 257.24 243.10 251.25 248.25 C 245.26 253.40 241.71 260.58 233.92 262.92 C 226.14 265.26 218.37 256.44 214.00 251.00
C 203.47 253.72 197.97 261.62 186.33 262.33 C 174.68 263.03 185.01 286.47 173.30 288.30 C 161.59 290.13 146.19 290.29 134.33 288.67 C 122.47 287.05 133.14 263.65 120.99 263.01 C 108.85 262.36 104.22 252.74 93.00 251.00
C 88.59 257.58 79.62 265.53 71.78 262.22 C 63.94 258.91 59.31 250.02 53.25 245.75 C 47.20 241.47 39.09 229.09 46.75 223.75 C 54.42 218.42 57.82 209.11 51.08 202.92 C 44.33 196.74 48.68 181.72 39.97 180.03 C 31.27 178.34 16.19 180.41 18.00 167.00 C 19.81 153.59 15.37 145.87 18.93 133.93 C 22.49 121.98 40.41 133.58 43.78 123.78 C 47.14 113.97 47.52 108.63 53.75 99.75 C 59.99 90.88 46.53 87.13 44.08 78.92 C 41.62 70.72 52.36 63.21 57.75 57.75 C 63.14 52.29 69.50 43.31 78.00 44.00 C 86.51 44.69 90.51 59.66 99.08 54.08 C 107.64 48.49 112.95 47.07 123.02 44.02 C 133.10 40.98 122.31 23.31 133.25 19.25 C 144.19 15.19 153.31 19.93 166.00 18.00 C 178.69 16.07 179.42 29.51 180.00 39.00 C 180.58 48.49 195.84 44.21 202.23 50.77 C 208.62 57.33 217.71 55.35 223.25 47.25 C 228.79 39.15 240.65 46.30 245.25 52.75 C 249.85 59.20 258.41 63.23 261.92 71.08 C 265.44 78.92 258.13 88.66 251.00 93.00
M 460.00 239.00 
C 463.63 246.88 468.91 255.70 470.78 264.22 C 472.64 272.75 493.73 266.01 493.92 277.08 C 494.12 288.14 496.15 302.80 492.68 311.68 C 489.20 320.56 467.85 312.97 469.67 324.67 C 471.49 336.37 454.98 340.65 462.25 348.75 C 469.52 356.86 474.66 362.74 465.75 370.75 C 456.84 378.77 456.67 380.74 447.75 388.75 C 438.83 396.77 431.52 378.02 423.78 380.78 C 416.03 383.54 406.04 390.62 397.00 391.00
C 401.42 410.68 388.96 413.93 373.00 414.00 C 357.04 414.07 344.80 410.62 349.00 391.00
C 340.71 387.86 333.89 388.52 326.26 382.74 C 318.62 376.97 315.03 386.86 307.77 389.77 C 300.51 392.68 293.94 386.05 288.75 380.25 C 283.57 374.45 277.62 371.22 275.03 362.97 C 272.43 354.73 287.48 351.51 285.21 343.77 C 282.94 336.03 276.95 331.80 276.01 321.99 C 275.06 312.18 259.34 320.22 254.25 312.75 C 249.17 305.27 253.70 293.66 252.00 284.00 C 250.30 274.34 257.85 267.31 268.00 269.00 C 278.15 270.69 275.82 256.89 280.77 250.77 C 285.72 244.66 286.46 237.33 278.75 232.25 C 271.05 227.16 276.26 216.56 282.25 212.25 C 288.23 207.93 291.54 201.45 297.75 196.75 C 303.97 192.05 315.92 197.41 318.00 205.00
C 328.73 202.75 337.90 195.49 349.00 194.00
C 347.19 185.55 349.91 171.10 360.07 171.07 C 370.24 171.04 384.19 169.01 392.23 173.77 C 400.26 178.54 394.64 196.71 405.02 195.98 C 415.41 195.24 421.63 209.90 429.25 203.25 C 436.86 196.59 443.88 191.39 451.25 199.75 C 458.61 208.11 461.88 209.50 468.75 217.25 C 475.62 225.00 466.34 233.46 460.75 238.75
M 203.00 314.00 
C 209.67 315.46 216.96 319.29 223.08 321.92 C 229.20 324.56 235.31 310.83 242.67 315.33 C 250.03 319.83 251.52 323.70 257.75 329.25 C 263.99 334.80 265.79 341.66 258.25 348.25 C 250.71 354.84 261.39 356.92 261.31 366.69 C 261.22 376.47 273.07 372.36 279.25 377.75 C 285.42 383.15 280.35 395.67 282.00 404.00 C 283.65 412.33 271.78 418.07 264.00 415.00
C 266.69 424.32 248.47 433.21 257.75 441.25 C 267.03 449.28 260.83 458.12 253.25 465.25 C 245.67 472.38 238.12 479.53 229.75 470.25 C 221.39 460.97 212.73 477.65 203.00 476.00
C 206.87 492.22 195.53 494.03 183.00 494.00 C 170.47 493.97 158.96 492.33 163.00 476.00
C 152.56 477.52 144.53 461.17 135.75 470.75 C 126.97 480.34 118.79 470.80 111.25 463.75 C 103.70 456.70 98.33 445.30 111.00 439.00
C 108.18 431.00 103.50 423.59 102.00 415.00
C 85.51 418.98 84.03 407.65 84.00 395.00 C 83.97 382.35 85.61 371.21 102.00 375.00
C 103.49 366.45 108.18 359.01 111.00 351.00
C 98.82 345.08 103.22 333.49 110.75 326.75 C 118.29 320.01 126.00 309.26 134.75 319.25 C 143.50 329.24 152.56 312.62 163.00 314.00
C 158.95 297.67 170.47 296.03 183.00 296.00 C 195.53 295.97 206.86 297.77 203.00 314.00 Z"/>
</g>
<g fill="None" fill-opacity="0.0" stroke="#242020" stroke-opacity="0.94" stroke-width="0.3"><path d="
M 251.00 93.00 
C 258.13 88.66 265.44 78.92 261.92 71.08 C 258.41 63.23 249.85 59.20 245.25 52.75 C 240.65 46.30 228.79 39.15 223.25 47.25 C 217.71 55.35 208.62 57.33 202.23 50.77 C 195.84 44.21 180.58 48.49 180.00 39.00 C 179.42 29.51 178.69 16.07 166.00 18.00 C 153.31 19.93 144.19 15.19 133.25 19.25 C 122.31 23.31 133.10 40.98 123.02 44.02 C 112.95 47.07 107.64 48.49 99.08 54.08 C 90.51 59.66 86.51 44.69 78.00 44.00 C 69.50 43.31 63.14 52.29 57.75 57.75 C 52.36 63.21 41.62 70.72 44.08 78.92 C 46.53 87.13 59.99 90.88 53.75 99.75 C 47.52 108.63 47.14 113.97 43.78 123.78 C 40.41 133.58 22.49 121.98 18.93 133.93 C 15.37 145.87 19.81 153.59 18.00 167.00 C 16.19 180.41 31.27 178.34 39.97 180.03 C 48.68 181.72 44.33 196.74 51.08 202.92 C 57.82 209.11 54.42 218.42 46.75 223.75 C 39.09 229.09 47.20 241.47 53.25 245.75 C 59.31 250.02 63.94 258.91 71.78 262.22 C 79.62 265.53 88.59 257.58 93.00 251.00
C 104.22 252.74 108.85 262.36 120.99 263.01 C 133.14 263.65 122.47 287.05 134.33 288.67 C 146.19 290.29 161.59 290.13 173.30 288.30 C 185.01 286.47 174.68 263.03 186.33 262.33 C 197.97 261.62 203.47 253.72 214.00 251.00
C 218.37 256.44 226.14 265.26 233.92 262.92 C 241.71 260.58 245.26 253.40 251.25 248.25 C 257.24 243.10 264.45 236.63 262.92 228.08 C 261.40 219.52 249.13 218.35 252.70 209.70 C 256.26 201.04 260.78 197.61 262.22 187.22 C 263.66 176.83 277.17 182.31 284.75 177.75 C 292.33 173.20 288.21 157.13 289.00 150.00 C 289.79 142.87 290.52 125.93 279.00 128.00 C 267.48 130.07 262.01 124.45 260.77 114.23 C 259.53 104.01 252.33 102.57 251.00 93.00
M 169.00 26.00 
C 175.64 29.43 168.93 49.79 181.68 51.32 C 194.43 52.85 197.67 56.66 208.23 62.77 C 218.79 68.88 224.46 50.34 233.00 52.00
C 236.84 52.74 241.30 60.12 244.25 62.75 C 247.19 65.38 253.57 70.32 255.00 74.00
C 257.91 81.50 237.36 90.22 244.93 100.07 C 252.49 109.92 252.74 117.01 256.93 128.07 C 261.11 139.13 282.19 130.71 282.00 143.00 C 281.80 155.29 285.87 174.54 271.00 172.00 C 256.13 169.46 254.90 184.06 252.07 193.07 C 249.25 202.09 236.95 213.19 247.25 221.75 C 257.56 230.30 253.30 235.57 244.75 243.75 C 236.21 251.94 231.17 258.73 222.75 248.25 C 214.33 237.76 203.22 247.11 194.77 251.77 C 186.32 256.43 170.05 252.70 172.00 269.00 C 173.95 285.30 159.83 280.95 145.00 282.00 C 130.17 283.05 139.61 263.79 129.75 257.25 C 119.89 250.71 110.65 254.97 101.25 245.75 C 91.86 236.53 82.08 256.84 74.00 255.00
C 70.41 254.18 65.33 246.85 62.75 244.25 C 60.18 241.65 52.69 236.53 52.00 233.00
C 50.32 224.33 68.61 218.92 62.68 208.32 C 56.74 197.72 52.71 194.55 51.22 181.78 C 49.73 169.00 29.62 175.70 26.00 169.00
C 23.00 163.44 23.70 144.66 26.00 139.00
C 29.17 131.20 49.90 137.87 51.32 125.32 C 52.74 112.78 57.61 108.18 62.92 97.92 C 68.24 87.66 48.29 80.68 53.26 73.26 C 58.22 65.83 65.66 59.63 72.75 53.75 C 79.84 47.88 86.91 67.42 97.07 63.07 C 107.24 58.72 111.85 52.34 124.67 51.67 C 137.49 51.01 131.52 29.04 139.00 26.00
C 144.84 23.62 163.37 23.09 169.00 26.00 Z"/>
</g>
<g fill="None" fill-opacity="0.0" stroke="#7A662A" stroke-opacity="1.00" stroke-width="0.3"><path d="
M 139.00 26.00 
C 143.24 24.93 149.62 25.88 154.00 26.00 C 158.38 26.12 164.91 24.62 169.00 26.00
C 163.37 23.09 144.84 23.62 139.00 26.00 Z"/>
</g>
<g fill="None" fill-opacity="0.0" stroke="#FDD03B" stroke-opacity="1.00" stroke-width="0.3"><path d="
M 26.00 139.00 
C 24.94 143.21 25.86 149.66 26.00 154.00 C 26.14 158.34 24.57 164.96 26.00 169.00
C 29.62 175.70 49.73 169.00 51.22 181.78 C 52.71 194.55 56.74 197.72 62.68 208.32 C 68.61 218.92 50.32 224.33 52.00 233.00
C 52.74 235.76 60.98 241.44 63.25 243.75 C 65.51 246.06 71.29 254.18 74.00 255.00
C 82.08 256.84 91.86 236.53 101.25 245.75 C 110.65 254.97 119.89 250.71 129.75 257.25 C 139.61 263.79 130.17 283.05 145.00 282.00 C 159.83 280.95 173.95 285.30 172.00 269.00 C 170.05 252.70 186.32 256.43 194.77 251.77 C 203.22 247.11 214.33 237.76 222.75 248.25 C 231.17 258.73 236.21 251.94 244.75 243.75 C 253.30 235.57 257.56 230.30 247.25 221.75 C 236.95 213.19 249.25 202.09 252.07 193.07 C 254.90 184.06 256.13 169.46 271.00 172.00 C 285.87 174.54 281.80 155.29 282.00 143.00 C 282.19 130.71 261.11 139.13 256.93 128.07 C 252.74 117.01 252.49 109.92 244.93 100.07 C 237.36 90.22 257.91 81.50 255.00 74.00
C 253.50 70.90 246.40 65.68 243.75 63.25 C 241.11 60.82 235.95 52.79 233.00 52.00
C 224.46 50.34 218.79 68.88 208.23 62.77 C 197.67 56.66 194.43 52.85 181.68 51.32 C 168.93 49.79 175.64 29.43 169.00 26.00
C 164.91 24.62 158.38 26.12 154.00 26.00 C 149.62 25.88 143.24 24.93 139.00 26.00
C 131.52 29.04 137.49 51.01 124.67 51.67 C 111.85 52.34 107.24 58.72 97.07 63.07 C 86.91 67.42 79.84 47.88 72.75 53.75 C 65.66 59.63 58.22 65.83 53.26 73.26 C 48.29 80.68 68.24 87.66 62.92 97.92 C 57.61 108.18 52.74 112.78 51.32 125.32 C 49.90 137.87 29.17 131.20 26.00 139.00
M 161.00 83.00 
C 212.83 90.40 242.02 151.46 210.75 194.75 C 179.47 238.03 114.87 231.16 90.70 185.30 C 66.52 139.45 106.10 75.16 161.00 83.00 Z"/>
</g>
<g fill="None" fill-opacity="0.0" stroke="#89712D" stroke-opacity="1.00" stroke-width="0.3"><path d="
M 255.00 74.00 
C 253.57 70.32 247.19 65.38 244.25 62.75 C 241.30 60.12 236.84 52.74 233.00 52.00
C 235.95 52.79 241.11 60.82 243.75 63.25 C 246.40 65.68 253.50 70.90 255.00 74.00 Z"/>
</g>
<g fill="None" fill-opacity="0.0" stroke="#DCB534" stroke-opacity="1.00" stroke-width="0.3"><path d="
M 161.00 83.00 
C 106.10 75.16 66.52 139.45 90.70 185.30 C 114.87 231.16 179.47 238.03 210.75 194.75 C 242.02 151.46 212.83 90.40 161.00 83.00
M 158.00 92.00 
C 211.28 93.07 232.76 161.68 197.25 197.25 C 161.74 232.82 93.07 211.26 92.00 158.00
C 91.64 155.03 91.65 151.91 92.00 149.00
C 92.59 119.63 119.65 92.59 149.00 92.00
C 151.97 91.64 155.09 91.65 158.00 92.00 Z"/>
</g>
<g fill="None" fill-opacity="0.0" stroke="#7F6A2A" stroke-opacity="1.00" stroke-width="0.3"><path d="
M 149.00 92.00 
C 151.99 91.94 155.01 91.94 158.00 92.00
C 155.09 91.65 151.97 91.64 149.00 92.00 Z"/>
</g>
<g fill="None" fill-opacity="0.0" stroke="#282323" stroke-opacity="1.00" stroke-width="0.3"><path d="
M 92.00 149.00 
C 91.94 151.99 91.94 155.01 92.00 158.00
C 93.07 211.26 161.74 232.82 197.25 197.25 C 232.76 161.68 211.28 93.07 158.00 92.00
C 155.01 91.94 151.99 91.94 149.00 92.00
C 119.65 92.59 92.59 119.63 92.00 149.00
M 163.00 99.00 
C 202.49 104.64 222.19 157.23 196.70 187.70 C 171.20 218.16 120.66 214.67 103.69 176.31 C 86.72 137.94 119.09 92.73 163.00 99.00 Z"/>
</g>
<g fill="None" fill-opacity="0.0" stroke="#F1F1F2" stroke-opacity="1.00" stroke-width="0.3"><path d="
M 163.00 99.00 
C 119.09 92.73 86.72 137.94 103.69 176.31 C 120.66 214.67 171.20 218.16 196.70 187.70 C 222.19 157.23 202.49 104.64 163.00 99.00 Z"/>
</g>
<g fill="None" fill-opacity="0.0" stroke="#7A662A" stroke-opacity="1.00" stroke-width="0.3"><path d="
M 26.00 169.00 
C 24.57 164.96 26.14 158.34 26.00 154.00 C 25.86 149.66 24.94 143.21 26.00 139.00
C 23.70 144.66 23.00 163.44 26.00 169.00 Z"/>
</g>
<g fill="None" fill-opacity="0.0" stroke="#7F6A2A" stroke-opacity="1.00" stroke-width="0.3"><path d="
M 92.00 158.00 
C 91.94 155.01 91.94 151.99 92.00 149.00
C 91.65 151.91 91.64 155.03 92.00 158.00 Z"/>
</g>
<g fill="None" fill-opacity="0.0" stroke="#262021" stroke-opacity="0.93" stroke-width="0.3"><path d="
M 460.75 238.75 
C 466.34 233.46 475.62 225.00 468.75 217.25 C 461.88 209.50 458.61 208.11 451.25 199.75 C 443.88 191.39 436.86 196.59 429.25 203.25 C 421.63 209.90 415.41 195.24 405.02 195.98 C 394.64 196.71 400.26 178.54 392.23 173.77 C 384.19 169.01 370.24 171.04 360.07 171.07 C 349.91 171.10 347.19 185.55 349.00 194.00
C 337.90 195.49 328.73 202.75 318.00 205.00
C 315.92 197.41 303.97 192.05 297.75 196.75 C 291.54 201.45 288.23 207.93 282.25 212.25 C 276.26 216.56 271.05 227.16 278.75 232.25 C 286.46 237.33 285.72 244.66 280.77 250.77 C 275.82 256.89 278.15 270.69 268.00 269.00 C 257.85 267.31 250.30 274.34 252.00 284.00 C 253.70 293.66 249.17 305.27 254.25 312.75 C 259.34 320.22 275.06 312.18 276.01 321.99 C 276.95 331.80 282.94 336.03 285.21 343.77 C 287.48 351.51 272.43 354.73 275.03 362.97 C 277.62 371.22 283.57 374.45 288.75 380.25 C 293.94 386.05 300.51 392.68 307.77 389.77 C 315.03 386.86 318.62 376.97 326.26 382.74 C 333.89 388.52 340.71 387.86 349.00 391.00
C 344.80 410.62 357.04 414.07 373.00 414.00 C 388.96 413.93 401.42 410.68 397.00 391.00
C 406.04 390.62 416.03 383.54 423.78 380.78 C 431.52 378.02 438.83 396.77 447.75 388.75 C 456.67 380.74 456.84 378.77 465.75 370.75 C 474.66 362.74 469.52 356.86 462.25 348.75 C 454.98 340.65 471.49 336.37 469.67 324.67 C 467.85 312.97 489.20 320.56 492.68 311.68 C 496.15 302.80 494.12 288.14 493.92 277.08 C 493.73 266.01 472.64 272.75 470.78 264.22 C 468.91 255.70 463.63 246.88 460.00 239.00
M 486.00 279.00 
C 488.56 282.62 488.51 302.44 486.00 306.00
C 483.05 310.17 468.25 306.09 465.25 313.25 C 462.25 320.41 460.98 327.78 457.68 333.68 C 454.38 339.58 448.75 349.09 456.25 353.75 C 463.74 358.42 463.30 365.69 457.25 369.25 C 451.20 372.80 447.89 382.67 441.92 382.92 C 435.96 383.18 431.95 368.44 425.00 372.00 C 418.05 375.57 411.45 376.80 405.78 380.78 C 400.10 384.75 387.90 380.57 389.03 392.03 C 390.15 403.48 385.79 407.05 374.00 406.00 C 362.21 404.95 355.88 406.90 357.00 395.00 C 358.12 383.10 349.85 384.76 342.78 381.22 C 335.71 377.69 330.50 377.26 323.31 372.69 C 316.11 368.13 311.69 380.04 305.92 381.92 C 300.15 383.79 296.27 373.78 290.75 370.25 C 285.23 366.72 280.61 359.75 288.25 355.25 C 295.89 350.75 293.72 341.51 289.69 335.31 C 285.67 329.10 284.63 322.48 282.02 314.98 C 279.42 307.47 266.66 307.14 260.00 308.00
C 261.01 300.03 258.65 287.51 260.00 280.00 C 261.35 272.49 277.93 280.16 280.75 272.75 C 283.57 265.34 284.96 258.54 288.31 252.31 C 291.65 246.07 296.95 237.26 290.25 231.75 C 283.54 226.24 282.01 222.00 288.75 216.75 C 295.50 211.50 297.29 207.50 303.00 202.00
C 308.65 203.40 313.31 214.42 320.01 212.99 C 326.70 211.57 334.56 207.64 340.23 204.23 C 345.90 200.81 358.61 204.29 356.98 192.98 C 355.34 181.66 360.87 178.01 372.00 179.00 C 383.13 179.99 390.68 178.01 389.00 190.00 C 387.32 201.99 397.03 201.02 404.07 203.93 C 411.12 206.83 416.34 209.53 423.23 212.77 C 430.12 216.01 437.21 206.16 441.00 202.00
C 450.17 207.10 450.22 211.54 459.25 218.75 C 468.28 225.96 451.24 231.68 453.00 241.00 C 454.76 250.32 461.90 255.28 462.98 266.02 C 464.06 276.77 479.57 277.21 486.00 279.00 Z"/>
</g>
<g fill="None" fill-opacity="0.0" stroke="#EE5161" stroke-opacity="1.00" stroke-width="0.3"><path d="
M 486.00 306.00 
C 487.39 303.13 486.14 296.34 486.00 293.00 C 485.86 289.66 487.46 282.02 486.00 279.00
C 479.57 277.21 464.06 276.77 462.98 266.02 C 461.90 255.28 454.76 250.32 453.00 241.00 C 451.24 231.68 468.28 225.96 459.25 218.75 C 450.22 211.54 450.17 207.10 441.00 202.00
C 437.21 206.16 430.12 216.01 423.23 212.77 C 416.34 209.53 411.12 206.83 404.07 203.93 C 397.03 201.02 387.32 201.99 389.00 190.00 C 390.68 178.01 383.13 179.99 372.00 179.00 C 360.87 178.01 355.34 181.66 356.98 192.98 C 358.61 204.29 345.90 200.81 340.23 204.23 C 334.56 207.64 326.70 211.57 320.01 212.99 C 313.31 214.42 308.65 203.40 303.00 202.00
C 297.29 207.50 295.50 211.50 288.75 216.75 C 282.01 222.00 283.54 226.24 290.25 231.75 C 296.95 237.26 291.65 246.07 288.31 252.31 C 284.96 258.54 283.57 265.34 280.75 272.75 C 277.93 280.16 261.35 272.49 260.00 280.00 C 258.65 287.51 261.01 300.03 260.00 308.00
C 266.66 307.14 279.42 307.47 282.02 314.98 C 284.63 322.48 285.67 329.10 289.69 335.31 C 293.72 341.51 295.89 350.75 288.25 355.25 C 280.61 359.75 285.23 366.72 290.75 370.25 C 296.27 373.78 300.15 383.79 305.92 381.92 C 311.69 380.04 316.11 368.13 323.31 372.69 C 330.50 377.26 335.71 377.69 342.78 381.22 C 349.85 384.76 358.12 383.10 357.00 395.00 C 355.88 406.90 362.21 404.95 374.00 406.00 C 385.79 407.05 390.15 403.48 389.03 392.03 C 387.90 380.57 400.10 384.75 405.78 380.78 C 411.45 376.80 418.05 375.57 425.00 372.00 C 431.95 368.44 435.96 383.18 441.92 382.92 C 447.89 382.67 451.20 372.80 457.25 369.25 C 463.30 365.69 463.74 358.42 456.25 353.75 C 448.75 349.09 454.38 339.58 457.68 333.68 C 460.98 327.78 462.25 320.41 465.25 313.25 C 468.25 306.09 483.05 310.17 486.00 306.00
M 384.00 229.00 
C 430.23 235.60 452.90 296.40 423.08 332.08 C 393.27 367.77 334.25 363.22 314.69 318.31 C 295.14 273.39 333.45 221.78 384.00 229.00 Z"/>
</g>
<g fill="None" fill-opacity="0.0" stroke="#CF4755" stroke-opacity="1.00" stroke-width="0.3"><path d="
M 384.00 229.00 
C 333.45 221.78 295.14 273.39 314.69 318.31 C 334.25 363.22 393.27 367.77 423.08 332.08 C 452.90 296.40 430.23 235.60 384.00 229.00
M 428.00 287.00 
C 428.65 291.02 428.64 295.04 428.00 299.00
C 425.81 339.33 375.59 361.05 342.77 339.23 C 309.95 317.41 309.96 267.99 343.08 246.08 C 376.20 224.18 425.78 246.12 428.00 287.00 Z"/>
</g>
<g fill="None" fill-opacity="0.0" stroke="#856F2C" stroke-opacity="1.00" stroke-width="0.3"><path d="
M 74.00 255.00 
C 71.29 254.18 65.51 246.06 63.25 243.75 C 60.98 241.44 52.74 235.76 52.00 233.00
C 52.69 236.53 60.18 241.65 62.75 244.25 C 65.33 246.85 70.41 254.18 74.00 255.00 Z"/>
</g>
<g fill="None" fill-opacity="0.0" stroke="#272223" stroke-opacity="1.00" stroke-width="0.3"><path d="
M 428.00 299.00 
C 428.21 295.08 428.21 290.92 428.00 287.00
C 425.78 246.12 376.20 224.18 343.08 246.08 C 309.96 267.99 309.95 317.41 342.77 339.23 C 375.59 361.05 425.81 339.33 428.00 299.00
M 379.00 244.00 
C 414.05 249.01 433.77 292.20 412.08 321.08 C 390.39 349.96 346.40 346.40 329.70 314.30 C 312.99 282.21 341.34 238.62 379.00 244.00 Z"/>
</g>
<g fill="None" fill-opacity="0.0" stroke="#F0F0F1" stroke-opacity="1.00" stroke-width="0.3"><path d="
M 379.00 244.00 
C 341.34 238.62 312.99 282.21 329.70 314.30 C 346.40 346.40 390.39 349.96 412.08 321.08 C 433.77 292.20 414.05 249.01 379.00 244.00 Z"/>
</g>
<g fill="None" fill-opacity="0.0" stroke="#83363E" stroke-opacity="1.00" stroke-width="0.3"><path d="
M 486.00 306.00 
C 488.51 302.44 488.56 282.62 486.00 279.00
C 487.46 282.02 485.86 289.66 486.00 293.00 C 486.14 296.34 487.39 303.13 486.00 306.00 Z"/>
</g>
<g fill="None" fill-opacity="0.0" stroke="#743239" stroke-opacity="1.00" stroke-width="0.3"><path d="
M 428.00 299.00 
C 428.64 295.04 428.65 291.02 428.00 287.00
C 428.21 290.92 428.21 295.08 428.00 299.00 Z"/>
</g>
<g fill="None" fill-opacity="0.0" stroke="#232022" stroke-opacity="0.93" stroke-width="0.3"><path d="
M 203.00 314.00 
C 206.86 297.77 195.53 295.97 183.00 296.00 C 170.47 296.03 158.95 297.67 163.00 314.00
C 152.56 312.62 143.50 329.24 134.75 319.25 C 126.00 309.26 118.29 320.01 110.75 326.75 C 103.22 333.49 98.82 345.08 111.00 351.00
C 108.18 359.01 103.49 366.45 102.00 375.00
C 85.61 371.21 83.97 382.35 84.00 395.00 C 84.03 407.65 85.51 418.98 102.00 415.00
C 103.50 423.59 108.18 431.00 111.00 439.00
C 98.33 445.30 103.70 456.70 111.25 463.75 C 118.79 470.80 126.97 480.34 135.75 470.75 C 144.53 461.17 152.56 477.52 163.00 476.00
C 158.96 492.33 170.47 493.97 183.00 494.00 C 195.53 494.03 206.87 492.22 203.00 476.00
C 212.73 477.65 221.39 460.97 229.75 470.25 C 238.12 479.53 245.67 472.38 253.25 465.25 C 260.83 458.12 267.03 449.28 257.75 441.25 C 248.47 433.21 266.69 424.32 264.00 415.00
C 271.78 418.07 283.65 412.33 282.00 404.00 C 280.35 395.67 285.42 383.15 279.25 377.75 C 273.07 372.36 261.22 376.47 261.31 366.69 C 261.39 356.92 250.71 354.84 258.25 348.25 C 265.79 341.66 263.99 334.80 257.75 329.25 C 251.52 323.70 250.03 319.83 242.67 315.33 C 235.31 310.83 229.20 324.56 223.08 321.92 C 216.96 319.29 209.67 315.46 203.00 314.00
M 194.00 304.00 
C 199.28 309.28 190.16 319.68 202.08 321.92 C 213.99 324.17 229.56 339.21 238.00 322.00
C 244.93 325.69 246.30 329.56 252.75 335.25 C 259.20 340.94 245.16 345.88 247.00 353.00 C 248.84 360.13 253.96 364.95 254.98 373.02 C 255.99 381.10 266.08 385.23 274.00 383.00
C 274.00 391.00 274.00 399.00 274.00 407.00
C 265.82 403.78 254.21 410.24 254.68 418.68 C 255.14 427.11 241.49 433.87 247.93 442.07 C 254.36 450.28 256.19 451.68 247.75 459.75 C 239.32 467.83 238.96 466.86 230.75 460.25 C 222.54 453.63 215.92 466.69 207.32 466.32 C 198.73 465.95 191.59 477.44 195.00 486.00
C 187.00 486.00 179.00 486.00 171.00 486.00
C 175.77 470.81 162.83 468.93 153.32 464.68 C 143.82 460.42 134.33 455.28 128.00 468.00
C 120.96 464.68 116.51 456.44 110.00 452.00
C 120.17 443.68 118.87 435.80 113.69 425.31 C 108.52 414.81 107.32 403.37 92.00 406.00
C 89.73 403.73 89.79 386.21 92.00 384.00
C 97.26 378.74 107.89 387.87 109.92 375.92 C 111.96 363.98 127.33 348.45 110.00 340.00
C 113.32 332.96 121.56 328.51 126.00 322.00
C 131.74 327.03 140.78 334.86 148.08 328.08 C 155.38 321.29 167.34 325.45 170.00 315.00
C 170.73 310.71 168.98 300.49 176.00 303.00 C 183.02 305.51 189.20 299.20 194.00 304.00 Z"/>
</g>
<g fill="None" fill-opacity="0.0" stroke="#225870" stroke-opacity="1.00" stroke-width="0.3"><path d="
M 170.00 315.00 
C 170.95 311.87 171.36 307.79 171.00 304.00
C 178.67 304.00 186.33 304.00 194.00 304.00
C 189.20 299.20 183.02 305.51 176.00 303.00 C 168.98 300.49 170.73 310.71 170.00 315.00 Z"/>
</g>
<g fill="None" fill-opacity="0.0" stroke="#1FADE9" stroke-opacity="1.00" stroke-width="0.3"><path d="
M 170.00 315.00 
C 167.34 325.45 155.38 321.29 148.08 328.08 C 140.78 334.86 131.74 327.03 126.00 322.00
C 121.56 328.51 113.32 332.96 110.00 340.00
C 127.33 348.45 111.96 363.98 109.92 375.92 C 107.89 387.87 97.26 378.74 92.00 384.00
C 90.79 385.73 92.00 392.79 92.00 395.00 C 92.00 397.21 90.79 404.27 92.00 406.00
C 107.32 403.37 108.52 414.81 113.69 425.31 C 118.87 435.80 120.17 443.68 110.00 452.00
C 116.51 456.44 120.96 464.68 128.00 468.00
C 134.33 455.28 143.82 460.42 153.32 464.68 C 162.83 468.93 175.77 470.81 171.00 486.00
C 179.00 486.00 187.00 486.00 195.00 486.00
C 191.59 477.44 198.73 465.95 207.32 466.32 C 215.92 466.69 222.54 453.63 230.75 460.25 C 238.96 466.86 239.32 467.83 247.75 459.75 C 256.19 451.68 254.36 450.28 247.93 442.07 C 241.49 433.87 255.14 427.11 254.68 418.68 C 254.21 410.24 265.82 403.78 274.00 407.00
C 274.00 399.00 274.00 391.00 274.00 383.00
C 266.08 385.23 255.99 381.10 254.98 373.02 C 253.96 364.95 248.84 360.13 247.00 353.00 C 245.16 345.88 259.20 340.94 252.75 335.25 C 246.30 329.56 244.93 325.69 238.00 322.00
C 229.56 339.21 213.99 324.17 202.08 321.92 C 190.16 319.68 199.28 309.28 194.00 304.00
C 186.33 304.00 178.67 304.00 171.00 304.00
C 171.36 307.79 170.95 311.87 170.00 315.00
M 190.00 342.00 
C 228.59 346.67 249.61 396.05 225.70 426.70 C 201.78 457.35 152.91 455.22 135.23 418.77 C 117.54 382.32 147.41 336.85 190.00 342.00 Z"/>
</g>
<g fill="None" fill-opacity="0.0" stroke="#1B97CB" stroke-opacity="1.00" stroke-width="0.3"><path d="
M 190.00 342.00 
C 147.41 336.85 117.54 382.32 135.23 418.77 C 152.91 455.22 201.78 457.35 225.70 426.70 C 249.61 396.05 228.59 346.67 190.00 342.00
M 188.00 349.00 
C 221.47 353.05 240.37 393.62 220.25 421.25 C 200.12 448.87 158.45 446.62 142.08 415.92 C 125.71 385.22 152.10 344.66 188.00 349.00 Z"/>
</g>
<g fill="None" fill-opacity="0.0" stroke="#252325" stroke-opacity="1.00" stroke-width="0.3"><path d="
M 188.00 349.00 
C 152.10 344.66 125.71 385.22 142.08 415.92 C 158.45 446.62 200.12 448.87 220.25 421.25 C 240.37 393.62 221.47 353.05 188.00 349.00
M 187.00 357.00 
C 215.18 358.53 230.59 393.01 215.23 416.23 C 199.87 439.44 166.31 438.41 150.75 416.25 C 135.18 394.10 149.80 358.53 178.00 357.00
C 181.15 356.49 183.91 356.50 187.00 357.00 Z"/>
</g>
<g fill="None" fill-opacity="0.0" stroke="#908E8F" stroke-opacity="1.00" stroke-width="0.3"><path d="
M 178.00 357.00 
C 180.94 356.84 184.06 356.84 187.00 357.00
C 183.91 356.50 181.15 356.49 178.00 357.00 Z"/>
</g>
<g fill="None" fill-opacity="0.0" stroke="#F0F0F1" stroke-opacity="1.00" stroke-width="0.3"><path d="
M 187.00 357.00 
C 184.06 356.84 180.94 356.84 178.00 357.00
C 149.80 358.53 135.18 394.10 150.75 416.25 C 166.31 438.41 199.87 439.44 215.23 416.23 C 230.59 393.01 215.18 358.53 187.00 357.00 Z"/>
</g>
<g fill="None" fill-opacity="0.0" stroke="#216684" stroke-opacity="1.00" stroke-width="0.3"><path d="
M 92.00 406.00 
C 90.79 404.27 92.00 397.21 92.00 395.00 C 92.00 392.79 90.79 385.73 92.00 384.00
C 89.79 386.21 89.73 403.73 92.00 406.00 Z"/>
</g>
<g fill="#000000" fill-opacity="0.00" stroke="None">
<path d="
M 0.00 512.00 
L 512.00 512.00
L 512.00 0.00
L 0.00 0.00
L 0.00 512.00
M 251.00 93.00 
C 252.33 102.57 259.53 104.01 260.77 114.23 C 262.01 124.45 267.48 130.07 279.00 128.00 C 290.52 125.93 289.79 142.87 289.00 150.00 C 288.21 157.13 292.33 173.20 284.75 177.75 C 277.17 182.31 263.66 176.83 262.22 187.22 C 260.78 197.61 256.26 201.04 252.70 209.70 C 249.13 218.35 261.40 219.52 262.92 228.08 C 264.45 236.63 257.24 243.10 251.25 248.25 C 245.26 253.40 241.71 260.58 233.92 262.92 C 226.14 265.26 218.37 256.44 214.00 251.00
C 203.47 253.72 197.97 261.62 186.33 262.33 C 174.68 263.03 185.01 286.47 173.30 288.30 C 161.59 290.13 146.19 290.29 134.33 288.67 C 122.47 287.05 133.14 263.65 120.99 263.01 C 108.85 262.36 104.22 252.74 93.00 251.00
C 88.59 257.58 79.62 265.53 71.78 262.22 C 63.94 258.91 59.31 250.02 53.25 245.75 C 47.20 241.47 39.09 229.09 46.75 223.75 C 54.42 218.42 57.82 209.11 51.08 202.92 C 44.33 196.74 48.68 181.72 39.97 180.03 C 31.27 178.34 16.19 180.41 18.00 167.00 C 19.81 153.59 15.37 145.87 18.93 133.93 C 22.49 121.98 40.41 133.58 43.78 123.78 C 47.14 113.97 47.52 108.63 53.75 99.75 C 59.99 90.88 46.53 87.13 44.08 78.92 C 41.62 70.72 52.36 63.21 57.75 57.75 C 63.14 52.29 69.50 43.31 78.00 44.00 C 86.51 44.69 90.51 59.66 99.08 54.08 C 107.64 48.49 112.95 47.07 123.02 44.02 C 133.10 40.98 122.31 23.31 133.25 19.25 C 144.19 15.19 153.31 19.93 166.00 18.00 C 178.69 16.07 179.42 29.51 180.00 39.00 C 180.58 48.49 195.84 44.21 202.23 50.77 C 208.62 57.33 217.71 55.35 223.25 47.25 C 228.79 39.15 240.65 46.30 245.25 52.75 C 249.85 59.20 258.41 63.23 261.92 71.08 C 265.44 78.92 258.13 88.66 251.00 93.00
M 460.00 239.00 
C 463.63 246.88 468.91 255.70 470.78 264.22 C 472.64 272.75 493.73 266.01 493.92 277.08 C 494.12 288.14 496.15 302.80 492.68 311.68 C 489.20 320.56 467.85 312.97 469.67 324.67 C 471.49 336.37 454.98 340.65 462.25 348.75 C 469.52 356.86 474.66 362.74 465.75 370.75 C 456.84 378.77 456.67 380.74 447.75 388.75 C 438.83 396.77 431.52 378.02 423.78 380.78 C 416.03 383.54 406.04 390.62 397.00 391.00
C 401.42 410.68 388.96 413.93 373.00 414.00 C 357.04 414.07 344.80 410.62 349.00 391.00
C 340.71 387.86 333.89 388.52 326.26 382.74 C 318.62 376.97 315.03 386.86 307.77 389.77 C 300.51 392.68 293.94 386.05 288.75 380.25 C 283.57 374.45 277.62 371.22 275.03 362.97 C 272.43 354.73 287.48 351.51 285.21 343.77 C 282.94 336.03 276.95 331.80 276.01 321.99 C 275.06 312.18 259.34 320.22 254.25 312.75 C 249.17 305.27 253.70 293.66 252.00 284.00 C 250.30 274.34 257.85 267.31 268.00 269.00 C 278.15 270.69 275.82 256.89 280.77 250.77 C 285.72 244.66 286.46 237.33 278.75 232.25 C 271.05 227.16 276.26 216.56 282.25 212.25 C 288.23 207.93 291.54 201.45 297.75 196.75 C 303.97 192.05 315.92 197.41 318.00 205.00
C 328.73 202.75 337.90 195.49 349.00 194.00
C 347.19 185.55 349.91 171.10 360.07 171.07 C 370.24 171.04 384.19 169.01 392.23 173.77 C 400.26 178.54 394.64 196.71 405.02 195.98 C 415.41 195.24 421.63 209.90 429.25 203.25 C 436.86 196.59 443.88 191.39 451.25 199.75 C 458.61 208.11 461.88 209.50 468.75 217.25 C 475.62 225.00 466.34 233.46 460.75 238.75
M 203.00 314.00 
C 209.67 315.46 216.96 319.29 223.08 321.92 C 229.20 324.56 235.31 310.83 242.67 315.33 C 250.03 319.83 251.52 323.70 257.75 329.25 C 263.99 334.80 265.79 341.66 258.25 348.25 C 250.71 354.84 261.39 356.92 261.31 366.69 C 261.22 376.47 273.07 372.36 279.25 377.75 C 285.42 383.15 280.35 395.67 282.00 404.00 C 283.65 412.33 271.78 418.07 264.00 415.00
C 266.69 424.32 248.47 433.21 257.75 441.25 C 267.03 449.28 260.83 458.12 253.25 465.25 C 245.67 472.38 238.12 479.53 229.75 470.25 C 221.39 460.97 212.73 477.65 203.00 476.00
C 206.87 492.22 195.53 494.03 183.00 494.00 C 170.47 493.97 158.96 492.33 163.00 476.00
C 152.56 477.52 144.53 461.17 135.75 470.75 C 126.97 480.34 118.79 470.80 111.25 463.75 C 103.70 456.70 98.33 445.30 111.00 439.00
C 108.18 431.00 103.50 423.59 102.00 415.00
C 85.51 418.98 84.03 407.65 84.00 395.00 C 83.97 382.35 85.61 371.21 102.00 375.00
C 103.49 366.45 108.18 359.01 111.00 351.00
C 98.82 345.08 103.22 333.49 110.75 326.75 C 118.29 320.01 126.00 309.26 134.75 319.25 C 143.50 329.24 152.56 312.62 163.00 314.00
C 158.95 297.67 170.47 296.03 183.00 296.00 C 195.53 295.97 206.86 297.77 203.00 314.00 Z"/>
</g>
<g fill="#242020" fill-opacity="0.94" stroke="None">
<path d="
M 251.00 93.00 
C 258.13 88.66 265.44 78.92 261.92 71.08 C 258.41 63.23 249.85 59.20 245.25 52.75 C 240.65 46.30 228.79 39.15 223.25 47.25 C 217.71 55.35 208.62 57.33 202.23 50.77 C 195.84 44.21 180.58 48.49 180.00 39.00 C 179.42 29.51 178.69 16.07 166.00 18.00 C 153.31 19.93 144.19 15.19 133.25 19.25 C 122.31 23.31 133.10 40.98 123.02 44.02 C 112.95 47.07 107.64 48.49 99.08 54.08 C 90.51 59.66 86.51 44.69 78.00 44.00 C 69.50 43.31 63.14 52.29 57.75 57.75 C 52.36 63.21 41.62 70.72 44.08 78.92 C 46.53 87.13 59.99 90.88 53.75 99.75 C 47.52 108.63 47.14 113.97 43.78 123.78 C 40.41 133.58 22.49 121.98 18.93 133.93 C 15.37 145.87 19.81 153.59 18.00 167.00 C 16.19 180.41 31.27 178.34 39.97 180.03 C 48.68 181.72 44.33 196.74 51.08 202.92 C 57.82 209.11 54.42 218.42 46.75 223.75 C 39.09 229.09 47.20 241.47 53.25 245.75 C 59.31 250.02 63.94 258.91 71.78 262.22 C 79.62 265.53 88.59 257.58 93.00 251.00
C 104.22 252.74 108.85 262.36 120.99 263.01 C 133.14 263.65 122.47 287.05 134.33 288.67 C 146.19 290.29 161.59 290.13 173.30 288.30 C 185.01 286.47 174.68 263.03 186.33 262.33 C 197.97 261.62 203.47 253.72 214.00 251.00
C 218.37 256.44 226.14 265.26 233.92 262.92 C 241.71 260.58 245.26 253.40 251.25 248.25 C 257.24 243.10 264.45 236.63 262.92 228.08 C 261.40 219.52 249.13 218.35 252.70 209.70 C 256.26 201.04 260.78 197.61 262.22 187.22 C 263.66 176.83 277.17 182.31 284.75 177.75 C 292.33 173.20 288.21 157.13 289.00 150.00 C 289.79 142.87 290.52 125.93 279.00 128.00 C 267.48 130.07 262.01 124.45 260.77 114.23 C 259.53 104.01 252.33 102.57 251.00 93.00
M 169.00 26.00 
C 175.64 29.43 168.93 49.79 181.68 51.32 C 194.43 52.85 197.67 56.66 208.23 62.77 C 218.79 68.88 224.46 50.34 233.00 52.00
C 236.84 52.74 241.30 60.12 244.25 62.75 C 247.19 65.38 253.57 70.32 255.00 74.00
C 257.91 81.50 237.36 90.22 244.93 100.07 C 252.49 109.92 252.74 117.01 256.93 128.07 C 261.11 139.13 282.19 130.71 282.00 143.00 C 281.80 155.29 285.87 174.54 271.00 172.00 C 256.13 169.46 254.90 184.06 252.07 193.07 C 249.25 202.09 236.95 213.19 247.25 221.75 C 257.56 230.30 253.30 235.57 244.75 243.75 C 236.21 251.94 231.17 258.73 222.75 248.25 C 214.33 237.76 203.22 247.11 194.77 251.77 C 186.32 256.43 170.05 252.70 172.00 269.00 C 173.95 285.30 159.83 280.95 145.00 282.00 C 130.17 283.05 139.61 263.79 129.75 257.25 C 119.89 250.71 110.65 254.97 101.25 245.75 C 91.86 236.53 82.08 256.84 74.00 255.00
C 70.41 254.18 65.33 246.85 62.75 244.25 C 60.18 241.65 52.69 236.53 52.00 233.00
C 50.32 224.33 68.61 218.92 62.68 208.32 C 56.74 197.72 52.71 194.55 51.22 181.78 C 49.73 169.00 29.62 175.70 26.00 169.00
C 23.00 163.44 23.70 144.66 26.00 139.00
C 29.17 131.20 49.90 137.87 51.32 125.32 C 52.74 112.78 57.61 108.18 62.92 97.92 C 68.24 87.66 48.29 80.68 53.26 73.26 C 58.22 65.83 65.66 59.63 72.75 53.75 C 79.84 47.88 86.91 67.42 97.07 63.07 C 107.24 58.72 111.85 52.34 124.67 51.67 C 137.49 51.01 131.52 29.04 139.00 26.00
C 144.84 23.62 163.37 23.09 169.00 26.00 Z"/>
</g>
<g fill="#7A662A" fill-opacity="1.00" stroke="None">
<path d="
M 139.00 26.00 
C 143.24 24.93 149.62 25.88 154.00 26.00 C 158.38 26.12 164.91 24.62 169.00 26.00
C 163.37 23.09 144.84 23.62 139.00 26.00 Z"/>
</g>
<g fill="#FDD03B" fill-opacity="1.00" stroke="None">
<path d="
M 26.00 139.00 
C 24.94 143.21 25.86 149.66 26.00 154.00 C 26.14 158.34 24.57 164.96 26.00 169.00
C 29.62 175.70 49.73 169.00 51.22 181.78 C 52.71 194.55 56.74 197.72 62.68 208.32 C 68.61 218.92 50.32 224.33 52.00 233.00
C 52.74 235.76 60.98 241.44 63.25 243.75 C 65.51 246.06 71.29 254.18 74.00 255.00
C 82.08 256.84 91.86 236.53 101.25 245.75 C 110.65 254.97 119.89 250.71 129.75 257.25 C 139.61 263.79 130.17 283.05 145.00 282.00 C 159.83 280.95 173.95 285.30 172.00 269.00 C 170.05 252.70 186.32 256.43 194.77 251.77 C 203.22 247.11 214.33 237.76 222.75 248.25 C 231.17 258.73 236.21 251.94 244.75 243.75 C 253.30 235.57 257.56 230.30 247.25 221.75 C 236.95 213.19 249.25 202.09 252.07 193.07 C 254.90 184.06 256.13 169.46 271.00 172.00 C 285.87 174.54 281.80 155.29 282.00 143.00 C 282.19 130.71 261.11 139.13 256.93 128.07 C 252.74 117.01 252.49 109.92 244.93 100.07 C 237.36 90.22 257.91 81.50 255.00 74.00
C 253.50 70.90 246.40 65.68 243.75 63.25 C 241.11 60.82 235.95 52.79 233.00 52.00
C 224.46 50.34 218.79 68.88 208.23 62.77 C 197.67 56.66 194.43 52.85 181.68 51.32 C 168.93 49.79 175.64 29.43 169.00 26.00
C 164.91 24.62 158.38 26.12 154.00 26.00 C 149.62 25.88 143.24 24.93 139.00 26.00
C 131.52 29.04 137.49 51.01 124.67 51.67 C 111.85 52.34 107.24 58.72 97.07 63.07 C 86.91 67.42 79.84 47.88 72.75 53.75 C 65.66 59.63 58.22 65.83 53.26 73.26 C 48.29 80.68 68.24 87.66 62.92 97.92 C 57.61 108.18 52.74 112.78 51.32 125.32 C 49.90 137.87 29.17 131.20 26.00 139.00
M 161.00 83.00 
C 212.83 90.40 242.02 151.46 210.75 194.75 C 179.47 238.03 114.87 231.16 90.70 185.30 C 66.52 139.45 106.10 75.16 161.00 83.00 Z"/>
</g>
<g fill="#89712D" fill-opacity="1.00" stroke="None">
<path d="
M 255.00 74.00 
C 253.57 70.32 247.19 65.38 244.25 62.75 C 241.30 60.12 236.84 52.74 233.00 52.00
C 235.95 52.79 241.11 60.82 243.75 63.25 C 246.40 65.68 253.50 70.90 255.00 74.00 Z"/>
</g>
<g fill="#DCB534" fill-opacity="1.00" stroke="None">
<path d="
M 161.00 83.00 
C 106.10 75.16 66.52 139.45 90.70 185.30 C 114.87 231.16 179.47 238.03 210.75 194.75 C 242.02 151.46 212.83 90.40 161.00 83.00
M 158.00 92.00 
C 211.28 93.07 232.76 161.68 197.25 197.25 C 161.74 232.82 93.07 211.26 92.00 158.00
C 91.64 155.03 91.65 151.91 92.00 149.00
C 92.59 119.63 119.65 92.59 149.00 92.00
C 151.97 91.64 155.09 91.65 158.00 92.00 Z"/>
</g>
<g fill="#7F6A2A" fill-opacity="1.00" stroke="None">
<path d="
M 149.00 92.00 
C 151.99 91.94 155.01 91.94 158.00 92.00
C 155.09 91.65 151.97 91.64 149.00 92.00 Z"/>
</g>
<g fill="#282323" fill-opacity="1.00" stroke="None">
<path d="
M 92.00 149.00 
C 91.94 151.99 91.94 155.01 92.00 158.00
C 93.07 211.26 161.74 232.82 197.25 197.25 C 232.76 161.68 211.28 93.07 158.00 92.00
C 155.01 91.94 151.99 91.94 149.00 92.00
C 119.65 92.59 92.59 119.63 92.00 149.00
M 163.00 99.00 
C 202.49 104.64 222.19 157.23 196.70 187.70 C 171.20 218.16 120.66 214.67 103.69 176.31 C 86.72 137.94 119.09 92.73 163.00 99.00 Z"/>
</g>
<g fill="#F1F1F2" fill-opacity="1.00" stroke="None">
<path d="
M 163.00 99.00 
C 119.09 92.73 86.72 137.94 103.69 176.31 C 120.66 214.67 171.20 218.16 196.70 187.70 C 222.19 157.23 202.49 104.64 163.00 99.00 Z"/>
</g>
<g fill="#7A662A" fill-opacity="1.00" stroke="None">
<path d="
M 26.00 169.00 
C 24.57 164.96 26.14 158.34 26.00 154.00 C 25.86 149.66 24.94 143.21 26.00 139.00
C 23.70 144.66 23.00 163.44 26.00 169.00 Z"/>
</g>
<g fill="#7F6A2A" fill-opacity="1.00" stroke="None">
<path d="
M 92.00 158.00 
C 91.94 155.01 91.94 151.99 92.00 149.00
C 91.65 151.91 91.64 155.03 92.00 158.00 Z"/>
</g>
<g fill="#262021" fill-opacity="0.93" stroke="None">
<path d="
M 460.75 238.75 
C 466.34 233.46 475.62 225.00 468.75 217.25 C 461.88 209.50 458.61 208.11 451.25 199.75 C 443.88 191.39 436.86 196.59 429.25 203.25 C 421.63 209.90 415.41 195.24 405.02 195.98 C 394.64 196.71 400.26 178.54 392.23 173.77 C 384.19 169.01 370.24 171.04 360.07 171.07 C 349.91 171.10 347.19 185.55 349.00 194.00
C 337.90 195.49 328.73 202.75 318.00 205.00
C 315.92 197.41 303.97 192.05 297.75 196.75 C 291.54 201.45 288.23 207.93 282.25 212.25 C 276.26 216.56 271.05 227.16 278.75 232.25 C 286.46 237.33 285.72 244.66 280.77 250.77 C 275.82 256.89 278.15 270.69 268.00 269.00 C 257.85 267.31 250.30 274.34 252.00 284.00 C 253.70 293.66 249.17 305.27 254.25 312.75 C 259.34 320.22 275.06 312.18 276.01 321.99 C 276.95 331.80 282.94 336.03 285.21 343.77 C 287.48 351.51 272.43 354.73 275.03 362.97 C 277.62 371.22 283.57 374.45 288.75 380.25 C 293.94 386.05 300.51 392.68 307.77 389.77 C 315.03 386.86 318.62 376.97 326.26 382.74 C 333.89 388.52 340.71 387.86 349.00 391.00
C 344.80 410.62 357.04 414.07 373.00 414.00 C 388.96 413.93 401.42 410.68 397.00 391.00
C 406.04 390.62 416.03 383.54 423.78 380.78 C 431.52 378.02 438.83 396.77 447.75 388.75 C 456.67 380.74 456.84 378.77 465.75 370.75 C 474.66 362.74 469.52 356.86 462.25 348.75 C 454.98 340.65 471.49 336.37 469.67 324.67 C 467.85 312.97 489.20 320.56 492.68 311.68 C 496.15 302.80 494.12 288.14 493.92 277.08 C 493.73 266.01 472.64 272.75 470.78 264.22 C 468.91 255.70 463.63 246.88 460.00 239.00
M 486.00 279.00 
C 488.56 282.62 488.51 302.44 486.00 306.00
C 483.05 310.17 468.25 306.09 465.25 313.25 C 462.25 320.41 460.98 327.78 457.68 333.68 C 454.38 339.58 448.75 349.09 456.25 353.75 C 463.74 358.42 463.30 365.69 457.25 369.25 C 451.20 372.80 447.89 382.67 441.92 382.92 C 435.96 383.18 431.95 368.44 425.00 372.00 C 418.05 375.57 411.45 376.80 405.78 380.78 C 400.10 384.75 387.90 380.57 389.03 392.03 C 390.15 403.48 385.79 407.05 374.00 406.00 C 362.21 404.95 355.88 406.90 357.00 395.00 C 358.12 383.10 349.85 384.76 342.78 381.22 C 335.71 377.69 330.50 377.26 323.31 372.69 C 316.11 368.13 311.69 380.04 305.92 381.92 C 300.15 383.79 296.27 373.78 290.75 370.25 C 285.23 366.72 280.61 359.75 288.25 355.25 C 295.89 350.75 293.72 341.51 289.69 335.31 C 285.67 329.10 284.63 322.48 282.02 314.98 C 279.42 307.47 266.66 307.14 260.00 308.00
C 261.01 300.03 258.65 287.51 260.00 280.00 C 261.35 272.49 277.93 280.16 280.75 272.75 C 283.57 265.34 284.96 258.54 288.31 252.31 C 291.65 246.07 296.95 237.26 290.25 231.75 C 283.54 226.24 282.01 222.00 288.75 216.75 C 295.50 211.50 297.29 207.50 303.00 202.00
C 308.65 203.40 313.31 214.42 320.01 212.99 C 326.70 211.57 334.56 207.64 340.23 204.23 C 345.90 200.81 358.61 204.29 356.98 192.98 C 355.34 181.66 360.87 178.01 372.00 179.00 C 383.13 179.99 390.68 178.01 389.00 190.00 C 387.32 201.99 397.03 201.02 404.07 203.93 C 411.12 206.83 416.34 209.53 423.23 212.77 C 430.12 216.01 437.21 206.16 441.00 202.00
C 450.17 207.10 450.22 211.54 459.25 218.75 C 468.28 225.96 451.24 231.68 453.00 241.00 C 454.76 250.32 461.90 255.28 462.98 266.02 C 464.06 276.77 479.57 277.21 486.00 279.00 Z"/>
</g>
<g fill="#EE5161" fill-opacity="1.00" stroke="None">
<path d="
M 486.00 306.00 
C 487.39 303.13 486.14 296.34 486.00 293.00 C 485.86 289.66 487.46 282.02 486.00 279.00
C 479.57 277.21 464.06 276.77 462.98 266.02 C 461.90 255.28 454.76 250.32 453.00 241.00 C 451.24 231.68 468.28 225.96 459.25 218.75 C 450.22 211.54 450.17 207.10 441.00 202.00
C 437.21 206.16 430.12 216.01 423.23 212.77 C 416.34 209.53 411.12 206.83 404.07 203.93 C 397.03 201.02 387.32 201.99 389.00 190.00 C 390.68 178.01 383.13 179.99 372.00 179.00 C 360.87 178.01 355.34 181.66 356.98 192.98 C 358.61 204.29 345.90 200.81 340.23 204.23 C 334.56 207.64 326.70 211.57 320.01 212.99 C 313.31 214.42 308.65 203.40 303.00 202.00
C 297.29 207.50 295.50 211.50 288.75 216.75 C 282.01 222.00 283.54 226.24 290.25 231.75 C 296.95 237.26 291.65 246.07 288.31 252.31 C 284.96 258.54 283.57 265.34 280.75 272.75 C 277.93 280.16 261.35 272.49 260.00 280.00 C 258.65 287.51 261.01 300.03 260.00 308.00
C 266.66 307.14 279.42 307.47 282.02 314.98 C 284.63 322.48 285.67 329.10 289.69 335.31 C 293.72 341.51 295.89 350.75 288.25 355.25 C 280.61 359.75 285.23 366.72 290.75 370.25 C 296.27 373.78 300.15 383.79 305.92 381.92 C 311.69 380.04 316.11 368.13 323.31 372.69 C 330.50 377.26 335.71 377.69 342.78 381.22 C 349.85 384.76 358.12 383.10 357.00 395.00 C 355.88 406.90 362.21 404.95 374.00 406.00 C 385.79 407.05 390.15 403.48 389.03 392.03 C 387.90 380.57 400.10 384.75 405.78 380.78 C 411.45 376.80 418.05 375.57 425.00 372.00 C 431.95 368.44 435.96 383.18 441.92 382.92 C 447.89 382.67 451.20 372.80 457.25 369.25 C 463.30 365.69 463.74 358.42 456.25 353.75 C 448.75 349.09 454.38 339.58 457.68 333.68 C 460.98 327.78 462.25 320.41 465.25 313.25 C 468.25 306.09 483.05 310.17 486.00 306.00
M 384.00 229.00 
C 430.23 235.60 452.90 296.40 423.08 332.08 C 393.27 367.77 334.25 363.22 314.69 318.31 C 295.14 273.39 333.45 221.78 384.00 229.00 Z"/>
</g>
<g fill="#CF4755" fill-opacity="1.00" stroke="None">
<path d="
M 384.00 229.00 
C 333.45 221.78 295.14 273.39 314.69 318.31 C 334.25 363.22 393.27 367.77 423.08 332.08 C 452.90 296.40 430.23 235.60 384.00 229.00
M 428.00 287.00 
C 428.65 291.02 428.64 295.04 428.00 299.00
C 425.81 339.33 375.59 361.05 342.77 339.23 C 309.95 317.41 309.96 267.99 343.08 246.08 C 376.20 224.18 425.78 246.12 428.00 287.00 Z"/>
</g>
<g fill="#856F2C" fill-opacity="1.00" stroke="None">
<path d="
M 74.00 255.00 
C 71.29 254.18 65.51 246.06 63.25 243.75 C 60.98 241.44 52.74 235.76 52.00 233.00
C 52.69 236.53 60.18 241.65 62.75 244.25 C 65.33 246.85 70.41 254.18 74.00 255.00 Z"/>
</g>
<g fill="#272223" fill-opacity="1.00" stroke="None">
<path d="
M 428.00 299.00 
C 428.21 295.08 428.21 290.92 428.00 287.00
C 425.78 246.12 376.20 224.18 343.08 246.08 C 309.96 267.99 309.95 317.41 342.77 339.23 C 375.59 361.05 425.81 339.33 428.00 299.00
M 379.00 244.00 
C 414.05 249.01 433.77 292.20 412.08 321.08 C 390.39 349.96 346.40 346.40 329.70 314.30 C 312.99 282.21 341.34 238.62 379.00 244.00 Z"/>
</g>
<g fill="#F0F0F1" fill-opacity="1.00" stroke="None">
<path d="
M 379.00 244.00 
C 341.34 238.62 312.99 282.21 329.70 314.30 C 346.40 346.40 390.39 349.96 412.08 321.08 C 433.77 292.20 414.05 249.01 379.00 244.00 Z"/>
</g>
<g fill="#83363E" fill-opacity="1.00" stroke="None">
<path d="
M 486.00 306.00 
C 488.51 302.44 488.56 282.62 486.00 279.00
C 487.46 282.02 485.86 289.66 486.00 293.00 C 486.14 296.34 487.39 303.13 486.00 306.00 Z"/>
</g>
<g fill="#743239" fill-opacity="1.00" stroke="None">
<path d="
M 428.00 299.00 
C 428.64 295.04 428.65 291.02 428.00 287.00
C 428.21 290.92 428.21 295.08 428.00 299.00 Z"/>
</g>
<g fill="#232022" fill-opacity="0.93" stroke="None">
<path d="
M 203.00 314.00 
C 206.86 297.77 195.53 295.97 183.00 296.00 C 170.47 296.03 158.95 297.67 163.00 314.00
C 152.56 312.62 143.50 329.24 134.75 319.25 C 126.00 309.26 118.29 320.01 110.75 326.75 C 103.22 333.49 98.82 345.08 111.00 351.00
C 108.18 359.01 103.49 366.45 102.00 375.00
C 85.61 371.21 83.97 382.35 84.00 395.00 C 84.03 407.65 85.51 418.98 102.00 415.00
C 103.50 423.59 108.18 431.00 111.00 439.00
C 98.33 445.30 103.70 456.70 111.25 463.75 C 118.79 470.80 126.97 480.34 135.75 470.75 C 144.53 461.17 152.56 477.52 163.00 476.00
C 158.96 492.33 170.47 493.97 183.00 494.00 C 195.53 494.03 206.87 492.22 203.00 476.00
C 212.73 477.65 221.39 460.97 229.75 470.25 C 238.12 479.53 245.67 472.38 253.25 465.25 C 260.83 458.12 267.03 449.28 257.75 441.25 C 248.47 433.21 266.69 424.32 264.00 415.00
C 271.78 418.07 283.65 412.33 282.00 404.00 C 280.35 395.67 285.42 383.15 279.25 377.75 C 273.07 372.36 261.22 376.47 261.31 366.69 C 261.39 356.92 250.71 354.84 258.25 348.25 C 265.79 341.66 263.99 334.80 257.75 329.25 C 251.52 323.70 250.03 319.83 242.67 315.33 C 235.31 310.83 229.20 324.56 223.08 321.92 C 216.96 319.29 209.67 315.46 203.00 314.00
M 194.00 304.00 
C 199.28 309.28 190.16 319.68 202.08 321.92 C 213.99 324.17 229.56 339.21 238.00 322.00
C 244.93 325.69 246.30 329.56 252.75 335.25 C 259.20 340.94 245.16 345.88 247.00 353.00 C 248.84 360.13 253.96 364.95 254.98 373.02 C 255.99 381.10 266.08 385.23 274.00 383.00
C 274.00 391.00 274.00 399.00 274.00 407.00
C 265.82 403.78 254.21 410.24 254.68 418.68 C 255.14 427.11 241.49 433.87 247.93 442.07 C 254.36 450.28 256.19 451.68 247.75 459.75 C 239.32 467.83 238.96 466.86 230.75 460.25 C 222.54 453.63 215.92 466.69 207.32 466.32 C 198.73 465.95 191.59 477.44 195.00 486.00
C 187.00 486.00 179.00 486.00 171.00 486.00
C 175.77 470.81 162.83 468.93 153.32 464.68 C 143.82 460.42 134.33 455.28 128.00 468.00
C 120.96 464.68 116.51 456.44 110.00 452.00
C 120.17 443.68 118.87 435.80 113.69 425.31 C 108.52 414.81 107.32 403.37 92.00 406.00
C 89.73 403.73 89.79 386.21 92.00 384.00
C 97.26 378.74 107.89 387.87 109.92 375.92 C 111.96 363.98 127.33 348.45 110.00 340.00
C 113.32 332.96 121.56 328.51 126.00 322.00
C 131.74 327.03 140.78 334.86 148.08 328.08 C 155.38 321.29 167.34 325.45 170.00 315.00
C 170.73 310.71 168.98 300.49 176.00 303.00 C 183.02 305.51 189.20 299.20 194.00 304.00 Z"/>
</g>
<g fill="#225870" fill-opacity="1.00" stroke="None">
<path d="
M 170.00 315.00 
C 170.95 311.87 171.36 307.79 171.00 304.00
C 178.67 304.00 186.33 304.00 194.00 304.00
C 189.20 299.20 183.02 305.51 176.00 303.00 C 168.98 300.49 170.73 310.71 170.00 315.00 Z"/>
</g>
<g fill="#1FADE9" fill-opacity="1.00" stroke="None">
<path d="
M 170.00 315.00 
C 167.34 325.45 155.38 321.29 148.08 328.08 C 140.78 334.86 131.74 327.03 126.00 322.00
C 121.56 328.51 113.32 332.96 110.00 340.00
C 127.33 348.45 111.96 363.98 109.92 375.92 C 107.89 387.87 97.26 378.74 92.00 384.00
C 90.79 385.73 92.00 392.79 92.00 395.00 C 92.00 397.21 90.79 404.27 92.00 406.00
C 107.32 403.37 108.52 414.81 113.69 425.31 C 118.87 435.80 120.17 443.68 110.00 452.00
C 116.51 456.44 120.96 464.68 128.00 468.00
C 134.33 455.28 143.82 460.42 153.32 464.68 C 162.83 468.93 175.77 470.81 171.00 486.00
C 179.00 486.00 187.00 486.00 195.00 486.00
C 191.59 477.44 198.73 465.95 207.32 466.32 C 215.92 466.69 222.54 453.63 230.75 460.25 C 238.96 466.86 239.32 467.83 247.75 459.75 C 256.19 451.68 254.36 450.28 247.93 442.07 C 241.49 433.87 255.14 427.11 254.68 418.68 C 254.21 410.24 265.82 403.78 274.00 407.00
C 274.00 399.00 274.00 391.00 274.00 383.00
C 266.08 385.23 255.99 381.10 254.98 373.02 C 253.96 364.95 248.84 360.13 247.00 353.00 C 245.16 345.88 259.20 340.94 252.75 335.25 C 246.30 329.56 244.93 325.69 238.00 322.00
C 229.56 339.21 213.99 324.17 202.08 321.92 C 190.16 319.68 199.28 309.28 194.00 304.00
C 186.33 304.00 178.67 304.00 171.00 304.00
C 171.36 307.79 170.95 311.87 170.00 315.00
M 190.00 342.00 
C 228.59 346.67 249.61 396.05 225.70 426.70 C 201.78 457.35 152.91 455.22 135.23 418.77 C 117.54 382.32 147.41 336.85 190.00 342.00 Z"/>
</g>
<g fill="#1B97CB" fill-opacity="1.00" stroke="None">
<path d="
M 190.00 342.00 
C 147.41 336.85 117.54 382.32 135.23 418.77 C 152.91 455.22 201.78 457.35 225.70 426.70 C 249.61 396.05 228.59 346.67 190.00 342.00
M 188.00 349.00 
C 221.47 353.05 240.37 393.62 220.25 421.25 C 200.12 448.87 158.45 446.62 142.08 415.92 C 125.71 385.22 152.10 344.66 188.00 349.00 Z"/>
</g>
<g fill="#252325" fill-opacity="1.00" stroke="None">
<path d="
M 188.00 349.00 
C 152.10 344.66 125.71 385.22 142.08 415.92 C 158.45 446.62 200.12 448.87 220.25 421.25 C 240.37 393.62 221.47 353.05 188.00 349.00
M 187.00 357.00 
C 215.18 358.53 230.59 393.01 215.23 416.23 C 199.87 439.44 166.31 438.41 150.75 416.25 C 135.18 394.10 149.80 358.53 178.00 357.00
C 181.15 356.49 183.91 356.50 187.00 357.00 Z"/>
</g>
<g fill="#908E8F" fill-opacity="1.00" stroke="None">
<path d="
M 178.00 357.00 
C 180.94 356.84 184.06 356.84 187.00 357.00
C 183.91 356.50 181.15 356.49 178.00 357.00 Z"/>
</g>
<g fill="#F0F0F1" fill-opacity="1.00" stroke="None">
<path d="
M 187.00 357.00 
C 184.06 356.84 180.94 356.84 178.00 357.00
C 149.80 358.53 135.18 394.10 150.75 416.25 C 166.31 438.41 199.87 439.44 215.23 416.23 C 230.59 393.01 215.18 358.53 187.00 357.00 Z"/>
</g>
<g fill="#216684" fill-opacity="1.00" stroke="None">
<path d="
M 92.00 406.00 
C 90.79 404.27 92.00 397.21 92.00 395.00 C 92.00 392.79 90.79 385.73 92.00 384.00
C 89.79 386.21 89.73 403.73 92.00 406.00 Z"/>
</g>
</svg>