<svg xmlns="http://www.w3.org/2000/svg" xmlns:v="https://svgstorm.com"
viewBox = "0 0 512 512"
width="512"
height="512">
<g fill="None" fill-opacity="0.0" stroke="#000000" stroke-opacity="0.01" stroke-width="0.3"><path d="
M 0.00 137.00 
C 12.31 119.66 22.76 105.40 36.00 88.00
C 93.50 90.33 152.08 88.33 210.00 89.00
C 209.26 83.90 211.13 78.41 210.00 74.00
C 213.14 74.36 213.66 68.50 217.00 71.00
C 217.00 63.33 217.00 55.67 217.00 48.00
C 213.40 48.39 213.30 45.76 210.00 45.00
C 207.38 21.63 213.33 1.91 236.00 0.00
L 0.00 0.00
L 0.00 137.00 Z"/>
</g>
<g fill="None" fill-opacity="0.0" stroke="#000000" stroke-opacity="1.00" stroke-width="0.3"><path d="
M 217.00 48.00 
C 224.37 47.20 224.44 40.13 224.00 34.00 C 223.56 27.87 223.41 21.58 228.25 17.25 C 233.09 12.92 239.62 14.00 246.00 14.00 C 252.38 14.00 260.65 13.94 267.00 14.00 C 273.35 14.06 279.59 13.02 284.25 17.75 C 288.90 22.48 287.95 28.39 288.00 35.00 C 288.05 41.61 287.98 49.09 288.00 56.00 C 288.02 62.91 287.99 70.99 288.00 78.00 C 288.01 85.01 288.00 91.99 288.00 99.00 C 288.00 106.01 288.00 113.00 288.00 120.00 C 288.00 127.00 288.00 134.00 288.00 141.00 C 288.00 148.01 288.00 154.99 288.00 162.00 C 288.00 169.01 288.00 175.98 288.00 183.00 C 288.00 190.02 288.00 196.96 288.00 204.00 C 288.00 211.04 288.00 217.90 288.00 225.00 C 288.00 232.10 288.01 239.90 288.00 247.00 C 287.99 254.10 288.01 260.96 288.00 268.00 C 287.99 275.04 288.03 282.00 288.00 289.00 C 287.97 296.00 288.07 303.03 288.00 310.00 C 287.93 316.97 288.15 324.09 288.00 331.00 C 287.85 337.91 288.33 345.20 288.00 352.00 C 287.67 358.80 288.73 366.44 288.00 373.00 C 287.27 379.56 289.61 387.98 288.00 394.00 C 286.39 400.02 291.38 411.17 288.00 416.00
C 285.42 419.69 271.85 416.39 267.00 417.00 C 262.15 417.61 249.87 417.59 245.00 417.00 C 240.13 416.41 226.56 419.66 224.00 416.00
C 220.80 411.43 225.36 401.90 224.00 396.00 C 222.64 390.10 224.62 381.47 224.00 375.00 C 223.38 368.53 224.29 360.68 224.00 354.00 C 223.71 347.32 224.13 340.80 224.00 334.00 C 223.87 327.20 224.06 319.88 224.00 313.00 C 223.94 306.12 224.03 298.89 224.00 292.00 C 223.97 285.11 224.02 278.93 224.00 272.00 C 223.98 265.07 224.02 258.01 224.00 251.00 C 223.98 243.99 224.05 237.10 224.00 230.00 C 223.95 222.90 224.10 216.26 224.00 209.00 C 223.90 201.74 224.23 196.73 224.00 189.00 C 223.77 181.27 224.48 176.69 224.00 168.00 C 223.52 159.31 225.05 157.78 224.00 147.00 C 222.95 136.22 225.53 116.29 224.00 106.00 C 222.47 95.71 229.94 72.27 217.00 71.00
C 213.66 68.50 213.14 74.36 210.00 74.00
C 211.13 78.41 209.26 83.90 210.00 89.00
C 152.08 88.33 93.50 90.33 36.00 88.00
C 22.76 105.40 12.31 119.66 0.00 137.00
L 0.00 140.00
C 11.78 157.50 22.63 173.00 37.00 190.00
C 94.16 187.67 152.42 189.67 210.00 189.00
C 210.00 265.00 210.00 341.00 210.00 417.00
C 180.68 415.44 154.54 414.37 137.77 432.77 C 121.00 451.17 129.65 477.25 126.00 507.00
C 127.72 509.13 129.77 510.59 132.00 512.00
L 380.00 512.00
C 389.94 503.74 386.57 477.08 386.00 464.00 C 385.43 450.92 383.39 444.92 376.61 435.25 C 369.83 425.57 360.11 420.60 350.08 417.87 C 340.05 415.14 315.39 418.10 302.00 417.00
C 302.00 381.00 302.00 345.00 302.00 309.00
C 320.04 309.09 339.05 308.88 357.00 309.00 C 374.95 309.12 395.50 308.77 413.00 309.00 C 430.50 309.23 452.74 308.51 469.00 309.00 C 485.26 309.49 484.34 294.62 492.91 286.90 C 501.47 279.18 504.07 268.64 512.00 262.00
L 512.00 257.00
C 500.05 239.65 489.54 225.56 476.00 208.00
C 465.51 208.65 449.84 207.22 439.00 208.00 C 428.16 208.78 414.66 204.15 413.00 215.00
C 413.95 226.89 434.53 221.39 444.00 222.00 C 453.47 222.61 469.24 219.63 474.75 229.25 C 480.27 238.86 483.94 243.37 490.75 251.25 C 497.57 259.12 492.69 267.21 485.70 273.70 C 478.70 280.18 477.19 290.86 469.00 295.00
C 463.45 297.81 455.61 295.40 449.00 296.00 C 442.39 296.60 434.80 295.75 428.00 296.00 C 421.20 296.25 413.86 295.93 407.00 296.00 C 400.14 296.07 392.82 296.06 386.00 296.00 C 379.18 295.94 371.67 296.24 365.00 296.00 C 358.33 295.76 350.30 296.58 344.00 296.00 C 337.70 295.42 328.45 297.31 323.00 296.00 C 317.55 294.69 304.95 299.22 302.00 295.00
C 299.17 290.96 303.28 282.14 302.00 277.00 C 300.72 271.86 302.59 264.65 302.00 259.00 C 301.41 253.35 302.29 246.94 302.00 241.00 C 301.71 235.06 302.22 228.04 302.00 222.00
C 311.98 219.47 331.23 228.24 334.00 215.00
C 334.13 203.37 312.24 211.29 302.00 209.00
C 302.45 181.92 301.40 151.77 302.00 125.00 C 302.60 98.23 300.86 65.56 302.00 40.00 C 303.14 14.44 297.64 5.39 277.00 0.00
L 236.00 0.00
C 213.33 1.91 207.38 21.63 210.00 45.00
C 213.30 45.76 213.40 48.39 217.00 48.00
M 210.00 175.00 
C 207.10 179.14 195.43 174.80 190.00 176.00 C 184.57 177.20 175.29 175.47 169.00 176.00 C 162.71 176.53 154.67 175.78 148.00 176.00 C 141.33 176.22 133.83 175.95 127.00 176.00 C 120.17 176.05 112.88 176.09 106.00 176.00 C 99.12 175.91 91.85 176.28 85.00 176.00 C 78.15 175.72 70.72 176.66 64.00 176.00 C 57.28 175.34 48.65 177.86 43.00 175.00
C 35.58 171.25 33.05 161.01 27.25 154.75 C 21.44 148.50 13.84 140.80 19.92 132.92 C 26.00 125.03 30.32 121.27 35.75 111.75 C 41.19 102.23 51.16 100.61 63.00 102.00 C 74.84 103.39 86.93 101.39 99.00 102.00 C 111.07 102.61 123.79 101.72 136.00 102.00 C 148.21 102.28 160.73 101.85 173.00 102.00 C 185.27 102.15 197.72 101.89 210.00 102.00
C 210.00 126.33 210.00 150.67 210.00 175.00
M 342.00 431.00 
C 357.03 432.02 369.98 444.96 371.00 460.00
C 371.79 464.42 373.14 474.20 372.00 479.00 C 370.86 483.80 374.83 495.32 371.00 498.00
C 366.42 501.21 356.92 496.64 351.00 498.00 C 345.08 499.36 336.51 497.39 330.00 498.00 C 323.49 498.61 315.78 497.73 309.00 498.00 C 302.22 498.27 294.89 497.89 288.00 498.00 C 281.11 498.11 273.94 497.97 267.00 498.00 C 260.06 498.03 252.94 498.04 246.00 498.00 C 239.06 497.96 231.90 498.12 225.00 498.00 C 218.10 497.88 210.78 498.30 204.00 498.00 C 197.22 497.70 189.53 498.67 183.00 498.00 C 176.47 497.33 167.96 499.48 162.00 498.00 C 156.04 496.52 145.70 501.29 141.00 498.00
C 137.16 495.31 141.15 483.77 140.00 479.00 C 138.85 474.23 140.22 464.33 141.00 460.00
C 142.02 444.97 154.96 432.02 170.00 431.00
C 196.56 426.24 228.39 430.00 256.00 430.00 C 283.61 430.00 315.51 426.25 342.00 431.00 Z"/>
</g>
<g fill="None" fill-opacity="0.0" stroke="#000000" stroke-opacity="0.01" stroke-width="0.3"><path d="
M 334.00 215.00 
C 340.81 213.38 349.37 217.16 356.00 215.00
C 355.78 212.75 359.17 210.77 360.00 208.00
C 369.90 212.31 390.06 203.15 390.00 215.00
C 397.67 215.00 405.33 215.00 413.00 215.00
C 414.66 204.15 428.16 208.78 439.00 208.00 C 449.84 207.22 465.51 208.65 476.00 208.00
C 489.54 225.56 500.05 239.65 512.00 257.00
L 512.00 0.00
L 277.00 0.00
C 297.64 5.39 303.14 14.44 302.00 40.00 C 300.86 65.56 302.60 98.23 302.00 125.00 C 301.40 151.77 302.45 181.92 302.00 209.00
C 312.24 211.29 334.13 203.37 334.00 215.00
M 415.00 107.00 
C 418.36 116.21 413.42 129.23 404.00 127.00 C 394.58 124.77 380.75 131.55 377.23 121.77 C 373.71 111.99 378.05 100.97 378.00 92.00 C 377.94 83.02 385.76 78.70 391.25 73.25 C 396.73 67.79 414.86 73.72 414.67 65.33 C 414.48 56.93 407.02 51.72 400.75 49.80 C 394.48 47.89 387.13 49.91 382.25 55.25 C 377.37 60.59 378.47 74.42 369.98 73.98 C 361.48 73.53 346.28 77.06 341.25 70.75 C 336.22 64.44 342.17 51.56 343.19 46.75 C 344.21 41.93 346.89 37.39 350.39 33.25 C 353.90 29.10 361.52 22.18 365.77 19.43 C 370.02 16.68 373.71 14.37 379.90 12.88 C 386.09 11.39 390.55 9.80 400.67 10.67 C 410.79 11.54 421.82 16.34 429.75 21.39 C 437.68 26.45 438.91 32.03 443.59 36.75 C 448.26 41.48 447.30 44.58 449.79 51.23 C 452.27 57.88 453.41 71.69 451.01 79.01 C 448.61 86.32 444.32 92.94 438.25 98.25 C 432.18 103.56 423.23 107.02 415.00 107.00
M 412.00 134.00 
C 416.79 140.90 416.18 157.81 414.24 167.25 C 412.31 176.69 390.79 167.22 382.00 172.00
C 380.07 171.11 379.81 167.67 377.00 168.00
C 377.04 158.50 377.18 146.38 377.00 137.00
C 386.45 131.21 401.04 135.28 412.00 134.00 Z"/>
</g>
<g fill="None" fill-opacity="0.0" stroke="#000000" stroke-opacity="0.99" stroke-width="0.3"><path d="
M 415.00 107.00 
C 423.23 107.02 432.18 103.56 438.25 98.25 C 444.32 92.94 448.61 86.32 451.01 79.01 C 453.41 71.69 452.27 57.88 449.79 51.23 C 447.30 44.58 448.26 41.48 443.59 36.75 C 438.91 32.03 437.68 26.45 429.75 21.39 C 421.82 16.34 410.79 11.54 400.67 10.67 C 390.55 9.80 386.09 11.39 379.90 12.88 C 373.71 14.37 370.02 16.68 365.77 19.43 C 361.52 22.18 353.90 29.10 350.39 33.25 C 346.89 37.39 344.21 41.93 343.19 46.75 C 342.17 51.56 336.22 64.44 341.25 70.75 C 346.28 77.06 361.48 73.53 369.98 73.98 C 378.47 74.42 377.37 60.59 382.25 55.25 C 387.13 49.91 394.48 47.89 400.75 49.80 C 407.02 51.72 414.48 56.93 414.67 65.33 C 414.86 73.72 396.73 67.79 391.25 73.25 C 385.76 78.70 377.94 83.02 378.00 92.00 C 378.05 100.97 373.71 111.99 377.23 121.77 C 380.75 131.55 394.58 124.77 404.00 127.00 C 413.42 129.23 418.36 116.21 415.00 107.00
M 401.00 114.00 
C 397.67 114.00 394.33 114.00 391.00 114.00
C 388.00 98.89 392.60 80.15 411.00 83.00 C 429.40 85.85 430.53 63.88 424.23 52.77 C 417.93 41.66 404.24 32.38 391.00 35.00 C 377.76 37.62 368.35 47.66 365.00 60.00
C 361.33 60.00 357.67 60.00 354.00 60.00
C 356.00 49.49 361.21 41.78 369.25 34.25 C 377.29 26.71 390.20 24.13 401.00 25.00 C 411.80 25.87 420.68 31.63 427.75 39.25 C 434.83 46.86 439.80 59.11 439.00 69.00 C 438.20 78.89 432.64 90.71 421.32 92.32 C 410.00 93.93 394.49 96.16 401.00 114.00 Z"/>
</g>
<g fill="None" fill-opacity="0.0" stroke="#FEDE3F" stroke-opacity="1.00" stroke-width="0.3"><path d="
M 217.00 48.00 
C 217.00 55.67 217.00 63.33 217.00 71.00
C 229.94 72.27 222.47 95.71 224.00 106.00 C 225.53 116.29 222.95 136.22 224.00 147.00 C 225.05 157.78 223.52 159.31 224.00 168.00 C 224.48 176.69 223.77 181.27 224.00 189.00 C 224.23 196.73 223.90 201.74 224.00 209.00 C 224.10 216.26 223.95 222.90 224.00 230.00 C 224.05 237.10 223.98 243.99 224.00 251.00 C 224.02 258.01 223.98 265.07 224.00 272.00 C 224.02 278.93 223.97 285.11 224.00 292.00 C 224.03 298.89 223.94 306.12 224.00 313.00 C 224.06 319.88 223.87 327.20 224.00 334.00 C 224.13 340.80 223.71 347.32 224.00 354.00 C 224.29 360.68 223.38 368.53 224.00 375.00 C 224.62 381.47 222.64 390.10 224.00 396.00 C 225.36 401.90 220.80 411.43 224.00 416.00
C 245.33 416.00 266.67 416.00 288.00 416.00
C 291.38 411.17 286.39 400.02 288.00 394.00 C 289.61 387.98 287.27 379.56 288.00 373.00 C 288.73 366.44 287.67 358.80 288.00 352.00 C 288.33 345.20 287.85 337.91 288.00 331.00 C 288.15 324.09 287.93 316.97 288.00 310.00 C 288.07 303.03 287.97 296.00 288.00 289.00 C 288.03 282.00 287.99 275.04 288.00 268.00 C 288.01 260.96 287.99 254.10 288.00 247.00 C 288.01 239.90 288.00 232.10 288.00 225.00 C 288.00 217.90 288.00 211.04 288.00 204.00 C 288.00 196.96 288.00 190.02 288.00 183.00 C 288.00 175.98 288.00 169.01 288.00 162.00 C 288.00 154.99 288.00 148.01 288.00 141.00 C 288.00 134.00 288.00 127.00 288.00 120.00 C 288.00 113.00 288.00 106.01 288.00 99.00 C 288.00 91.99 288.01 85.01 288.00 78.00 C 287.99 70.99 288.02 62.91 288.00 56.00 C 287.98 49.09 288.05 41.61 288.00 35.00 C 287.95 28.39 288.90 22.48 284.25 17.75 C 279.59 13.02 273.35 14.06 267.00 14.00 C 260.65 13.94 252.38 14.00 246.00 14.00 C 239.62 14.00 233.09 12.92 228.25 17.25 C 223.41 21.58 223.56 27.87 224.00 34.00 C 224.44 40.13 224.37 47.20 217.00 48.00
M 259.00 35.00 
C 267.29 37.48 261.84 54.12 263.00 62.00 C 264.16 69.88 262.48 83.73 263.00 93.00 C 263.52 102.27 262.77 114.06 263.00 124.00 C 263.23 133.94 262.89 145.80 263.00 156.00 C 263.11 166.20 262.95 176.72 263.00 187.00 C 263.05 197.28 262.96 207.69 263.00 218.00 C 263.04 228.31 262.96 238.66 263.00 249.00 C 263.04 259.34 262.93 270.75 263.00 281.00 C 263.07 291.25 262.84 302.04 263.00 312.00 C 263.16 321.96 262.64 333.57 263.00 343.00 C 263.36 352.43 262.21 365.70 263.00 374.00 C 263.79 382.30 263.93 398.78 253.78 395.22 C 243.62 391.66 250.52 377.67 249.00 369.00 C 247.48 360.33 249.68 347.62 249.00 338.00 C 248.32 328.38 249.30 317.10 249.00 307.00 C 248.70 296.90 249.14 285.28 249.00 275.00 C 248.86 264.72 249.06 254.31 249.00 244.00 C 248.94 233.69 249.03 223.33 249.00 213.00 C 248.97 202.67 249.02 192.35 249.00 182.00 C 248.98 171.65 249.02 160.26 249.00 150.00 C 248.98 139.74 249.03 128.99 249.00 119.00 C 248.97 109.01 249.07 97.49 249.00 88.00 C 248.93 78.51 249.15 65.43 249.00 57.00 C 248.85 48.57 246.33 31.21 259.00 35.00 Z"/>
</g>
<g fill="None" fill-opacity="0.0" stroke="#7B3D7B" stroke-opacity="1.00" stroke-width="0.3"><path d="
M 401.00 114.00 
C 394.49 96.16 410.00 93.93 421.32 92.32 C 432.64 90.71 438.20 78.89 439.00 69.00 C 439.80 59.11 434.83 46.86 427.75 39.25 C 420.68 31.63 411.80 25.87 401.00 25.00 C 390.20 24.13 377.29 26.71 369.25 34.25 C 361.21 41.78 356.00 49.49 354.00 60.00
C 357.67 60.00 361.33 60.00 365.00 60.00
C 368.35 47.66 377.76 37.62 391.00 35.00 C 404.24 32.38 417.93 41.66 424.23 52.77 C 430.53 63.88 429.40 85.85 411.00 83.00 C 392.60 80.15 388.00 98.89 391.00 114.00
C 394.33 114.00 397.67 114.00 401.00 114.00 Z"/>
</g>
<g fill="None" fill-opacity="0.0" stroke="#000000" stroke-opacity="1.00" stroke-width="0.3"><path d="
M 259.00 35.00 
C 246.33 31.21 248.85 48.57 249.00 57.00 C 249.15 65.43 248.93 78.51 249.00 88.00 C 249.07 97.49 248.97 109.01 249.00 119.00 C 249.03 128.99 248.98 139.74 249.00 150.00 C 249.02 160.26 248.98 171.65 249.00 182.00 C 249.02 192.35 248.97 202.67 249.00 213.00 C 249.03 223.33 248.94 233.69 249.00 244.00 C 249.06 254.31 248.86 264.72 249.00 275.00 C 249.14 285.28 248.70 296.90 249.00 307.00 C 249.30 317.10 248.32 328.38 249.00 338.00 C 249.68 347.62 247.48 360.33 249.00 369.00 C 250.52 377.67 243.62 391.66 253.78 395.22 C 263.93 398.78 263.79 382.30 263.00 374.00 C 262.21 365.70 263.36 352.43 263.00 343.00 C 262.64 333.57 263.16 321.96 263.00 312.00 C 262.84 302.04 263.07 291.25 263.00 281.00 C 262.93 270.75 263.04 259.34 263.00 249.00 C 262.96 238.66 263.04 228.31 263.00 218.00 C 262.96 207.69 263.05 197.28 263.00 187.00 C 262.95 176.72 263.11 166.20 263.00 156.00 C 262.89 145.80 263.23 133.94 263.00 124.00 C 262.77 114.06 263.52 102.27 263.00 93.00 C 262.48 83.73 264.16 69.88 263.00 62.00 C 261.84 54.12 267.29 37.48 259.00 35.00 Z"/>
</g>
<g fill="None" fill-opacity="0.0" stroke="#FC515E" stroke-opacity="1.00" stroke-width="0.3"><path d="
M 43.00 175.00 
C 52.97 178.28 65.42 173.53 76.00 175.00 C 86.58 176.47 98.08 174.35 109.00 175.00 C 119.92 175.65 131.94 174.69 143.00 175.00 C 154.06 175.31 164.86 174.84 176.00 175.00 C 187.14 175.16 198.81 174.88 210.00 175.00
C 210.00 150.67 210.00 126.33 210.00 102.00
C 197.72 101.89 185.27 102.15 173.00 102.00 C 160.73 101.85 148.21 102.28 136.00 102.00 C 123.79 101.72 111.07 102.61 99.00 102.00 C 86.93 101.39 74.84 103.39 63.00 102.00 C 51.16 100.61 41.19 102.23 35.75 111.75 C 30.32 121.27 26.00 125.03 19.92 132.92 C 13.84 140.80 21.44 148.50 27.25 154.75 C 33.05 161.01 35.58 171.25 43.00 175.00
M 186.00 157.00 
C 173.18 160.89 157.02 157.41 143.00 158.00 C 128.98 158.59 112.07 158.75 98.00 158.00 C 83.93 157.25 66.83 161.06 54.00 157.00
C 49.13 155.46 36.91 143.16 40.33 136.33 C 43.75 129.50 49.17 119.28 59.00 120.00 C 68.83 120.72 83.53 119.67 94.00 120.00 C 104.47 120.33 118.68 119.84 129.00 120.00 C 139.32 120.16 154.72 119.90 164.00 120.00 C 173.28 120.10 190.73 117.16 191.97 127.03 C 193.22 136.89 195.32 154.17 186.00 157.00 Z"/>
</g>
<g fill="None" fill-opacity="0.0" stroke="#000000" stroke-opacity="1.00" stroke-width="0.3"><path d="
M 54.00 157.00 
C 68.03 159.51 83.71 156.29 98.00 157.00 C 112.29 157.71 127.70 157.63 142.00 157.00 C 156.30 156.37 171.93 159.38 186.00 157.00
C 195.32 154.17 193.22 136.89 191.97 127.03 C 190.73 117.16 173.28 120.10 164.00 120.00 C 154.72 119.90 139.32 120.16 129.00 120.00 C 118.68 119.84 104.47 120.33 94.00 120.00 C 83.53 119.67 68.83 120.72 59.00 120.00 C 49.17 119.28 43.75 129.50 40.33 136.33 C 36.91 143.16 49.13 155.46 54.00 157.00
M 178.00 134.00 
C 178.00 137.33 178.00 140.67 178.00 144.00
C 168.54 144.12 159.51 143.84 150.00 144.00 C 140.49 144.16 131.67 143.69 122.00 144.00 C 112.33 144.31 104.05 143.34 94.00 144.00 C 83.95 144.66 76.92 142.55 66.00 144.00 C 55.08 145.45 53.86 133.27 65.00 134.00 C 76.14 134.73 82.82 133.67 93.00 134.00 C 103.18 134.33 111.23 133.85 121.00 134.00 C 130.77 134.15 139.34 133.92 149.00 134.00 C 158.66 134.08 168.33 133.94 178.00 134.00 Z"/>
</g>
<g fill="None" fill-opacity="0.0" stroke="#C0305D" stroke-opacity="1.00" stroke-width="0.3"><path d="
M 178.00 134.00 
C 168.33 133.94 158.66 134.08 149.00 134.00 C 139.34 133.92 130.77 134.15 121.00 134.00 C 111.23 133.85 103.18 134.33 93.00 134.00 C 82.82 133.67 76.14 134.73 65.00 134.00 C 53.86 133.27 55.08 145.45 66.00 144.00 C 76.92 142.55 83.95 144.66 94.00 144.00 C 104.05 143.34 112.33 144.31 122.00 144.00 C 131.67 143.69 140.49 144.16 150.00 144.00 C 159.51 143.84 168.54 144.12 178.00 144.00
C 178.00 140.67 178.00 137.33 178.00 134.00 Z"/>
</g>
<g fill="None" fill-opacity="0.0" stroke="#000000" stroke-opacity="0.99" stroke-width="0.3"><path d="
M 412.00 134.00 
C 401.04 135.28 386.45 131.21 377.00 137.00
C 377.18 146.38 377.04 158.50 377.00 168.00
C 379.81 167.67 380.07 171.11 382.00 172.00
C 390.79 167.22 412.31 176.69 414.24 167.25 C 416.18 157.81 416.79 140.90 412.00 134.00
M 401.00 148.00 
C 401.00 151.00 401.00 154.00 401.00 157.00
C 397.67 157.00 394.33 157.00 391.00 157.00
C 391.00 154.00 391.00 151.00 391.00 148.00
C 394.33 148.00 397.67 148.00 401.00 148.00 Z"/>
</g>
<g fill="None" fill-opacity="0.0" stroke="#000000" stroke-opacity="0.01" stroke-width="0.3"><path d="
M 0.00 512.00 
L 132.00 512.00
C 129.77 510.59 127.72 509.13 126.00 507.00
C 129.65 477.25 121.00 451.17 137.77 432.77 C 154.54 414.37 180.68 415.44 210.00 417.00
C 210.00 341.00 210.00 265.00 210.00 189.00
C 152.42 189.67 94.16 187.67 37.00 190.00
C 22.63 173.00 11.78 157.50 0.00 140.00
L 0.00 512.00
M 131.00 289.00 
C 130.57 281.66 124.82 269.31 115.78 269.22 C 106.73 269.14 95.33 269.92 94.02 283.03 C 92.72 296.13 82.02 292.70 69.00 294.00 C 55.98 295.30 53.57 283.31 57.93 272.93 C 62.29 262.54 61.59 259.04 67.13 253.08 C 72.67 247.12 78.74 241.42 83.77 238.42 C 88.80 235.43 95.10 233.75 100.75 232.60 C 106.41 231.46 115.72 230.29 122.25 231.80 C 128.77 233.31 135.07 235.78 139.30 238.71 C 143.54 241.64 151.13 245.74 155.75 251.25 C 160.36 256.77 161.86 262.76 165.32 271.68 C 168.78 280.60 169.28 293.33 165.22 302.22 C 161.17 311.12 158.63 316.88 148.92 321.92 C 139.21 326.96 130.45 325.08 131.00 339.00 C 131.55 352.92 115.18 346.46 104.00 348.00 C 92.82 349.54 91.66 332.80 93.00 323.00 C 94.34 313.20 94.31 303.61 102.75 296.75 C 111.20 289.89 120.73 290.24 131.00 289.00
M 127.00 354.00 
C 135.12 361.68 129.18 377.58 131.00 389.00
C 121.61 392.59 102.48 392.38 93.00 389.00
C 94.56 378.01 89.34 362.33 97.00 354.00
C 106.42 355.66 117.60 355.65 127.00 354.00 Z"/>
</g>
<g fill="None" fill-opacity="0.0" stroke="#804080" stroke-opacity="1.00" stroke-width="0.3"><path d="
M 401.00 148.00 
C 397.67 148.00 394.33 148.00 391.00 148.00
C 391.00 151.00 391.00 154.00 391.00 157.00
C 394.33 157.00 397.67 157.00 401.00 157.00
C 401.00 154.00 401.00 151.00 401.00 148.00 Z"/>
</g>
<g fill="None" fill-opacity="0.0" stroke="#77262C" stroke-opacity="1.00" stroke-width="0.3"><path d="
M 186.00 157.00 
C 171.93 159.38 156.30 156.37 142.00 157.00 C 127.70 157.63 112.29 157.71 98.00 157.00 C 83.71 156.29 68.03 159.51 54.00 157.00
C 66.83 161.06 83.93 157.25 98.00 158.00 C 112.07 158.75 128.98 158.59 143.00 158.00 C 157.02 157.41 173.18 160.89 186.00 157.00 Z"/>
</g>
<g fill="None" fill-opacity="0.0" stroke="#872C33" stroke-opacity="1.00" stroke-width="0.3"><path d="
M 210.00 175.00 
C 198.81 174.88 187.14 175.16 176.00 175.00 C 164.86 174.84 154.06 175.31 143.00 175.00 C 131.94 174.69 119.92 175.65 109.00 175.00 C 98.08 174.35 86.58 176.47 76.00 175.00 C 65.42 173.53 52.97 178.28 43.00 175.00
C 48.65 177.86 57.28 175.34 64.00 176.00 C 70.72 176.66 78.15 175.72 85.00 176.00 C 91.85 176.28 99.12 175.91 106.00 176.00 C 112.88 176.09 120.17 176.05 127.00 176.00 C 133.83 175.95 141.33 176.22 148.00 176.00 C 154.67 175.78 162.71 176.53 169.00 176.00 C 175.29 175.47 184.57 177.20 190.00 176.00 C 195.43 174.80 207.10 179.14 210.00 175.00 Z"/>
</g>
<g fill="None" fill-opacity="0.0" stroke="#000000" stroke-opacity="0.98" stroke-width="0.3"><path d="
M 356.00 215.00 
C 356.88 223.84 366.05 221.98 373.00 222.00 C 379.95 222.02 388.65 223.89 390.00 215.00
C 390.06 203.15 369.90 212.31 360.00 208.00
C 359.17 210.77 355.78 212.75 356.00 215.00 Z"/>
</g>
<g fill="None" fill-opacity="0.0" stroke="#FD515E" stroke-opacity="1.00" stroke-width="0.3"><path d="
M 302.00 295.00 
C 313.01 294.87 323.99 295.17 335.00 295.00 C 346.01 294.83 356.98 295.33 368.00 295.00 C 379.02 294.67 391.06 295.68 402.00 295.00 C 412.94 294.32 424.32 296.55 435.00 295.00 C 445.68 293.45 458.87 298.33 469.00 295.00
C 477.19 290.86 478.70 280.18 485.70 273.70 C 492.69 267.21 497.57 259.12 490.75 251.25 C 483.94 243.37 480.27 238.86 474.75 229.25 C 469.24 219.63 453.47 222.61 444.00 222.00 C 434.53 221.39 413.95 226.89 413.00 215.00
C 405.33 215.00 397.67 215.00 390.00 215.00
C 388.65 223.89 379.95 222.02 373.00 222.00 C 366.05 221.98 356.88 223.84 356.00 215.00
C 349.37 217.16 340.81 213.38 334.00 215.00
C 331.23 228.24 311.98 219.47 302.00 222.00
C 302.22 228.04 301.71 235.06 302.00 241.00 C 302.29 246.94 301.41 253.35 302.00 259.00 C 302.59 264.65 300.72 271.86 302.00 277.00 C 303.28 282.14 299.17 290.96 302.00 295.00
M 458.00 277.00 
C 445.24 281.03 429.01 277.33 415.00 278.00 C 400.99 278.67 384.08 278.67 370.00 278.00 C 355.92 277.33 338.88 280.91 326.00 277.00
C 316.21 274.03 319.52 258.37 320.00 248.00 C 320.49 237.63 337.46 239.81 347.00 240.00 C 356.54 240.19 371.51 240.08 382.00 240.00 C 392.49 239.92 406.33 240.42 417.00 240.00 C 427.67 239.58 441.82 241.02 452.00 240.00 C 462.18 238.98 467.55 248.57 471.30 255.70 C 475.06 262.83 463.50 275.26 458.00 277.00 Z"/>
</g>
<g fill="None" fill-opacity="0.0" stroke="#000000" stroke-opacity="1.00" stroke-width="0.3"><path d="
M 131.00 289.00 
C 120.73 290.24 111.20 289.89 102.75 296.75 C 94.31 303.61 94.34 313.20 93.00 323.00 C 91.66 332.80 92.82 349.54 104.00 348.00 C 115.18 346.46 131.55 352.92 131.00 339.00 C 130.45 325.08 139.21 326.96 148.92 321.92 C 158.63 316.88 161.17 311.12 165.22 302.22 C 169.28 293.33 168.78 280.60 165.32 271.68 C 161.86 262.76 160.36 256.77 155.75 251.25 C 151.13 245.74 143.54 241.64 139.30 238.71 C 135.07 235.78 128.77 233.31 122.25 231.80 C 115.72 230.29 106.41 231.46 100.75 232.60 C 95.10 233.75 88.80 235.43 83.77 238.42 C 78.74 241.42 72.67 247.12 67.13 253.08 C 61.59 259.04 62.29 262.54 57.93 272.93 C 53.57 283.31 55.98 295.30 69.00 294.00 C 82.02 292.70 92.72 296.13 94.02 283.03 C 95.33 269.92 106.73 269.14 115.78 269.22 C 124.82 269.31 130.57 281.66 131.00 289.00
M 117.00 334.00 
C 113.67 334.00 110.33 334.00 107.00 334.00
C 103.43 317.72 109.13 301.72 127.00 304.00 C 144.87 306.28 146.74 284.65 140.68 273.32 C 134.62 261.99 120.31 253.61 107.00 256.00 C 93.69 258.39 83.25 267.61 81.00 281.00
C 77.33 281.00 73.67 281.00 70.00 281.00
C 71.34 270.78 76.74 261.79 84.75 254.75 C 92.77 247.71 105.29 243.85 116.00 245.00 C 126.71 246.15 135.74 251.24 143.25 258.75 C 150.76 266.26 154.59 278.94 154.00 289.00 C 153.41 299.06 148.77 311.38 136.92 312.92 C 125.08 314.47 110.97 316.10 117.00 334.00 Z"/>
</g>
<g fill="None" fill-opacity="0.0" stroke="#000000" stroke-opacity="1.00" stroke-width="0.3"><path d="
M 326.00 277.00 
C 340.07 279.38 355.70 276.37 370.00 277.00 C 384.30 277.63 399.71 277.71 414.00 277.00 C 428.29 276.29 443.97 279.51 458.00 277.00
C 463.50 275.26 475.06 262.83 471.30 255.70 C 467.55 248.57 462.18 238.98 452.00 240.00 C 441.82 241.02 427.67 239.58 417.00 240.00 C 406.33 240.42 392.49 239.92 382.00 240.00 C 371.51 240.08 356.54 240.19 347.00 240.00 C 337.46 239.81 320.49 237.63 320.00 248.00 C 319.52 258.37 316.21 274.03 326.00 277.00
M 334.00 264.00 
C 334.00 260.67 334.00 257.33 334.00 254.00
C 343.47 253.88 352.49 254.16 362.00 254.00 C 371.51 253.84 380.33 254.31 390.00 254.00 C 399.67 253.69 407.95 254.66 418.00 254.00 C 428.05 253.34 435.08 255.45 446.00 254.00 C 456.92 252.55 458.14 264.73 447.00 264.00 C 435.86 263.27 429.18 264.33 419.00 264.00 C 408.82 263.67 400.77 264.15 391.00 264.00 C 381.23 263.85 372.66 264.08 363.00 264.00 C 353.34 263.92 343.66 264.06 334.00 264.00 Z"/>
</g>
<g fill="None" fill-opacity="0.0" stroke="#7B3D7B" stroke-opacity="1.00" stroke-width="0.3"><path d="
M 117.00 334.00 
C 110.97 316.10 125.08 314.47 136.92 312.92 C 148.77 311.38 153.41 299.06 154.00 289.00 C 154.59 278.94 150.76 266.26 143.25 258.75 C 135.74 251.24 126.71 246.15 116.00 245.00 C 105.29 243.85 92.77 247.71 84.75 254.75 C 76.74 261.79 71.34 270.78 70.00 281.00
C 73.67 281.00 77.33 281.00 81.00 281.00
C 83.25 267.61 93.69 258.39 107.00 256.00 C 120.31 253.61 134.62 261.99 140.68 273.32 C 146.74 284.65 144.87 306.28 127.00 304.00 C 109.13 301.72 103.43 317.72 107.00 334.00
C 110.33 334.00 113.67 334.00 117.00 334.00 Z"/>
</g>
<g fill="None" fill-opacity="0.0" stroke="#C0305D" stroke-opacity="1.00" stroke-width="0.3"><path d="
M 334.00 264.00 
C 343.66 264.06 353.34 263.92 363.00 264.00 C 372.66 264.08 381.23 263.85 391.00 264.00 C 400.77 264.15 408.82 263.67 419.00 264.00 C 429.18 264.33 435.86 263.27 447.00 264.00 C 458.14 264.73 456.92 252.55 446.00 254.00 C 435.08 255.45 428.05 253.34 418.00 254.00 C 407.95 254.66 399.67 253.69 390.00 254.00 C 380.33 254.31 371.51 253.84 362.00 254.00 C 352.49 254.16 343.47 253.88 334.00 254.00
C 334.00 257.33 334.00 260.67 334.00 264.00 Z"/>
</g>
<g fill="None" fill-opacity="0.0" stroke="#000000" stroke-opacity="0.00" stroke-width="0.3"><path d="
M 380.00 512.00 
L 512.00 512.00
L 512.00 262.00
C 504.07 268.64 501.47 279.18 492.91 286.90 C 484.34 294.62 485.26 309.49 469.00 309.00 C 452.74 308.51 430.50 309.23 413.00 309.00 C 395.50 308.77 374.95 309.12 357.00 309.00 C 339.05 308.88 320.04 309.09 302.00 309.00
C 302.00 345.00 302.00 381.00 302.00 417.00
C 315.39 418.10 340.05 415.14 350.08 417.87 C 360.11 420.60 369.83 425.57 376.61 435.25 C 383.39 444.92 385.43 450.92 386.00 464.00 C 386.57 477.08 389.94 503.74 380.00 512.00 Z"/>
</g>
<g fill="None" fill-opacity="0.0" stroke="#77262C" stroke-opacity="1.00" stroke-width="0.3"><path d="
M 458.00 277.00 
C 443.97 279.51 428.29 276.29 414.00 277.00 C 399.71 277.71 384.30 277.63 370.00 277.00 C 355.70 276.37 340.07 279.38 326.00 277.00
C 338.88 280.91 355.92 277.33 370.00 278.00 C 384.08 278.67 400.99 278.67 415.00 278.00 C 429.01 277.33 445.24 281.03 458.00 277.00 Z"/>
</g>
<g fill="None" fill-opacity="0.0" stroke="#872C33" stroke-opacity="1.00" stroke-width="0.3"><path d="
M 469.00 295.00 
C 458.87 298.33 445.68 293.45 435.00 295.00 C 424.32 296.55 412.94 294.32 402.00 295.00 C 391.06 295.68 379.02 294.67 368.00 295.00 C 356.98 295.33 346.01 294.83 335.00 295.00 C 323.99 295.17 313.01 294.87 302.00 295.00
C 304.95 299.22 317.55 294.69 323.00 296.00 C 328.45 297.31 337.70 295.42 344.00 296.00 C 350.30 296.58 358.33 295.76 365.00 296.00 C 371.67 296.24 379.18 295.94 386.00 296.00 C 392.82 296.06 400.14 296.07 407.00 296.00 C 413.86 295.93 421.20 296.25 428.00 296.00 C 434.80 295.75 442.39 296.60 449.00 296.00 C 455.61 295.40 463.45 297.81 469.00 295.00 Z"/>
</g>
<g fill="None" fill-opacity="0.0" stroke="#000000" stroke-opacity="0.99" stroke-width="0.3"><path d="
M 127.00 354.00 
C 117.60 355.65 106.42 355.66 97.00 354.00
C 89.34 362.33 94.56 378.01 93.00 389.00
C 102.48 392.38 121.61 392.59 131.00 389.00
C 129.18 377.58 135.12 361.68 127.00 354.00
M 117.00 368.00 
C 117.00 371.33 117.00 374.67 117.00 378.00
C 113.67 378.00 110.33 378.00 107.00 378.00
C 107.00 374.67 107.00 371.33 107.00 368.00
C 110.33 368.00 113.67 368.00 117.00 368.00 Z"/>
</g>
<g fill="None" fill-opacity="0.0" stroke="#783C78" stroke-opacity="1.00" stroke-width="0.3"><path d="
M 117.00 368.00 
C 113.67 368.00 110.33 368.00 107.00 368.00
C 107.00 371.33 107.00 374.67 107.00 378.00
C 110.33 378.00 113.67 378.00 117.00 378.00
C 117.00 374.67 117.00 371.33 117.00 368.00 Z"/>
</g>
<g fill="None" fill-opacity="0.0" stroke="#877722" stroke-opacity="1.00" stroke-width="0.3"><path d="
M 288.00 416.00 
C 266.67 416.00 245.33 416.00 224.00 416.00
C 226.56 419.66 240.13 416.41 245.00 417.00 C 249.87 417.59 262.15 417.61 267.00 417.00 C 271.85 416.39 285.42 419.69 288.00 416.00 Z"/>
</g>
<g fill="None" fill-opacity="0.0" stroke="#316464" stroke-opacity="1.00" stroke-width="0.3"><path d="
M 170.00 431.00 
C 198.37 429.07 227.56 431.00 256.00 431.00 C 284.44 431.00 313.63 429.07 342.00 431.00
C 315.51 426.25 283.61 430.00 256.00 430.00 C 228.39 430.00 196.56 426.24 170.00 431.00 Z"/>
</g>
<g fill="None" fill-opacity="0.0" stroke="#6BD8D8" stroke-opacity="1.00" stroke-width="0.3"><path d="
M 141.00 460.00 
C 140.14 472.61 141.64 485.38 141.00 498.00
C 145.70 501.29 156.04 496.52 162.00 498.00 C 167.96 499.48 176.47 497.33 183.00 498.00 C 189.53 498.67 197.22 497.70 204.00 498.00 C 210.78 498.30 218.10 497.88 225.00 498.00 C 231.90 498.12 239.06 497.96 246.00 498.00 C 252.94 498.04 260.06 498.03 267.00 498.00 C 273.94 497.97 281.11 498.11 288.00 498.00 C 294.89 497.89 302.22 498.27 309.00 498.00 C 315.78 497.73 323.49 498.61 330.00 498.00 C 336.51 497.39 345.08 499.36 351.00 498.00 C 356.92 496.64 366.42 501.21 371.00 498.00
C 370.36 485.38 371.86 472.61 371.00 460.00
C 369.98 444.96 357.03 432.02 342.00 431.00
C 313.63 429.07 284.44 431.00 256.00 431.00 C 227.56 431.00 198.37 429.07 170.00 431.00
C 154.96 432.02 142.02 444.97 141.00 460.00 Z"/>
</g>
<g fill="None" fill-opacity="0.0" stroke="#356A6A" stroke-opacity="1.00" stroke-width="0.3"><path d="
M 141.00 498.00 
C 141.64 485.38 140.14 472.61 141.00 460.00
C 140.22 464.33 138.85 474.23 140.00 479.00 C 141.15 483.77 137.16 495.31 141.00 498.00 Z"/>
</g>
<g fill="None" fill-opacity="0.0" stroke="#356A6A" stroke-opacity="1.00" stroke-width="0.3"><path d="
M 371.00 498.00 
C 374.83 495.32 370.86 483.80 372.00 479.00 C 373.14 474.20 371.79 464.42 371.00 460.00
C 371.86 472.61 370.36 485.38 371.00 498.00 Z"/>
</g>
<g fill="#000000" fill-opacity="0.01" stroke="None">
<path d="
M 0.00 137.00 
C 12.31 119.66 22.76 105.40 36.00 88.00
C 93.50 90.33 152.08 88.33 210.00 89.00
C 209.26 83.90 211.13 78.41 210.00 74.00
C 213.14 74.36 213.66 68.50 217.00 71.00
C 217.00 63.33 217.00 55.67 217.00 48.00
C 213.40 48.39 213.30 45.76 210.00 45.00
C 207.38 21.63 213.33 1.91 236.00 0.00
L 0.00 0.00
L 0.00 137.00 Z"/>
</g>
<g fill="#000000" fill-opacity="1.00" stroke="None">
<path d="
M 217.00 48.00 
C 224.37 47.20 224.44 40.13 224.00 34.00 C 223.56 27.87 223.41 21.58 228.25 17.25 C 233.09 12.92 239.62 14.00 246.00 14.00 C 252.38 14.00 260.65 13.94 267.00 14.00 C 273.35 14.06 279.59 13.02 284.25 17.75 C 288.90 22.48 287.95 28.39 288.00 35.00 C 288.05 41.61 287.98 49.09 288.00 56.00 C 288.02 62.91 287.99 70.99 288.00 78.00 C 288.01 85.01 288.00 91.99 288.00 99.00 C 288.00 106.01 288.00 113.00 288.00 120.00 C 288.00 127.00 288.00 134.00 288.00 141.00 C 288.00 148.01 288.00 154.99 288.00 162.00 C 288.00 169.01 288.00 175.98 288.00 183.00 C 288.00 190.02 288.00 196.96 288.00 204.00 C 288.00 211.04 288.00 217.90 288.00 225.00 C 288.00 232.10 288.01 239.90 288.00 247.00 C 287.99 254.10 288.01 260.96 288.00 268.00 C 287.99 275.04 288.03 282.00 288.00 289.00 C 287.97 296.00 288.07 303.03 288.00 310.00 C 287.93 316.97 288.15 324.09 288.00 331.00 C 287.85 337.91 288.33 345.20 288.00 352.00 C 287.67 358.80 288.73 366.44 288.00 373.00 C 287.27 379.56 289.61 387.98 288.00 394.00 C 286.39 400.02 291.38 411.17 288.00 416.00
C 285.42 419.69 271.85 416.39 267.00 417.00 C 262.15 417.61 249.87 417.59 245.00 417.00 C 240.13 416.41 226.56 419.66 224.00 416.00
C 220.80 411.43 225.36 401.90 224.00 396.00 C 222.64 390.10 224.62 381.47 224.00 375.00 C 223.38 368.53 224.29 360.68 224.00 354.00 C 223.71 347.32 224.13 340.80 224.00 334.00 C 223.87 327.20 224.06 319.88 224.00 313.00 C 223.94 306.12 224.03 298.89 224.00 292.00 C 223.97 285.11 224.02 278.93 224.00 272.00 C 223.98 265.07 224.02 258.01 224.00 251.00 C 223.98 243.99 224.05 237.10 224.00 230.00 C 223.95 222.90 224.10 216.26 224.00 209.00 C 223.90 201.74 224.23 196.73 224.00 189.00 C 223.77 181.27 224.48 176.69 224.00 168.00 C 223.52 159.31 225.05 157.78 224.00 147.00 C 222.95 136.22 225.53 116.29 224.00 106.00 C 222.47 95.71 229.94 72.27 217.00 71.00
C 213.66 68.50 213.14 74.36 210.00 74.00
C 211.13 78.41 209.26 83.90 210.00 89.00
C 152.08 88.33 93.50 90.33 36.00 88.00
C 22.76 105.40 12.31 119.66 0.00 137.00
L 0.00 140.00
C 11.78 157.50 22.63 173.00 37.00 190.00
C 94.16 187.67 152.42 189.67 210.00 189.00
C 210.00 265.00 210.00 341.00 210.00 417.00
C 180.68 415.44 154.54 414.37 137.77 432.77 C 121.00 451.17 129.65 477.25 126.00 507.00
C 127.72 509.13 129.77 510.59 132.00 512.00
L 380.00 512.00
C 389.94 503.74 386.57 477.08 386.00 464.00 C 385.43 450.92 383.39 444.92 376.61 435.25 C 369.83 425.57 360.11 420.60 350.08 417.87 C 340.05 415.14 315.39 418.10 302.00 417.00
C 302.00 381.00 302.00 345.00 302.00 309.00
C 320.04 309.09 339.05 308.88 357.00 309.00 C 374.95 309.12 395.50 308.77 413.00 309.00 C 430.50 309.23 452.74 308.51 469.00 309.00 C 485.26 309.49 484.34 294.62 492.91 286.90 C 501.47 279.18 504.07 268.64 512.00 262.00
L 512.00 257.00
C 500.05 239.65 489.54 225.56 476.00 208.00
C 465.51 208.65 449.84 207.22 439.00 208.00 C 428.16 208.78 414.66 204.15 413.00 215.00
C 413.95 226.89 434.53 221.39 444.00 222.00 C 453.47 222.61 469.24 219.63 474.75 229.25 C 480.27 238.86 483.94 243.37 490.75 251.25 C 497.57 259.12 492.69 267.21 485.70 273.70 C 478.70 280.18 477.19 290.86 469.00 295.00
C 463.45 297.81 455.61 295.40 449.00 296.00 C 442.39 296.60 434.80 295.75 428.00 296.00 C 421.20 296.25 413.86 295.93 407.00 296.00 C 400.14 296.07 392.82 296.06 386.00 296.00 C 379.18 295.94 371.67 296.24 365.00 296.00 C 358.33 295.76 350.30 296.58 344.00 296.00 C 337.70 295.42 328.45 297.31 323.00 296.00 C 317.55 294.69 304.95 299.22 302.00 295.00
C 299.17 290.96 303.28 282.14 302.00 277.00 C 300.72 271.86 302.59 264.65 302.00 259.00 C 301.41 253.35 302.29 246.94 302.00 241.00 C 301.71 235.06 302.22 228.04 302.00 222.00
C 311.98 219.47 331.23 228.24 334.00 215.00
C 334.13 203.37 312.24 211.29 302.00 209.00
C 302.45 181.92 301.40 151.77 302.00 125.00 C 302.60 98.23 300.86 65.56 302.00 40.00 C 303.14 14.44 297.64 5.39 277.00 0.00
L 236.00 0.00
C 213.33 1.91 207.38 21.63 210.00 45.00
C 213.30 45.76 213.40 48.39 217.00 48.00
M 210.00 175.00 
C 207.10 179.14 195.43 174.80 190.00 176.00 C 184.57 177.20 175.29 175.47 169.00 176.00 C 162.71 176.53 154.67 175.78 148.00 176.00 C 141.33 176.22 133.83 175.95 127.00 176.00 C 120.17 176.05 112.88 176.09 106.00 176.00 C 99.12 175.91 91.85 176.28 85.00 176.00 C 78.15 175.72 70.72 176.66 64.00 176.00 C 57.28 175.34 48.65 177.86 43.00 175.00
C 35.58 171.25 33.05 161.01 27.25 154.75 C 21.44 148.50 13.84 140.80 19.92 132.92 C 26.00 125.03 30.32 121.27 35.75 111.75 C 41.19 102.23 51.16 100.61 63.00 102.00 C 74.84 103.39 86.93 101.39 99.00 102.00 C 111.07 102.61 123.79 101.72 136.00 102.00 C 148.21 102.28 160.73 101.85 173.00 102.00 C 185.27 102.15 197.72 101.89 210.00 102.00
C 210.00 126.33 210.00 150.67 210.00 175.00
M 342.00 431.00 
C 357.03 432.02 369.98 444.96 371.00 460.00
C 371.79 464.42 373.14 474.20 372.00 479.00 C 370.86 483.80 374.83 495.32 371.00 498.00
C 366.42 501.21 356.92 496.64 351.00 498.00 C 345.08 499.36 336.51 497.39 330.00 498.00 C 323.49 498.61 315.78 497.73 309.00 498.00 C 302.22 498.27 294.89 497.89 288.00 498.00 C 281.11 498.11 273.94 497.97 267.00 498.00 C 260.06 498.03 252.94 498.04 246.00 498.00 C 239.06 497.96 231.90 498.12 225.00 498.00 C 218.10 497.88 210.78 498.30 204.00 498.00 C 197.22 497.70 189.53 498.67 183.00 498.00 C 176.47 497.33 167.96 499.48 162.00 498.00 C 156.04 496.52 145.70 501.29 141.00 498.00
C 137.16 495.31 141.15 483.77 140.00 479.00 C 138.85 474.23 140.22 464.33 141.00 460.00
C 142.02 444.97 154.96 432.02 170.00 431.00
C 196.56 426.24 228.39 430.00 256.00 430.00 C 283.61 430.00 315.51 426.25 342.00 431.00 Z"/>
</g>
<g fill="#000000" fill-opacity="0.01" stroke="None">
<path d="
M 334.00 215.00 
C 340.81 213.38 349.37 217.16 356.00 215.00
C 355.78 212.75 359.17 210.77 360.00 208.00
C 369.90 212.31 390.06 203.15 390.00 215.00
C 397.67 215.00 405.33 215.00 413.00 215.00
C 414.66 204.15 428.16 208.78 439.00 208.00 C 449.84 207.22 465.51 208.65 476.00 208.00
C 489.54 225.56 500.05 239.65 512.00 257.00
L 512.00 0.00
L 277.00 0.00
C 297.64 5.39 303.14 14.44 302.00 40.00 C 300.86 65.56 302.60 98.23 302.00 125.00 C 301.40 151.77 302.45 181.92 302.00 209.00
C 312.24 211.29 334.13 203.37 334.00 215.00
M 415.00 107.00 
C 418.36 116.21 413.42 129.23 404.00 127.00 C 394.58 124.77 380.75 131.55 377.23 121.77 C 373.71 111.99 378.05 100.97 378.00 92.00 C 377.94 83.02 385.76 78.70 391.25 73.25 C 396.73 67.79 414.86 73.72 414.67 65.33 C 414.48 56.93 407.02 51.72 400.75 49.80 C 394.48 47.89 387.13 49.91 382.25 55.25 C 377.37 60.59 378.47 74.42 369.98 73.98 C 361.48 73.53 346.28 77.06 341.25 70.75 C 336.22 64.44 342.17 51.56 343.19 46.75 C 344.21 41.93 346.89 37.39 350.39 33.25 C 353.90 29.10 361.52 22.18 365.77 19.43 C 370.02 16.68 373.71 14.37 379.90 12.88 C 386.09 11.39 390.55 9.80 400.67 10.67 C 410.79 11.54 421.82 16.34 429.75 21.39 C 437.68 26.45 438.91 32.03 443.59 36.75 C 448.26 41.48 447.30 44.58 449.79 51.23 C 452.27 57.88 453.41 71.69 451.01 79.01 C 448.61 86.32 444.32 92.94 438.25 98.25 C 432.18 103.56 423.23 107.02 415.00 107.00
M 412.00 134.00 
C 416.79 140.90 416.18 157.81 414.24 167.25 C 412.31 176.69 390.79 167.22 382.00 172.00
C 380.07 171.11 379.81 167.67 377.00 168.00
C 377.04 158.50 377.18 146.38 377.00 137.00
C 386.45 131.21 401.04 135.28 412.00 134.00 Z"/>
</g>
<g fill="#000000" fill-opacity="0.99" stroke="None">
<path d="
M 415.00 107.00 
C 423.23 107.02 432.18 103.56 438.25 98.25 C 444.32 92.94 448.61 86.32 451.01 79.01 C 453.41 71.69 452.27 57.88 449.79 51.23 C 447.30 44.58 448.26 41.48 443.59 36.75 C 438.91 32.03 437.68 26.45 429.75 21.39 C 421.82 16.34 410.79 11.54 400.67 10.67 C 390.55 9.80 386.09 11.39 379.90 12.88 C 373.71 14.37 370.02 16.68 365.77 19.43 C 361.52 22.18 353.90 29.10 350.39 33.25 C 346.89 37.39 344.21 41.93 343.19 46.75 C 342.17 51.56 336.22 64.44 341.25 70.75 C 346.28 77.06 361.48 73.53 369.98 73.98 C 378.47 74.42 377.37 60.59 382.25 55.25 C 387.13 49.91 394.48 47.89 400.75 49.80 C 407.02 51.72 414.48 56.93 414.67 65.33 C 414.86 73.72 396.73 67.79 391.25 73.25 C 385.76 78.70 377.94 83.02 378.00 92.00 C 378.05 100.97 373.71 111.99 377.23 121.77 C 380.75 131.55 394.58 124.77 404.00 127.00 C 413.42 129.23 418.36 116.21 415.00 107.00
M 401.00 114.00 
C 397.67 114.00 394.33 114.00 391.00 114.00
C 388.00 98.89 392.60 80.15 411.00 83.00 C 429.40 85.85 430.53 63.88 424.23 52.77 C 417.93 41.66 404.24 32.38 391.00 35.00 C 377.76 37.62 368.35 47.66 365.00 60.00
C 361.33 60.00 357.67 60.00 354.00 60.00
C 356.00 49.49 361.21 41.78 369.25 34.25 C 377.29 26.71 390.20 24.13 401.00 25.00 C 411.80 25.87 420.68 31.63 427.75 39.25 C 434.83 46.86 439.80 59.11 439.00 69.00 C 438.20 78.89 432.64 90.71 421.32 92.32 C 410.00 93.93 394.49 96.16 401.00 114.00 Z"/>
</g>
<g fill="#FEDE3F" fill-opacity="1.00" stroke="None">
<path d="
M 217.00 48.00 
C 217.00 55.67 217.00 63.33 217.00 71.00
C 229.94 72.27 222.47 95.71 224.00 106.00 C 225.53 116.29 222.95 136.22 224.00 147.00 C 225.05 157.78 223.52 159.31 224.00 168.00 C 224.48 176.69 223.77 181.27 224.00 189.00 C 224.23 196.73 223.90 201.74 224.00 209.00 C 224.10 216.26 223.95 222.90 224.00 230.00 C 224.05 237.10 223.98 243.99 224.00 251.00 C 224.02 258.01 223.98 265.07 224.00 272.00 C 224.02 278.93 223.97 285.11 224.00 292.00 C 224.03 298.89 223.94 306.12 224.00 313.00 C 224.06 319.88 223.87 327.20 224.00 334.00 C 224.13 340.80 223.71 347.32 224.00 354.00 C 224.29 360.68 223.38 368.53 224.00 375.00 C 224.62 381.47 222.64 390.10 224.00 396.00 C 225.36 401.90 220.80 411.43 224.00 416.00
C 245.33 416.00 266.67 416.00 288.00 416.00
C 291.38 411.17 286.39 400.02 288.00 394.00 C 289.61 387.98 287.27 379.56 288.00 373.00 C 288.73 366.44 287.67 358.80 288.00 352.00 C 288.33 345.20 287.85 337.91 288.00 331.00 C 288.15 324.09 287.93 316.97 288.00 310.00 C 288.07 303.03 287.97 296.00 288.00 289.00 C 288.03 282.00 287.99 275.04 288.00 268.00 C 288.01 260.96 287.99 254.10 288.00 247.00 C 288.01 239.90 288.00 232.10 288.00 225.00 C 288.00 217.90 288.00 211.04 288.00 204.00 C 288.00 196.96 288.00 190.02 288.00 183.00 C 288.00 175.98 288.00 169.01 288.00 162.00 C 288.00 154.99 288.00 148.01 288.00 141.00 C 288.00 134.00 288.00 127.00 288.00 120.00 C 288.00 113.00 288.00 106.01 288.00 99.00 C 288.00 91.99 288.01 85.01 288.00 78.00 C 287.99 70.99 288.02 62.91 288.00 56.00 C 287.98 49.09 288.05 41.61 288.00 35.00 C 287.95 28.39 288.90 22.48 284.25 17.75 C 279.59 13.02 273.35 14.06 267.00 14.00 C 260.65 13.94 252.38 14.00 246.00 14.00 C 239.62 14.00 233.09 12.92 228.25 17.25 C 223.41 21.58 223.56 27.87 224.00 34.00 C 224.44 40.13 224.37 47.20 217.00 48.00
M 259.00 35.00 
C 267.29 37.48 261.84 54.12 263.00 62.00 C 264.16 69.88 262.48 83.73 263.00 93.00 C 263.52 102.27 262.77 114.06 263.00 124.00 C 263.23 133.94 262.89 145.80 263.00 156.00 C 263.11 166.20 262.95 176.72 263.00 187.00 C 263.05 197.28 262.96 207.69 263.00 218.00 C 263.04 228.31 262.96 238.66 263.00 249.00 C 263.04 259.34 262.93 270.75 263.00 281.00 C 263.07 291.25 262.84 302.04 263.00 312.00 C 263.16 321.96 262.64 333.57 263.00 343.00 C 263.36 352.43 262.21 365.70 263.00 374.00 C 263.79 382.30 263.93 398.78 253.78 395.22 C 243.62 391.66 250.52 377.67 249.00 369.00 C 247.48 360.33 249.68 347.62 249.00 338.00 C 248.32 328.38 249.30 317.10 249.00 307.00 C 248.70 296.90 249.14 285.28 249.00 275.00 C 248.86 264.72 249.06 254.31 249.00 244.00 C 248.94 233.69 249.03 223.33 249.00 213.00 C 248.97 202.67 249.02 192.35 249.00 182.00 C 248.98 171.65 249.02 160.26 249.00 150.00 C 248.98 139.74 249.03 128.99 249.00 119.00 C 248.97 109.01 249.07 97.49 249.00 88.00 C 248.93 78.51 249.15 65.43 249.00 57.00 C 248.85 48.57 246.33 31.21 259.00 35.00 Z"/>
</g>
<g fill="#7B3D7B" fill-opacity="1.00" stroke="None">
<path d="
M 401.00 114.00 
C 394.49 96.16 410.00 93.93 421.32 92.32 C 432.64 90.71 438.20 78.89 439.00 69.00 C 439.80 59.11 434.83 46.86 427.75 39.25 C 420.68 31.63 411.80 25.87 401.00 25.00 C 390.20 24.13 377.29 26.71 369.25 34.25 C 361.21 41.78 356.00 49.49 354.00 60.00
C 357.67 60.00 361.33 60.00 365.00 60.00
C 368.35 47.66 377.76 37.62 391.00 35.00 C 404.24 32.38 417.93 41.66 424.23 52.77 C 430.53 63.88 429.40 85.85 411.00 83.00 C 392.60 80.15 388.00 98.89 391.00 114.00
C 394.33 114.00 397.67 114.00 401.00 114.00 Z"/>
</g>
<g fill="#000000" fill-opacity="1.00" stroke="None">
<path d="
M 259.00 35.00 
C 246.33 31.21 248.85 48.57 249.00 57.00 C 249.15 65.43 248.93 78.51 249.00 88.00 C 249.07 97.49 248.97 109.01 249.00 119.00 C 249.03 128.99 248.98 139.74 249.00 150.00 C 249.02 160.26 248.98 171.65 249.00 182.00 C 249.02 192.35 248.97 202.67 249.00 213.00 C 249.03 223.33 248.94 233.69 249.00 244.00 C 249.06 254.31 248.86 264.72 249.00 275.00 C 249.14 285.28 248.70 296.90 249.00 307.00 C 249.30 317.10 248.32 328.38 249.00 338.00 C 249.68 347.62 247.48 360.33 249.00 369.00 C 250.52 377.67 243.62 391.66 253.78 395.22 C 263.93 398.78 263.79 382.30 263.00 374.00 C 262.21 365.70 263.36 352.43 263.00 343.00 C 262.64 333.57 263.16 321.96 263.00 312.00 C 262.84 302.04 263.07 291.25 263.00 281.00 C 262.93 270.75 263.04 259.34 263.00 249.00 C 262.96 238.66 263.04 228.31 263.00 218.00 C 262.96 207.69 263.05 197.28 263.00 187.00 C 262.95 176.72 263.11 166.20 263.00 156.00 C 262.89 145.80 263.23 133.94 263.00 124.00 C 262.77 114.06 263.52 102.27 263.00 93.00 C 262.48 83.73 264.16 69.88 263.00 62.00 C 261.84 54.12 267.29 37.48 259.00 35.00 Z"/>
</g>
<g fill="#FC515E" fill-opacity="1.00" stroke="None">
<path d="
M 43.00 175.00 
C 52.97 178.28 65.42 173.53 76.00 175.00 C 86.58 176.47 98.08 174.35 109.00 175.00 C 119.92 175.65 131.94 174.69 143.00 175.00 C 154.06 175.31 164.86 174.84 176.00 175.00 C 187.14 175.16 198.81 174.88 210.00 175.00
C 210.00 150.67 210.00 126.33 210.00 102.00
C 197.72 101.89 185.27 102.15 173.00 102.00 C 160.73 101.85 148.21 102.28 136.00 102.00 C 123.79 101.72 111.07 102.61 99.00 102.00 C 86.93 101.39 74.84 103.39 63.00 102.00 C 51.16 100.61 41.19 102.23 35.75 111.75 C 30.32 121.27 26.00 125.03 19.92 132.92 C 13.84 140.80 21.44 148.50 27.25 154.75 C 33.05 161.01 35.58 171.25 43.00 175.00
M 186.00 157.00 
C 173.18 160.89 157.02 157.41 143.00 158.00 C 128.98 158.59 112.07 158.75 98.00 158.00 C 83.93 157.25 66.83 161.06 54.00 157.00
C 49.13 155.46 36.91 143.16 40.33 136.33 C 43.75 129.50 49.17 119.28 59.00 120.00 C 68.83 120.72 83.53 119.67 94.00 120.00 C 104.47 120.33 118.68 119.84 129.00 120.00 C 139.32 120.16 154.72 119.90 164.00 120.00 C 173.28 120.10 190.73 117.16 191.97 127.03 C 193.22 136.89 195.32 154.17 186.00 157.00 Z"/>
</g>
<g fill="#000000" fill-opacity="1.00" stroke="None">
<path d="
M 54.00 157.00 
C 68.03 159.51 83.71 156.29 98.00 157.00 C 112.29 157.71 127.70 157.63 142.00 157.00 C 156.30 156.37 171.93 159.38 186.00 157.00
C 195.32 154.17 193.22 136.89 191.97 127.03 C 190.73 117.16 173.28 120.10 164.00 120.00 C 154.72 119.90 139.32 120.16 129.00 120.00 C 118.68 119.84 104.47 120.33 94.00 120.00 C 83.53 119.67 68.83 120.72 59.00 120.00 C 49.17 119.28 43.75 129.50 40.33 136.33 C 36.91 143.16 49.13 155.46 54.00 157.00
M 178.00 134.00 
C 178.00 137.33 178.00 140.67 178.00 144.00
C 168.54 144.12 159.51 143.84 150.00 144.00 C 140.49 144.16 131.67 143.69 122.00 144.00 C 112.33 144.31 104.05 143.34 94.00 144.00 C 83.95 144.66 76.92 142.55 66.00 144.00 C 55.08 145.45 53.86 133.27 65.00 134.00 C 76.14 134.73 82.82 133.67 93.00 134.00 C 103.18 134.33 111.23 133.85 121.00 134.00 C 130.77 134.15 139.34 133.92 149.00 134.00 C 158.66 134.08 168.33 133.94 178.00 134.00 Z"/>
</g>
<g fill="#C0305D" fill-opacity="1.00" stroke="None">
<path d="
M 178.00 134.00 
C 168.33 133.94 158.66 134.08 149.00 134.00 C 139.34 133.92 130.77 134.15 121.00 134.00 C 111.23 133.85 103.18 134.33 93.00 134.00 C 82.82 133.67 76.14 134.73 65.00 134.00 C 53.86 133.27 55.08 145.45 66.00 144.00 C 76.92 142.55 83.95 144.66 94.00 144.00 C 104.05 143.34 112.33 144.31 122.00 144.00 C 131.67 143.69 140.49 144.16 150.00 144.00 C 159.51 143.84 168.54 144.12 178.00 144.00
C 178.00 140.67 178.00 137.33 178.00 134.00 Z"/>
</g>
<g fill="#000000" fill-opacity="0.99" stroke="None">
<path d="
M 412.00 134.00 
C 401.04 135.28 386.45 131.21 377.00 137.00
C 377.18 146.38 377.04 158.50 377.00 168.00
C 379.81 167.67 380.07 171.11 382.00 172.00
C 390.79 167.22 412.31 176.69 414.24 167.25 C 416.18 157.81 416.79 140.90 412.00 134.00
M 401.00 148.00 
C 401.00 151.00 401.00 154.00 401.00 157.00
C 397.67 157.00 394.33 157.00 391.00 157.00
C 391.00 154.00 391.00 151.00 391.00 148.00
C 394.33 148.00 397.67 148.00 401.00 148.00 Z"/>
</g>
<g fill="#000000" fill-opacity="0.01" stroke="None">
<path d="
M 0.00 512.00 
L 132.00 512.00
C 129.77 510.59 127.72 509.13 126.00 507.00
C 129.65 477.25 121.00 451.17 137.77 432.77 C 154.54 414.37 180.68 415.44 210.00 417.00
C 210.00 341.00 210.00 265.00 210.00 189.00
C 152.42 189.67 94.16 187.67 37.00 190.00
C 22.63 173.00 11.78 157.50 0.00 140.00
L 0.00 512.00
M 131.00 289.00 
C 130.57 281.66 124.82 269.31 115.78 269.22 C 106.73 269.14 95.33 269.92 94.02 283.03 C 92.72 296.13 82.02 292.70 69.00 294.00 C 55.98 295.30 53.57 283.31 57.93 272.93 C 62.29 262.54 61.59 259.04 67.13 253.08 C 72.67 247.12 78.74 241.42 83.77 238.42 C 88.80 235.43 95.10 233.75 100.75 232.60 C 106.41 231.46 115.72 230.29 122.25 231.80 C 128.77 233.31 135.07 235.78 139.30 238.71 C 143.54 241.64 151.13 245.74 155.75 251.25 C 160.36 256.77 161.86 262.76 165.32 271.68 C 168.78 280.60 169.28 293.33 165.22 302.22 C 161.17 311.12 158.63 316.88 148.92 321.92 C 139.21 326.96 130.45 325.08 131.00 339.00 C 131.55 352.92 115.18 346.46 104.00 348.00 C 92.82 349.54 91.66 332.80 93.00 323.00 C 94.34 313.20 94.31 303.61 102.75 296.75 C 111.20 289.89 120.73 290.24 131.00 289.00
M 127.00 354.00 
C 135.12 361.68 129.18 377.58 131.00 389.00
C 121.61 392.59 102.48 392.38 93.00 389.00
C 94.56 378.01 89.34 362.33 97.00 354.00
C 106.42 355.66 117.60 355.65 127.00 354.00 Z"/>
</g>
<g fill="#804080" fill-opacity="1.00" stroke="None">
<path d="
M 401.00 148.00 
C 397.67 148.00 394.33 148.00 391.00 148.00
C 391.00 151.00 391.00 154.00 391.00 157.00
C 394.33 157.00 397.67 157.00 401.00 157.00
C 401.00 154.00 401.00 151.00 401.00 148.00 Z"/>
</g>
<g fill="#77262C" fill-opacity="1.00" stroke="None">
<path d="
M 186.00 157.00 
C 171.93 159.38 156.30 156.37 142.00 157.00 C 127.70 157.63 112.29 157.71 98.00 157.00 C 83.71 156.29 68.03 159.51 54.00 157.00
C 66.83 161.06 83.93 157.25 98.00 158.00 C 112.07 158.75 128.98 158.59 143.00 158.00 C 157.02 157.41 173.18 160.89 186.00 157.00 Z"/>
</g>
<g fill="#872C33" fill-opacity="1.00" stroke="None">
<path d="
M 210.00 175.00 
C 198.81 174.88 187.14 175.16 176.00 175.00 C 164.86 174.84 154.06 175.31 143.00 175.00 C 131.94 174.69 119.92 175.65 109.00 175.00 C 98.08 174.35 86.58 176.47 76.00 175.00 C 65.42 173.53 52.97 178.28 43.00 175.00
C 48.65 177.86 57.28 175.34 64.00 176.00 C 70.72 176.66 78.15 175.72 85.00 176.00 C 91.85 176.28 99.12 175.91 106.00 176.00 C 112.88 176.09 120.17 176.05 127.00 176.00 C 133.83 175.95 141.33 176.22 148.00 176.00 C 154.67 175.78 162.71 176.53 169.00 176.00 C 175.29 175.47 184.57 177.20 190.00 176.00 C 195.43 174.80 207.10 179.14 210.00 175.00 Z"/>
</g>
<g fill="#000000" fill-opacity="0.98" stroke="None">
<path d="
M 356.00 215.00 
C 356.88 223.84 366.05 221.98 373.00 222.00 C 379.95 222.02 388.65 223.89 390.00 215.00
C 390.06 203.15 369.90 212.31 360.00 208.00
C 359.17 210.77 355.78 212.75 356.00 215.00 Z"/>
</g>
<g fill="#FD515E" fill-opacity="1.00" stroke="None">
<path d="
M 302.00 295.00 
C 313.01 294.87 323.99 295.17 335.00 295.00 C 346.01 294.83 356.98 295.33 368.00 295.00 C 379.02 294.67 391.06 295.68 402.00 295.00 C 412.94 294.32 424.32 296.55 435.00 295.00 C 445.68 293.45 458.87 298.33 469.00 295.00
C 477.19 290.86 478.70 280.18 485.70 273.70 C 492.69 267.21 497.57 259.12 490.75 251.25 C 483.94 243.37 480.27 238.86 474.75 229.25 C 469.24 219.63 453.47 222.61 444.00 222.00 C 434.53 221.39 413.95 226.89 413.00 215.00
C 405.33 215.00 397.67 215.00 390.00 215.00
C 388.65 223.89 379.95 222.02 373.00 222.00 C 366.05 221.98 356.88 223.84 356.00 215.00
C 349.37 217.16 340.81 213.38 334.00 215.00
C 331.23 228.24 311.98 219.47 302.00 222.00
C 302.22 228.04 301.71 235.06 302.00 241.00 C 302.29 246.94 301.41 253.35 302.00 259.00 C 302.59 264.65 300.72 271.86 302.00 277.00 C 303.28 282.14 299.17 290.96 302.00 295.00
M 458.00 277.00 
C 445.24 281.03 429.01 277.33 415.00 278.00 C 400.99 278.67 384.08 278.67 370.00 278.00 C 355.92 277.33 338.88 280.91 326.00 277.00
C 316.21 274.03 319.52 258.37 320.00 248.00 C 320.49 237.63 337.46 239.81 347.00 240.00 C 356.54 240.19 371.51 240.08 382.00 240.00 C 392.49 239.92 406.33 240.42 417.00 240.00 C 427.67 239.58 441.82 241.02 452.00 240.00 C 462.18 238.98 467.55 248.57 471.30 255.70 C 475.06 262.83 463.50 275.26 458.00 277.00 Z"/>
</g>
<g fill="#000000" fill-opacity="1.00" stroke="None">
<path d="
M 131.00 289.00 
C 120.73 290.24 111.20 289.89 102.75 296.75 C 94.31 303.61 94.34 313.20 93.00 323.00 C 91.66 332.80 92.82 349.54 104.00 348.00 C 115.18 346.46 131.55 352.92 131.00 339.00 C 130.45 325.08 139.21 326.96 148.92 321.92 C 158.63 316.88 161.17 311.12 165.22 302.22 C 169.28 293.33 168.78 280.60 165.32 271.68 C 161.86 262.76 160.36 256.77 155.75 251.25 C 151.13 245.74 143.54 241.64 139.30 238.71 C 135.07 235.78 128.77 233.31 122.25 231.80 C 115.72 230.29 106.41 231.46 100.75 232.60 C 95.10 233.75 88.80 235.43 83.77 238.42 C 78.74 241.42 72.67 247.12 67.13 253.08 C 61.59 259.04 62.29 262.54 57.93 272.93 C 53.57 283.31 55.98 295.30 69.00 294.00 C 82.02 292.70 92.72 296.13 94.02 283.03 C 95.33 269.92 106.73 269.14 115.78 269.22 C 124.82 269.31 130.57 281.66 131.00 289.00
M 117.00 334.00 
C 113.67 334.00 110.33 334.00 107.00 334.00
C 103.43 317.72 109.13 301.72 127.00 304.00 C 144.87 306.28 146.74 284.65 140.68 273.32 C 134.62 261.99 120.31 253.61 107.00 256.00 C 93.69 258.39 83.25 267.61 81.00 281.00
C 77.33 281.00 73.67 281.00 70.00 281.00
C 71.34 270.78 76.74 261.79 84.75 254.75 C 92.77 247.71 105.29 243.85 116.00 245.00 C 126.71 246.15 135.74 251.24 143.25 258.75 C 150.76 266.26 154.59 278.94 154.00 289.00 C 153.41 299.06 148.77 311.38 136.92 312.92 C 125.08 314.47 110.97 316.10 117.00 334.00 Z"/>
</g>
<g fill="#000000" fill-opacity="1.00" stroke="None">
<path d="
M 326.00 277.00 
C 340.07 279.38 355.70 276.37 370.00 277.00 C 384.30 277.63 399.71 277.71 414.00 277.00 C 428.29 276.29 443.97 279.51 458.00 277.00
C 463.50 275.26 475.06 262.83 471.30 255.70 C 467.55 248.57 462.18 238.98 452.00 240.00 C 441.82 241.02 427.67 239.58 417.00 240.00 C 406.33 240.42 392.49 239.92 382.00 240.00 C 371.51 240.08 356.54 240.19 347.00 240.00 C 337.46 239.81 320.49 237.63 320.00 248.00 C 319.52 258.37 316.21 274.03 326.00 277.00
M 334.00 264.00 
C 334.00 260.67 334.00 257.33 334.00 254.00
C 343.47 253.88 352.49 254.16 362.00 254.00 C 371.51 253.84 380.33 254.31 390.00 254.00 C 399.67 253.69 407.95 254.66 418.00 254.00 C 428.05 253.34 435.08 255.45 446.00 254.00 C 456.92 252.55 458.14 264.73 447.00 264.00 C 435.86 263.27 429.18 264.33 419.00 264.00 C 408.82 263.67 400.77 264.15 391.00 264.00 C 381.23 263.85 372.66 264.08 363.00 264.00 C 353.34 263.92 343.66 264.06 334.00 264.00 Z"/>
</g>
<g fill="#7B3D7B" fill-opacity="1.00" stroke="None">
<path d="
M 117.00 334.00 
C 110.97 316.10 125.08 314.47 136.92 312.92 C 148.77 311.38 153.41 299.06 154.00 289.00 C 154.59 278.94 150.76 266.26 143.25 258.75 C 135.74 251.24 126.71 246.15 116.00 245.00 C 105.29 243.85 92.77 247.71 84.75 254.75 C 76.74 261.79 71.34 270.78 70.00 281.00
C 73.67 281.00 77.33 281.00 81.00 281.00
C 83.25 267.61 93.69 258.39 107.00 256.00 C 120.31 253.61 134.62 261.99 140.68 273.32 C 146.74 284.65 144.87 306.28 127.00 304.00 C 109.13 301.72 103.43 317.72 107.00 334.00
C 110.33 334.00 113.67 334.00 117.00 334.00 Z"/>
</g>
<g fill="#C0305D" fill-opacity="1.00" stroke="None">
<path d="
M 334.00 264.00 
C 343.66 264.06 353.34 263.92 363.00 264.00 C 372.66 264.08 381.23 263.85 391.00 264.00 C 400.77 264.15 408.82 263.67 419.00 264.00 C 429.18 264.33 435.86 263.27 447.00 264.00 C 458.14 264.73 456.92 252.55 446.00 254.00 C 435.08 255.45 428.05 253.34 418.00 254.00 C 407.95 254.66 399.67 253.69 390.00 254.00 C 380.33 254.31 371.51 253.84 362.00 254.00 C 352.49 254.16 343.47 253.88 334.00 254.00
C 334.00 257.33 334.00 260.67 334.00 264.00 Z"/>
</g>
<g fill="#000000" fill-opacity="0.00" stroke="None">
<path d="
M 380.00 512.00 
L 512.00 512.00
L 512.00 262.00
C 504.07 268.64 501.47 279.18 492.91 286.90 C 484.34 294.62 485.26 309.49 469.00 309.00 C 452.74 308.51 430.50 309.23 413.00 309.00 C 395.50 308.77 374.95 309.12 357.00 309.00 C 339.05 308.88 320.04 309.09 302.00 309.00
C 302.00 345.00 302.00 381.00 302.00 417.00
C 315.39 418.10 340.05 415.14 350.08 417.87 C 360.11 420.60 369.83 425.57 376.61 435.25 C 383.39 444.92 385.43 450.92 386.00 464.00 C 386.57 477.08 389.94 503.74 380.00 512.00 Z"/>
</g>
<g fill="#77262C" fill-opacity="1.00" stroke="None">
<path d="
M 458.00 277.00 
C 443.97 279.51 428.29 276.29 414.00 277.00 C 399.71 277.71 384.30 277.63 370.00 277.00 C 355.70 276.37 340.07 279.38 326.00 277.00
C 338.88 280.91 355.92 277.33 370.00 278.00 C 384.08 278.67 400.99 278.67 415.00 278.00 C 429.01 277.33 445.24 281.03 458.00 277.00 Z"/>
</g>
<g fill="#872C33" fill-opacity="1.00" stroke="None">
<path d="
M 469.00 295.00 
C 458.87 298.33 445.68 293.45 435.00 295.00 C 424.32 296.55 412.94 294.32 402.00 295.00 C 391.06 295.68 379.02 294.67 368.00 295.00 C 356.98 295.33 346.01 294.83 335.00 295.00 C 323.99 295.17 313.01 294.87 302.00 295.00
C 304.95 299.22 317.55 294.69 323.00 296.00 C 328.45 297.31 337.70 295.42 344.00 296.00 C 350.30 296.58 358.33 295.76 365.00 296.00 C 371.67 296.24 379.18 295.94 386.00 296.00 C 392.82 296.06 400.14 296.07 407.00 296.00 C 413.86 295.93 421.20 296.25 428.00 296.00 C 434.80 295.75 442.39 296.60 449.00 296.00 C 455.61 295.40 463.45 297.81 469.00 295.00 Z"/>
</g>
<g fill="#000000" fill-opacity="0.99" stroke="None">
<path d="
M 127.00 354.00 
C 117.60 355.65 106.42 355.66 97.00 354.00
C 89.34 362.33 94.56 378.01 93.00 389.00
C 102.48 392.38 121.61 392.59 131.00 389.00
C 129.18 377.58 135.12 361.68 127.00 354.00
M 117.00 368.00 
C 117.00 371.33 117.00 374.67 117.00 378.00
C 113.67 378.00 110.33 378.00 107.00 378.00
C 107.00 374.67 107.00 371.33 107.00 368.00
C 110.33 368.00 113.67 368.00 117.00 368.00 Z"/>
</g>
<g fill="#783C78" fill-opacity="1.00" stroke="None">
<path d="
M 117.00 368.00 
C 113.67 368.00 110.33 368.00 107.00 368.00
C 107.00 371.33 107.00 374.67 107.00 378.00
C 110.33 378.00 113.67 378.00 117.00 378.00
C 117.00 374.67 117.00 371.33 117.00 368.00 Z"/>
</g>
<g fill="#877722" fill-opacity="1.00" stroke="None">
<path d="
M 288.00 416.00 
C 266.67 416.00 245.33 416.00 224.00 416.00
C 226.56 419.66 240.13 416.41 245.00 417.00 C 249.87 417.59 262.15 417.61 267.00 417.00 C 271.85 416.39 285.42 419.69 288.00 416.00 Z"/>
</g>
<g fill="#316464" fill-opacity="1.00" stroke="None">
<path d="
M 170.00 431.00 
C 198.37 429.07 227.56 431.00 256.00 431.00 C 284.44 431.00 313.63 429.07 342.00 431.00
C 315.51 426.25 283.61 430.00 256.00 430.00 C 228.39 430.00 196.56 426.24 170.00 431.00 Z"/>
</g>
<g fill="#6BD8D8" fill-opacity="1.00" stroke="None">
<path d="
M 141.00 460.00 
C 140.14 472.61 141.64 485.38 141.00 498.00
C 145.70 501.29 156.04 496.52 162.00 498.00 C 167.96 499.48 176.47 497.33 183.00 498.00 C 189.53 498.67 197.22 497.70 204.00 498.00 C 210.78 498.30 218.10 497.88 225.00 498.00 C 231.90 498.12 239.06 497.96 246.00 498.00 C 252.94 498.04 260.06 498.03 267.00 498.00 C 273.94 497.97 281.11 498.11 288.00 498.00 C 294.89 497.89 302.22 498.27 309.00 498.00 C 315.78 497.73 323.49 498.61 330.00 498.00 C 336.51 497.39 345.08 499.36 351.00 498.00 C 356.92 496.64 366.42 501.21 371.00 498.00
C 370.36 485.38 371.86 472.61 371.00 460.00
C 369.98 444.96 357.03 432.02 342.00 431.00
C 313.63 429.07 284.44 431.00 256.00 431.00 C 227.56 431.00 198.37 429.07 170.00 431.00
C 154.96 432.02 142.02 444.97 141.00 460.00 Z"/>
</g>
<g fill="#356A6A" fill-opacity="1.00" stroke="None">
<path d="
M 141.00 498.00 
C 141.64 485.38 140.14 472.61 141.00 460.00
C 140.22 464.33 138.85 474.23 140.00 479.00 C 141.15 483.77 137.16 495.31 141.00 498.00 Z"/>
</g>
<g fill="#356A6A" fill-opacity="1.00" stroke="None">
<path d="
M 371.00 498.00 
C 374.83 495.32 370.86 483.80 372.00 479.00 C 373.14 474.20 371.79 464.42 371.00 460.00
C 371.86 472.61 370.36 485.38 371.00 498.00 Z"/>
</g>
</svg>