<svg xmlns="http://www.w3.org/2000/svg" xmlns:v="https://svgstorm.com"
viewBox = "0 0 512 512"
width="512"
height="512">
<g fill="None" fill-opacity="0.0" stroke="#000000" stroke-opacity="0.20" stroke-width="0.3"><path d="
M 0.00 8.00 
C 1.70 3.98 3.98 1.78 8.00 0.00
L 0.00 0.00
L 0.00 8.00 Z"/>
</g>
<g fill="None" fill-opacity="0.0" stroke="#000000" stroke-opacity="1.00" stroke-width="0.3"><path d="
M 0.00 8.00 
L 0.00 178.00
C 5.16 190.65 17.39 186.28 30.00 187.00 C 42.61 187.72 56.50 186.05 70.00 187.00 C 83.50 187.95 86.27 172.47 84.00 161.00
C 87.33 161.00 90.67 161.00 94.00 161.00
C 93.90 176.66 94.14 191.23 94.00 207.00 C 93.86 222.77 94.26 236.83 94.00 253.00 C 93.74 269.17 94.56 281.86 94.00 299.00 C 93.44 316.14 111.64 314.79 126.00 314.00 C 140.36 313.21 157.07 314.37 172.00 314.00 C 186.93 313.63 202.77 314.21 218.00 314.00 C 233.23 313.79 249.67 314.18 265.00 314.00 C 280.33 313.82 295.68 314.28 311.00 314.00 C 326.32 313.72 341.70 314.57 357.00 314.00 C 372.30 313.43 388.85 315.20 404.00 314.00 C 419.15 312.80 434.77 317.06 449.22 313.22 C 463.67 309.38 456.96 289.05 458.00 276.00 C 459.04 262.95 457.48 243.06 458.00 229.00 C 458.52 214.94 457.67 197.13 458.00 183.00 C 458.33 168.87 457.63 150.40 458.00 137.00 C 458.37 123.60 459.96 109.79 446.97 110.02 C 433.98 110.25 430.33 104.93 422.70 101.29 C 415.06 97.65 409.19 93.94 402.23 90.42 C 395.27 86.91 390.43 84.10 383.70 80.29 C 376.97 76.48 369.37 73.31 362.75 69.81 C 356.13 66.31 350.98 62.41 344.23 59.42 C 337.48 56.44 331.13 51.74 324.70 48.30 C 318.27 44.87 311.73 42.33 304.75 38.81 C 297.76 35.29 290.44 29.66 282.70 27.29 C 274.96 24.92 268.93 23.08 259.25 21.41 C 249.58 19.73 236.56 20.24 223.00 20.00 C 209.44 19.76 191.56 20.11 177.00 20.00 C 162.44 19.89 146.04 20.06 131.00 20.00 C 115.96 19.94 99.20 20.04 84.00 20.00
C 84.67 10.17 84.32 1.88 75.00 0.00
L 8.00 0.00
C 3.98 1.78 1.70 3.98 0.00 8.00
M 64.00 20.00 
C 64.00 69.00 64.00 118.00 64.00 167.00
C 49.33 167.00 34.67 167.00 20.00 167.00
C 20.00 118.00 20.00 69.00 20.00 20.00
C 34.67 20.00 49.33 20.00 64.00 20.00
M 98.00 142.00 
C 94.98 142.00 85.70 143.43 84.00 141.00
C 80.86 136.52 85.42 126.69 84.00 121.00 C 82.58 115.31 84.64 107.25 84.00 101.00 C 83.36 94.75 84.30 87.52 84.00 81.00 C 83.70 74.48 84.15 67.71 84.00 61.00 C 83.85 54.29 84.11 46.78 84.00 40.00
C 123.62 37.53 171.18 43.30 210.00 40.00 C 248.82 36.70 281.98 46.28 312.08 64.92 C 342.17 83.57 365.28 92.08 395.00 109.00
C 378.26 111.27 358.38 109.41 341.00 110.00 C 323.62 110.59 302.79 109.26 286.00 110.00 C 269.21 110.74 248.38 107.16 234.31 113.31 C 220.23 119.45 220.36 142.36 233.23 148.77 C 246.10 155.18 253.05 165.07 268.23 169.77 C 283.41 174.47 282.78 198.97 265.78 195.22 C 248.78 191.47 241.68 184.09 226.78 179.22 C 211.87 174.36 202.19 168.34 187.92 163.08 C 173.66 157.81 162.85 151.98 147.78 148.22 C 132.70 144.47 114.45 141.18 98.00 142.00
M 206.00 207.00 
C 205.89 209.99 206.00 213.01 206.00 216.00
C 206.00 229.53 211.18 242.34 218.77 253.23 C 226.36 264.12 235.38 270.03 247.08 275.92 C 258.77 281.82 277.33 283.48 290.22 280.22 C 303.11 276.96 314.20 272.14 323.75 262.75 C 333.30 253.36 339.20 243.53 342.93 230.93 C 346.65 218.32 345.95 198.09 340.68 186.32 C 335.40 174.55 329.27 164.79 318.77 157.23 C 308.27 149.67 296.54 142.48 282.93 142.07 C 269.32 141.66 254.34 143.78 244.00 132.00
C 258.90 127.94 276.41 130.54 293.00 130.00 C 309.59 129.46 327.21 130.28 344.00 130.00 C 360.79 129.72 378.16 130.21 395.00 130.00
C 397.90 151.19 416.92 169.92 438.00 173.00
C 438.00 199.00 438.00 225.00 438.00 251.00
C 416.85 253.92 397.91 272.84 395.00 294.00
C 315.67 294.00 236.33 294.00 157.00 294.00
C 154.15 272.82 135.20 253.84 114.00 251.00
C 114.00 221.67 114.00 192.33 114.00 163.00
C 147.87 164.35 177.24 181.43 208.00 193.00
C 207.59 197.71 205.54 202.04 206.00 207.00
M 438.00 130.00 
C 438.00 137.67 438.00 145.33 438.00 153.00
C 427.43 149.36 418.40 140.72 415.00 130.00
C 422.67 130.00 430.33 130.00 438.00 130.00
M 226.00 217.00 
C 225.49 213.87 225.56 211.05 226.00 208.00
C 226.09 205.59 225.54 203.05 227.00 201.00
C 234.85 204.74 240.83 206.59 249.02 209.98 C 257.22 213.36 264.80 217.84 275.00 216.00 C 285.20 214.16 287.25 229.60 277.92 230.92 C 268.60 232.24 263.24 220.56 254.92 225.92 C 246.61 231.29 249.66 241.96 257.23 244.77 C 264.80 247.58 266.55 258.45 275.02 258.98 C 283.50 259.51 285.84 248.08 293.25 245.25 C 300.65 242.41 304.02 232.21 304.99 224.99 C 305.96 217.77 301.01 207.36 295.00 203.00
C 302.03 192.31 303.14 177.94 296.00 167.00
C 330.77 181.04 334.66 230.48 305.25 252.25 C 275.84 274.01 227.81 255.48 226.00 217.00
M 137.00 294.00 
C 129.33 294.00 121.67 294.00 114.00 294.00
C 114.00 286.33 114.00 278.67 114.00 271.00
C 124.63 274.46 133.55 283.39 137.00 294.00
M 438.00 271.00 
C 438.00 278.67 438.00 286.33 438.00 294.00
C 430.33 294.00 422.67 294.00 415.00 294.00
C 418.46 283.37 427.39 274.45 438.00 271.00 Z"/>
</g>
<g fill="None" fill-opacity="0.0" stroke="#000000" stroke-opacity="0.00" stroke-width="0.3"><path d="
M 0.00 178.00 
L 0.00 512.00
L 437.00 512.00
C 422.17 506.60 429.93 486.53 428.00 474.00
C 395.29 480.25 362.58 484.82 329.78 490.78 C 296.98 496.74 262.58 500.45 229.98 506.98 C 197.37 513.50 168.61 496.11 142.92 480.08 C 117.24 464.04 95.61 454.62 70.25 437.75 C 44.89 420.88 53.24 381.00 74.92 372.87 C 96.59 364.74 115.75 375.34 131.75 384.39 C 147.76 393.45 178.39 411.53 202.00 420.00
C 189.90 384.24 221.52 373.63 239.25 365.81 C 256.98 357.99 274.81 349.34 292.25 341.81 C 309.69 334.28 342.03 329.34 365.75 335.26 C 389.47 341.19 404.63 347.57 428.00 355.00
C 429.59 343.50 423.64 326.96 436.08 325.94 C 448.53 324.92 467.07 324.47 480.00 325.00 C 492.93 325.53 507.95 321.22 512.00 333.00
L 512.00 0.00
L 75.00 0.00
C 84.32 1.88 84.67 10.17 84.00 20.00
C 99.20 20.04 115.96 19.94 131.00 20.00 C 146.04 20.06 162.44 19.89 177.00 20.00 C 191.56 20.11 209.44 19.76 223.00 20.00 C 236.56 20.24 249.58 19.73 259.25 21.41 C 268.93 23.08 274.96 24.92 282.70 27.29 C 290.44 29.66 297.76 35.29 304.75 38.81 C 311.73 42.33 318.27 44.87 324.70 48.30 C 331.13 51.74 337.48 56.44 344.23 59.42 C 350.98 62.41 356.13 66.31 362.75 69.81 C 369.37 73.31 376.97 76.48 383.70 80.29 C 390.43 84.10 395.27 86.91 402.23 90.42 C 409.19 93.94 415.06 97.65 422.70 101.29 C 430.33 104.93 433.98 110.25 446.97 110.02 C 459.96 109.79 458.37 123.60 458.00 137.00 C 457.63 150.40 458.33 168.87 458.00 183.00 C 457.67 197.13 458.52 214.94 458.00 229.00 C 457.48 243.06 459.04 262.95 458.00 276.00 C 456.96 289.05 463.67 309.38 449.22 313.22 C 434.77 317.06 419.15 312.80 404.00 314.00 C 388.85 315.20 372.30 313.43 357.00 314.00 C 341.70 314.57 326.32 313.72 311.00 314.00 C 295.68 314.28 280.33 313.82 265.00 314.00 C 249.67 314.18 233.23 313.79 218.00 314.00 C 202.77 314.21 186.93 313.63 172.00 314.00 C 157.07 314.37 140.36 313.21 126.00 314.00 C 111.64 314.79 93.44 316.14 94.00 299.00 C 94.56 281.86 93.74 269.17 94.00 253.00 C 94.26 236.83 93.86 222.77 94.00 207.00 C 94.14 191.23 93.90 176.66 94.00 161.00
C 90.67 161.00 87.33 161.00 84.00 161.00
C 86.27 172.47 83.50 187.95 70.00 187.00 C 56.50 186.05 42.61 187.72 30.00 187.00 C 17.39 186.28 5.16 190.65 0.00 178.00 Z"/>
</g>
<g fill="None" fill-opacity="0.0" stroke="#FD9F2B" stroke-opacity="1.00" stroke-width="0.3"><path d="
M 64.00 20.00 
C 49.33 20.00 34.67 20.00 20.00 20.00
C 20.00 69.00 20.00 118.00 20.00 167.00
C 34.67 167.00 49.33 167.00 64.00 167.00
C 64.00 118.00 64.00 69.00 64.00 20.00
M 46.00 132.00 
C 57.46 135.48 50.85 155.98 38.93 151.07 C 27.01 146.16 32.55 127.92 46.00 132.00 Z"/>
</g>
<g fill="None" fill-opacity="0.0" stroke="#FECCAB" stroke-opacity="1.00" stroke-width="0.3"><path d="
M 84.00 141.00 
C 88.64 140.20 94.14 141.63 98.00 142.00
C 114.45 141.18 132.70 144.47 147.78 148.22 C 162.85 151.98 173.66 157.81 187.92 163.08 C 202.19 168.34 211.87 174.36 226.78 179.22 C 241.68 184.09 248.78 191.47 265.78 195.22 C 282.78 198.97 283.41 174.47 268.23 169.77 C 253.05 165.07 246.10 155.18 233.23 148.77 C 220.36 142.36 220.23 119.45 234.31 113.31 C 248.38 107.16 269.21 110.74 286.00 110.00 C 302.79 109.26 323.62 110.59 341.00 110.00 C 358.38 109.41 378.26 111.27 395.00 109.00
C 365.28 92.08 342.17 83.57 312.08 64.92 C 281.98 46.28 248.82 36.70 210.00 40.00 C 171.18 43.30 123.62 37.53 84.00 40.00
C 84.11 46.78 83.85 54.29 84.00 61.00 C 84.15 67.71 83.70 74.48 84.00 81.00 C 84.30 87.52 83.36 94.75 84.00 101.00 C 84.64 107.25 82.58 115.31 84.00 121.00 C 85.42 126.69 80.86 136.52 84.00 141.00
M 121.00 60.00 
C 133.54 62.46 127.77 84.14 115.33 79.67 C 102.89 75.20 108.86 57.62 121.00 60.00
M 231.00 60.00 
C 241.37 63.15 238.99 81.07 227.00 80.00 C 215.01 78.92 201.19 80.87 189.00 80.00 C 176.81 79.13 163.33 81.38 151.33 79.67 C 139.33 77.96 142.90 57.98 155.00 60.00 C 167.11 62.03 180.94 57.92 193.00 60.00 C 205.06 62.08 219.38 56.47 231.00 60.00 Z"/>
</g>
<g fill="None" fill-opacity="0.0" stroke="#000000" stroke-opacity="1.00" stroke-width="0.3"><path d="
M 121.00 60.00 
C 108.86 57.62 102.89 75.20 115.33 79.67 C 127.77 84.14 133.54 62.46 121.00 60.00 Z"/>
</g>
<g fill="None" fill-opacity="0.0" stroke="#000000" stroke-opacity="1.00" stroke-width="0.3"><path d="
M 231.00 60.00 
C 219.38 56.47 205.06 62.08 193.00 60.00 C 180.94 57.92 167.11 62.03 155.00 60.00 C 142.90 57.98 139.33 77.96 151.33 79.67 C 163.33 81.38 176.81 79.13 189.00 80.00 C 201.19 80.87 215.01 78.92 227.00 80.00 C 238.99 81.07 241.37 63.15 231.00 60.00 Z"/>
</g>
<g fill="None" fill-opacity="0.0" stroke="#9FE356" stroke-opacity="1.00" stroke-width="0.3"><path d="
M 206.00 216.00 
C 205.72 213.06 205.58 209.93 206.00 207.00
C 205.54 202.04 207.59 197.71 208.00 193.00
C 177.24 181.43 147.87 164.35 114.00 163.00
C 114.00 192.33 114.00 221.67 114.00 251.00
C 135.20 253.84 154.15 272.82 157.00 294.00
C 236.33 294.00 315.67 294.00 395.00 294.00
C 397.91 272.84 416.85 253.92 438.00 251.00
C 438.00 225.00 438.00 199.00 438.00 173.00
C 416.92 169.92 397.90 151.19 395.00 130.00
C 378.16 130.21 360.79 129.72 344.00 130.00 C 327.21 130.28 309.59 129.46 293.00 130.00 C 276.41 130.54 258.90 127.94 244.00 132.00
C 254.34 143.78 269.32 141.66 282.93 142.07 C 296.54 142.48 308.27 149.67 318.77 157.23 C 329.27 164.79 335.40 174.55 340.68 186.32 C 345.95 198.09 346.65 218.32 342.93 230.93 C 339.20 243.53 333.30 253.36 323.75 262.75 C 314.20 272.14 303.11 276.96 290.22 280.22 C 277.33 283.48 258.77 281.82 247.08 275.92 C 235.38 270.03 226.36 264.12 218.77 253.23 C 211.18 242.34 206.00 229.53 206.00 216.00
M 185.00 202.00 
C 192.01 203.63 196.31 215.37 188.75 219.75 C 181.20 224.14 168.64 221.43 160.00 222.00 C 151.36 222.57 148.57 206.59 156.08 204.08 C 163.60 201.58 176.63 200.05 185.00 202.00
M 392.00 202.00 
C 399.13 203.77 402.63 217.39 394.75 220.75 C 386.88 224.12 373.45 221.77 365.33 221.67 C 357.21 221.57 355.56 205.91 362.75 203.75 C 369.94 201.59 384.02 200.02 392.00 202.00 Z"/>
</g>
<g fill="None" fill-opacity="0.0" stroke="#00A26E" stroke-opacity="1.00" stroke-width="0.3"><path d="
M 438.00 130.00 
C 430.33 130.00 422.67 130.00 415.00 130.00
C 418.40 140.72 427.43 149.36 438.00 153.00
C 438.00 145.33 438.00 137.67 438.00 130.00 Z"/>
</g>
<g fill="None" fill-opacity="0.0" stroke="#000000" stroke-opacity="1.00" stroke-width="0.3"><path d="
M 46.00 132.00 
C 32.55 127.92 27.01 146.16 38.93 151.07 C 50.85 155.98 57.46 135.48 46.00 132.00 Z"/>
</g>
<g fill="None" fill-opacity="0.0" stroke="#886D5C" stroke-opacity="1.00" stroke-width="0.3"><path d="
M 98.00 142.00 
C 94.14 141.63 88.64 140.20 84.00 141.00
C 85.70 143.43 94.98 142.00 98.00 142.00 Z"/>
</g>
<g fill="None" fill-opacity="0.0" stroke="#00A26E" stroke-opacity="1.00" stroke-width="0.3"><path d="
M 226.00 208.00 
C 225.89 210.96 225.84 214.05 226.00 217.00
C 227.81 255.48 275.84 274.01 305.25 252.25 C 334.66 230.48 330.77 181.04 296.00 167.00
C 303.14 177.94 302.03 192.31 295.00 203.00
C 301.01 207.36 305.96 217.77 304.99 224.99 C 304.02 232.21 300.65 242.41 293.25 245.25 C 285.84 248.08 283.50 259.51 275.02 258.98 C 266.55 258.45 264.80 247.58 257.23 244.77 C 249.66 241.96 246.61 231.29 254.92 225.92 C 263.24 220.56 268.60 232.24 277.92 230.92 C 287.25 229.60 285.20 214.16 275.00 216.00 C 264.80 217.84 257.22 213.36 249.02 209.98 C 240.83 206.59 234.85 204.74 227.00 201.00
C 225.54 203.05 226.09 205.59 226.00 208.00 Z"/>
</g>
<g fill="None" fill-opacity="0.0" stroke="#000000" stroke-opacity="1.00" stroke-width="0.3"><path d="
M 185.00 202.00 
C 176.63 200.05 163.60 201.58 156.08 204.08 C 148.57 206.59 151.36 222.57 160.00 222.00 C 168.64 221.43 181.20 224.14 188.75 219.75 C 196.31 215.37 192.01 203.63 185.00 202.00 Z"/>
</g>
<g fill="None" fill-opacity="0.0" stroke="#000000" stroke-opacity="1.00" stroke-width="0.3"><path d="
M 392.00 202.00 
C 384.02 200.02 369.94 201.59 362.75 203.75 C 355.56 205.91 357.21 221.57 365.33 221.67 C 373.45 221.77 386.88 224.12 394.75 220.75 C 402.63 217.39 399.13 203.77 392.00 202.00 Z"/>
</g>
<g fill="None" fill-opacity="0.0" stroke="#577D2F" stroke-opacity="1.00" stroke-width="0.3"><path d="
M 206.00 216.00 
C 206.00 213.01 205.89 209.99 206.00 207.00
C 205.58 209.93 205.72 213.06 206.00 216.00 Z"/>
</g>
<g fill="None" fill-opacity="0.0" stroke="#00452F" stroke-opacity="1.00" stroke-width="0.3"><path d="
M 226.00 217.00 
C 225.84 214.05 225.89 210.96 226.00 208.00
C 225.56 211.05 225.49 213.87 226.00 217.00 Z"/>
</g>
<g fill="None" fill-opacity="0.0" stroke="#00A26E" stroke-opacity="1.00" stroke-width="0.3"><path d="
M 137.00 294.00 
C 133.55 283.39 124.63 274.46 114.00 271.00
C 114.00 278.67 114.00 286.33 114.00 294.00
C 121.67 294.00 129.33 294.00 137.00 294.00 Z"/>
</g>
<g fill="None" fill-opacity="0.0" stroke="#00A26E" stroke-opacity="1.00" stroke-width="0.3"><path d="
M 438.00 271.00 
C 427.39 274.45 418.46 283.37 415.00 294.00
C 422.67 294.00 430.33 294.00 438.00 294.00
C 438.00 286.33 438.00 278.67 438.00 271.00 Z"/>
</g>
<g fill="None" fill-opacity="0.0" stroke="#000000" stroke-opacity="1.00" stroke-width="0.3"><path d="
M 437.00 512.00 
L 503.00 512.00
C 507.25 510.75 510.67 507.11 512.00 503.00
L 512.00 333.00
C 507.95 321.22 492.93 325.53 480.00 325.00 C 467.07 324.47 448.53 324.92 436.08 325.94 C 423.64 326.96 429.59 343.50 428.00 355.00
C 404.63 347.57 389.47 341.19 365.75 335.26 C 342.03 329.34 309.69 334.28 292.25 341.81 C 274.81 349.34 256.98 357.99 239.25 365.81 C 221.52 373.63 189.90 384.24 202.00 420.00
C 178.39 411.53 147.76 393.45 131.75 384.39 C 115.75 375.34 96.59 364.74 74.92 372.87 C 53.24 381.00 44.89 420.88 70.25 437.75 C 95.61 454.62 117.24 464.04 142.92 480.08 C 168.61 496.11 197.37 513.50 229.98 506.98 C 262.58 500.45 296.98 496.74 329.78 490.78 C 362.58 484.82 395.29 480.25 428.00 474.00
C 429.93 486.53 422.17 506.60 437.00 512.00
M 492.00 345.00 
C 492.00 394.00 492.00 443.00 492.00 492.00
C 477.33 492.00 462.67 492.00 448.00 492.00
C 448.00 443.00 448.00 394.00 448.00 345.00
C 462.67 345.00 477.33 345.00 492.00 345.00
M 428.00 376.00 
C 428.00 402.33 428.00 428.67 428.00 455.00
C 414.04 456.52 400.07 458.89 386.33 461.33 C 372.59 463.77 358.81 465.85 345.00 468.00 C 331.19 470.15 317.77 472.71 303.98 474.98 C 290.19 477.24 275.66 479.46 261.98 481.98 C 248.29 484.49 233.88 485.85 220.33 488.33 C 206.78 490.81 193.34 485.82 182.25 479.75 C 171.17 473.67 162.58 468.05 151.77 462.23 C 140.96 456.41 131.42 450.17 120.75 444.25 C 110.08 438.33 100.96 432.60 89.92 427.08 C 78.89 421.55 68.73 410.45 76.75 397.75 C 84.78 385.06 98.75 388.94 109.23 395.77 C 119.71 402.60 131.04 405.68 141.69 412.31 C 152.35 418.93 162.27 421.81 173.08 428.92 C 183.89 436.04 197.55 439.51 211.00 439.00 C 224.45 438.49 241.66 442.83 253.22 436.22 C 264.78 429.62 279.00 430.08 289.07 424.07 C 299.14 418.07 319.98 421.15 319.00 406.00 C 318.02 390.85 296.33 399.53 286.93 403.93 C 277.52 408.32 260.00 410.73 249.98 415.98 C 239.96 421.22 221.77 423.48 219.67 408.33 C 217.58 393.18 232.53 390.50 243.23 385.23 C 253.92 379.96 265.07 375.66 276.23 370.23 C 287.38 364.80 298.84 360.02 311.07 356.07 C 323.31 352.12 340.80 351.24 354.00 353.00 C 367.20 354.76 378.72 359.78 391.08 363.92 C 403.43 368.07 415.58 372.23 428.00 376.00 Z"/>
</g>
<g fill="None" fill-opacity="0.0" stroke="#4CB9F5" stroke-opacity="1.00" stroke-width="0.3"><path d="
M 492.00 345.00 
C 477.33 345.00 462.67 345.00 448.00 345.00
C 448.00 394.00 448.00 443.00 448.00 492.00
C 462.67 492.00 477.33 492.00 492.00 492.00
C 492.00 443.00 492.00 394.00 492.00 345.00
M 472.00 360.00 
C 484.34 362.06 481.19 382.73 468.00 380.00 C 454.81 377.27 459.85 357.97 472.00 360.00 Z"/>
</g>
<g fill="None" fill-opacity="0.0" stroke="#FDCCAB" stroke-opacity="1.00" stroke-width="0.3"><path d="
M 428.00 376.00 
C 415.58 372.23 403.43 368.07 391.08 363.92 C 378.72 359.78 367.20 354.76 354.00 353.00 C 340.80 351.24 323.31 352.12 311.07 356.07 C 298.84 360.02 287.38 364.80 276.23 370.23 C 265.07 375.66 253.92 379.96 243.23 385.23 C 232.53 390.50 217.58 393.18 219.67 408.33 C 221.77 423.48 239.96 421.22 249.98 415.98 C 260.00 410.73 277.52 408.32 286.93 403.93 C 296.33 399.53 318.02 390.85 319.00 406.00 C 319.98 421.15 299.14 418.07 289.07 424.07 C 279.00 430.08 264.78 429.62 253.22 436.22 C 241.66 442.83 224.45 438.49 211.00 439.00 C 197.55 439.51 183.89 436.04 173.08 428.92 C 162.27 421.81 152.35 418.93 141.69 412.31 C 131.04 405.68 119.71 402.60 109.23 395.77 C 98.75 388.94 84.78 385.06 76.75 397.75 C 68.73 410.45 78.89 421.55 89.92 427.08 C 100.96 432.60 110.08 438.33 120.75 444.25 C 131.42 450.17 140.96 456.41 151.77 462.23 C 162.58 468.05 171.17 473.67 182.25 479.75 C 193.34 485.82 206.78 490.81 220.33 488.33 C 233.88 485.85 248.29 484.49 261.98 481.98 C 275.66 479.46 290.19 477.24 303.98 474.98 C 317.77 472.71 331.19 470.15 345.00 468.00 C 358.81 465.85 372.59 463.77 386.33 461.33 C 400.07 458.89 414.04 456.52 428.00 455.00
C 428.00 428.67 428.00 402.33 428.00 376.00 Z"/>
</g>
<g fill="None" fill-opacity="0.0" stroke="#000000" stroke-opacity="1.00" stroke-width="0.3"><path d="
M 472.00 360.00 
C 459.85 357.97 454.81 377.27 468.00 380.00 C 481.19 382.73 484.34 362.06 472.00 360.00 Z"/>
</g>
<g fill="None" fill-opacity="0.0" stroke="#000000" stroke-opacity="0.24" stroke-width="0.3"><path d="
M 503.00 512.00 
L 512.00 512.00
L 512.00 503.00
C 510.67 507.11 507.25 510.75 503.00 512.00 Z"/>
</g>
<g fill="#000000" fill-opacity="0.20" stroke="None">
<path d="
M 0.00 8.00 
C 1.70 3.98 3.98 1.78 8.00 0.00
L 0.00 0.00
L 0.00 8.00 Z"/>
</g>
<g fill="#000000" fill-opacity="1.00" stroke="None">
<path d="
M 0.00 8.00 
L 0.00 178.00
C 5.16 190.65 17.39 186.28 30.00 187.00 C 42.61 187.72 56.50 186.05 70.00 187.00 C 83.50 187.95 86.27 172.47 84.00 161.00
C 87.33 161.00 90.67 161.00 94.00 161.00
C 93.90 176.66 94.14 191.23 94.00 207.00 C 93.86 222.77 94.26 236.83 94.00 253.00 C 93.74 269.17 94.56 281.86 94.00 299.00 C 93.44 316.14 111.64 314.79 126.00 314.00 C 140.36 313.21 157.07 314.37 172.00 314.00 C 186.93 313.63 202.77 314.21 218.00 314.00 C 233.23 313.79 249.67 314.18 265.00 314.00 C 280.33 313.82 295.68 314.28 311.00 314.00 C 326.32 313.72 341.70 314.57 357.00 314.00 C 372.30 313.43 388.85 315.20 404.00 314.00 C 419.15 312.80 434.77 317.06 449.22 313.22 C 463.67 309.38 456.96 289.05 458.00 276.00 C 459.04 262.95 457.48 243.06 458.00 229.00 C 458.52 214.94 457.67 197.13 458.00 183.00 C 458.33 168.87 457.63 150.40 458.00 137.00 C 458.37 123.60 459.96 109.79 446.97 110.02 C 433.98 110.25 430.33 104.93 422.70 101.29 C 415.06 97.65 409.19 93.94 402.23 90.42 C 395.27 86.91 390.43 84.10 383.70 80.29 C 376.97 76.48 369.37 73.31 362.75 69.81 C 356.13 66.31 350.98 62.41 344.23 59.42 C 337.48 56.44 331.13 51.74 324.70 48.30 C 318.27 44.87 311.73 42.33 304.75 38.81 C 297.76 35.29 290.44 29.66 282.70 27.29 C 274.96 24.92 268.93 23.08 259.25 21.41 C 249.58 19.73 236.56 20.24 223.00 20.00 C 209.44 19.76 191.56 20.11 177.00 20.00 C 162.44 19.89 146.04 20.06 131.00 20.00 C 115.96 19.94 99.20 20.04 84.00 20.00
C 84.67 10.17 84.32 1.88 75.00 0.00
L 8.00 0.00
C 3.98 1.78 1.70 3.98 0.00 8.00
M 64.00 20.00 
C 64.00 69.00 64.00 118.00 64.00 167.00
C 49.33 167.00 34.67 167.00 20.00 167.00
C 20.00 118.00 20.00 69.00 20.00 20.00
C 34.67 20.00 49.33 20.00 64.00 20.00
M 98.00 142.00 
C 94.98 142.00 85.70 143.43 84.00 141.00
C 80.86 136.52 85.42 126.69 84.00 121.00 C 82.58 115.31 84.64 107.25 84.00 101.00 C 83.36 94.75 84.30 87.52 84.00 81.00 C 83.70 74.48 84.15 67.71 84.00 61.00 C 83.85 54.29 84.11 46.78 84.00 40.00
C 123.62 37.53 171.18 43.30 210.00 40.00 C 248.82 36.70 281.98 46.28 312.08 64.92 C 342.17 83.57 365.28 92.08 395.00 109.00
C 378.26 111.27 358.38 109.41 341.00 110.00 C 323.62 110.59 302.79 109.26 286.00 110.00 C 269.21 110.74 248.38 107.16 234.31 113.31 C 220.23 119.45 220.36 142.36 233.23 148.77 C 246.10 155.18 253.05 165.07 268.23 169.77 C 283.41 174.47 282.78 198.97 265.78 195.22 C 248.78 191.47 241.68 184.09 226.78 179.22 C 211.87 174.36 202.19 168.34 187.92 163.08 C 173.66 157.81 162.85 151.98 147.78 148.22 C 132.70 144.47 114.45 141.18 98.00 142.00
M 206.00 207.00 
C 205.89 209.99 206.00 213.01 206.00 216.00
C 206.00 229.53 211.18 242.34 218.77 253.23 C 226.36 264.12 235.38 270.03 247.08 275.92 C 258.77 281.82 277.33 283.48 290.22 280.22 C 303.11 276.96 314.20 272.14 323.75 262.75 C 333.30 253.36 339.20 243.53 342.93 230.93 C 346.65 218.32 345.95 198.09 340.68 186.32 C 335.40 174.55 329.27 164.79 318.77 157.23 C 308.27 149.67 296.54 142.48 282.93 142.07 C 269.32 141.66 254.34 143.78 244.00 132.00
C 258.90 127.94 276.41 130.54 293.00 130.00 C 309.59 129.46 327.21 130.28 344.00 130.00 C 360.79 129.72 378.16 130.21 395.00 130.00
C 397.90 151.19 416.92 169.92 438.00 173.00
C 438.00 199.00 438.00 225.00 438.00 251.00
C 416.85 253.92 397.91 272.84 395.00 294.00
C 315.67 294.00 236.33 294.00 157.00 294.00
C 154.15 272.82 135.20 253.84 114.00 251.00
C 114.00 221.67 114.00 192.33 114.00 163.00
C 147.87 164.35 177.24 181.43 208.00 193.00
C 207.59 197.71 205.54 202.04 206.00 207.00
M 438.00 130.00 
C 438.00 137.67 438.00 145.33 438.00 153.00
C 427.43 149.36 418.40 140.72 415.00 130.00
C 422.67 130.00 430.33 130.00 438.00 130.00
M 226.00 217.00 
C 225.49 213.87 225.56 211.05 226.00 208.00
C 226.09 205.59 225.54 203.05 227.00 201.00
C 234.85 204.74 240.83 206.59 249.02 209.98 C 257.22 213.36 264.80 217.84 275.00 216.00 C 285.20 214.16 287.25 229.60 277.92 230.92 C 268.60 232.24 263.24 220.56 254.92 225.92 C 246.61 231.29 249.66 241.96 257.23 244.77 C 264.80 247.58 266.55 258.45 275.02 258.98 C 283.50 259.51 285.84 248.08 293.25 245.25 C 300.65 242.41 304.02 232.21 304.99 224.99 C 305.96 217.77 301.01 207.36 295.00 203.00
C 302.03 192.31 303.14 177.94 296.00 167.00
C 330.77 181.04 334.66 230.48 305.25 252.25 C 275.84 274.01 227.81 255.48 226.00 217.00
M 137.00 294.00 
C 129.33 294.00 121.67 294.00 114.00 294.00
C 114.00 286.33 114.00 278.67 114.00 271.00
C 124.63 274.46 133.55 283.39 137.00 294.00
M 438.00 271.00 
C 438.00 278.67 438.00 286.33 438.00 294.00
C 430.33 294.00 422.67 294.00 415.00 294.00
C 418.46 283.37 427.39 274.45 438.00 271.00 Z"/>
</g>
<g fill="#000000" fill-opacity="0.00" stroke="None">
<path d="
M 0.00 178.00 
L 0.00 512.00
L 437.00 512.00
C 422.17 506.60 429.93 486.53 428.00 474.00
C 395.29 480.25 362.58 484.82 329.78 490.78 C 296.98 496.74 262.58 500.45 229.98 506.98 C 197.37 513.50 168.61 496.11 142.92 480.08 C 117.24 464.04 95.61 454.62 70.25 437.75 C 44.89 420.88 53.24 381.00 74.92 372.87 C 96.59 364.74 115.75 375.34 131.75 384.39 C 147.76 393.45 178.39 411.53 202.00 420.00
C 189.90 384.24 221.52 373.63 239.25 365.81 C 256.98 357.99 274.81 349.34 292.25 341.81 C 309.69 334.28 342.03 329.34 365.75 335.26 C 389.47 341.19 404.63 347.57 428.00 355.00
C 429.59 343.50 423.64 326.96 436.08 325.94 C 448.53 324.92 467.07 324.47 480.00 325.00 C 492.93 325.53 507.95 321.22 512.00 333.00
L 512.00 0.00
L 75.00 0.00
C 84.32 1.88 84.67 10.17 84.00 20.00
C 99.20 20.04 115.96 19.94 131.00 20.00 C 146.04 20.06 162.44 19.89 177.00 20.00 C 191.56 20.11 209.44 19.76 223.00 20.00 C 236.56 20.24 249.58 19.73 259.25 21.41 C 268.93 23.08 274.96 24.92 282.70 27.29 C 290.44 29.66 297.76 35.29 304.75 38.81 C 311.73 42.33 318.27 44.87 324.70 48.30 C 331.13 51.74 337.48 56.44 344.23 59.42 C 350.98 62.41 356.13 66.31 362.75 69.81 C 369.37 73.31 376.97 76.48 383.70 80.29 C 390.43 84.10 395.27 86.91 402.23 90.42 C 409.19 93.94 415.06 97.65 422.70 101.29 C 430.33 104.93 433.98 110.25 446.97 110.02 C 459.96 109.79 458.37 123.60 458.00 137.00 C 457.63 150.40 458.33 168.87 458.00 183.00 C 457.67 197.13 458.52 214.94 458.00 229.00 C 457.48 243.06 459.04 262.95 458.00 276.00 C 456.96 289.05 463.67 309.38 449.22 313.22 C 434.77 317.06 419.15 312.80 404.00 314.00 C 388.85 315.20 372.30 313.43 357.00 314.00 C 341.70 314.57 326.32 313.72 311.00 314.00 C 295.68 314.28 280.33 313.82 265.00 314.00 C 249.67 314.18 233.23 313.79 218.00 314.00 C 202.77 314.21 186.93 313.63 172.00 314.00 C 157.07 314.37 140.36 313.21 126.00 314.00 C 111.64 314.79 93.44 316.14 94.00 299.00 C 94.56 281.86 93.74 269.17 94.00 253.00 C 94.26 236.83 93.86 222.77 94.00 207.00 C 94.14 191.23 93.90 176.66 94.00 161.00
C 90.67 161.00 87.33 161.00 84.00 161.00
C 86.27 172.47 83.50 187.95 70.00 187.00 C 56.50 186.05 42.61 187.72 30.00 187.00 C 17.39 186.28 5.16 190.65 0.00 178.00 Z"/>
</g>
<g fill="#FD9F2B" fill-opacity="1.00" stroke="None">
<path d="
M 64.00 20.00 
C 49.33 20.00 34.67 20.00 20.00 20.00
C 20.00 69.00 20.00 118.00 20.00 167.00
C 34.67 167.00 49.33 167.00 64.00 167.00
C 64.00 118.00 64.00 69.00 64.00 20.00
M 46.00 132.00 
C 57.46 135.48 50.85 155.98 38.93 151.07 C 27.01 146.16 32.55 127.92 46.00 132.00 Z"/>
</g>
<g fill="#FECCAB" fill-opacity="1.00" stroke="None">
<path d="
M 84.00 141.00 
C 88.64 140.20 94.14 141.63 98.00 142.00
C 114.45 141.18 132.70 144.47 147.78 148.22 C 162.85 151.98 173.66 157.81 187.92 163.08 C 202.19 168.34 211.87 174.36 226.78 179.22 C 241.68 184.09 248.78 191.47 265.78 195.22 C 282.78 198.97 283.41 174.47 268.23 169.77 C 253.05 165.07 246.10 155.18 233.23 148.77 C 220.36 142.36 220.23 119.45 234.31 113.31 C 248.38 107.16 269.21 110.74 286.00 110.00 C 302.79 109.26 323.62 110.59 341.00 110.00 C 358.38 109.41 378.26 111.27 395.00 109.00
C 365.28 92.08 342.17 83.57 312.08 64.92 C 281.98 46.28 248.82 36.70 210.00 40.00 C 171.18 43.30 123.62 37.53 84.00 40.00
C 84.11 46.78 83.85 54.29 84.00 61.00 C 84.15 67.71 83.70 74.48 84.00 81.00 C 84.30 87.52 83.36 94.75 84.00 101.00 C 84.64 107.25 82.58 115.31 84.00 121.00 C 85.42 126.69 80.86 136.52 84.00 141.00
M 121.00 60.00 
C 133.54 62.46 127.77 84.14 115.33 79.67 C 102.89 75.20 108.86 57.62 121.00 60.00
M 231.00 60.00 
C 241.37 63.15 238.99 81.07 227.00 80.00 C 215.01 78.92 201.19 80.87 189.00 80.00 C 176.81 79.13 163.33 81.38 151.33 79.67 C 139.33 77.96 142.90 57.98 155.00 60.00 C 167.11 62.03 180.94 57.92 193.00 60.00 C 205.06 62.08 219.38 56.47 231.00 60.00 Z"/>
</g>
<g fill="#000000" fill-opacity="1.00" stroke="None">
<path d="
M 121.00 60.00 
C 108.86 57.62 102.89 75.20 115.33 79.67 C 127.77 84.14 133.54 62.46 121.00 60.00 Z"/>
</g>
<g fill="#000000" fill-opacity="1.00" stroke="None">
<path d="
M 231.00 60.00 
C 219.38 56.47 205.06 62.08 193.00 60.00 C 180.94 57.92 167.11 62.03 155.00 60.00 C 142.90 57.98 139.33 77.96 151.33 79.67 C 163.33 81.38 176.81 79.13 189.00 80.00 C 201.19 80.87 215.01 78.92 227.00 80.00 C 238.99 81.07 241.37 63.15 231.00 60.00 Z"/>
</g>
<g fill="#9FE356" fill-opacity="1.00" stroke="None">
<path d="
M 206.00 216.00 
C 205.72 213.06 205.58 209.93 206.00 207.00
C 205.54 202.04 207.59 197.71 208.00 193.00
C 177.24 181.43 147.87 164.35 114.00 163.00
C 114.00 192.33 114.00 221.67 114.00 251.00
C 135.20 253.84 154.15 272.82 157.00 294.00
C 236.33 294.00 315.67 294.00 395.00 294.00
C 397.91 272.84 416.85 253.92 438.00 251.00
C 438.00 225.00 438.00 199.00 438.00 173.00
C 416.92 169.92 397.90 151.19 395.00 130.00
C 378.16 130.21 360.79 129.72 344.00 130.00 C 327.21 130.28 309.59 129.46 293.00 130.00 C 276.41 130.54 258.90 127.94 244.00 132.00
C 254.34 143.78 269.32 141.66 282.93 142.07 C 296.54 142.48 308.27 149.67 318.77 157.23 C 329.27 164.79 335.40 174.55 340.68 186.32 C 345.95 198.09 346.65 218.32 342.93 230.93 C 339.20 243.53 333.30 253.36 323.75 262.75 C 314.20 272.14 303.11 276.96 290.22 280.22 C 277.33 283.48 258.77 281.82 247.08 275.92 C 235.38 270.03 226.36 264.12 218.77 253.23 C 211.18 242.34 206.00 229.53 206.00 216.00
M 185.00 202.00 
C 192.01 203.63 196.31 215.37 188.75 219.75 C 181.20 224.14 168.64 221.43 160.00 222.00 C 151.36 222.57 148.57 206.59 156.08 204.08 C 163.60 201.58 176.63 200.05 185.00 202.00
M 392.00 202.00 
C 399.13 203.77 402.63 217.39 394.75 220.75 C 386.88 224.12 373.45 221.77 365.33 221.67 C 357.21 221.57 355.56 205.91 362.75 203.75 C 369.94 201.59 384.02 200.02 392.00 202.00 Z"/>
</g>
<g fill="#00A26E" fill-opacity="1.00" stroke="None">
<path d="
M 438.00 130.00 
C 430.33 130.00 422.67 130.00 415.00 130.00
C 418.40 140.72 427.43 149.36 438.00 153.00
C 438.00 145.33 438.00 137.67 438.00 130.00 Z"/>
</g>
<g fill="#000000" fill-opacity="1.00" stroke="None">
<path d="
M 46.00 132.00 
C 32.55 127.92 27.01 146.16 38.93 151.07 C 50.85 155.98 57.46 135.48 46.00 132.00 Z"/>
</g>
<g fill="#886D5C" fill-opacity="1.00" stroke="None">
<path d="
M 98.00 142.00 
C 94.14 141.63 88.64 140.20 84.00 141.00
C 85.70 143.43 94.98 142.00 98.00 142.00 Z"/>
</g>
<g fill="#00A26E" fill-opacity="1.00" stroke="None">
<path d="
M 226.00 208.00 
C 225.89 210.96 225.84 214.05 226.00 217.00
C 227.81 255.48 275.84 274.01 305.25 252.25 C 334.66 230.48 330.77 181.04 296.00 167.00
C 303.14 177.94 302.03 192.31 295.00 203.00
C 301.01 207.36 305.96 217.77 304.99 224.99 C 304.02 232.21 300.65 242.41 293.25 245.25 C 285.84 248.08 283.50 259.51 275.02 258.98 C 266.55 258.45 264.80 247.58 257.23 244.77 C 249.66 241.96 246.61 231.29 254.92 225.92 C 263.24 220.56 268.60 232.24 277.92 230.92 C 287.25 229.60 285.20 214.16 275.00 216.00 C 264.80 217.84 257.22 213.36 249.02 209.98 C 240.83 206.59 234.85 204.74 227.00 201.00
C 225.54 203.05 226.09 205.59 226.00 208.00 Z"/>
</g>
<g fill="#000000" fill-opacity="1.00" stroke="None">
<path d="
M 185.00 202.00 
C 176.63 200.05 163.60 201.58 156.08 204.08 C 148.57 206.59 151.36 222.57 160.00 222.00 C 168.64 221.43 181.20 224.14 188.75 219.75 C 196.31 215.37 192.01 203.63 185.00 202.00 Z"/>
</g>
<g fill="#000000" fill-opacity="1.00" stroke="None">
<path d="
M 392.00 202.00 
C 384.02 200.02 369.94 201.59 362.75 203.75 C 355.56 205.91 357.21 221.57 365.33 221.67 C 373.45 221.77 386.88 224.12 394.75 220.75 C 402.63 217.39 399.13 203.77 392.00 202.00 Z"/>
</g>
<g fill="#577D2F" fill-opacity="1.00" stroke="None">
<path d="
M 206.00 216.00 
C 206.00 213.01 205.89 209.99 206.00 207.00
C 205.58 209.93 205.72 213.06 206.00 216.00 Z"/>
</g>
<g fill="#00452F" fill-opacity="1.00" stroke="None">
<path d="
M 226.00 217.00 
C 225.84 214.05 225.89 210.96 226.00 208.00
C 225.56 211.05 225.49 213.87 226.00 217.00 Z"/>
</g>
<g fill="#00A26E" fill-opacity="1.00" stroke="None">
<path d="
M 137.00 294.00 
C 133.55 283.39 124.63 274.46 114.00 271.00
C 114.00 278.67 114.00 286.33 114.00 294.00
C 121.67 294.00 129.33 294.00 137.00 294.00 Z"/>
</g>
<g fill="#00A26E" fill-opacity="1.00" stroke="None">
<path d="
M 438.00 271.00 
C 427.39 274.45 418.46 283.37 415.00 294.00
C 422.67 294.00 430.33 294.00 438.00 294.00
C 438.00 286.33 438.00 278.67 438.00 271.00 Z"/>
</g>
<g fill="#000000" fill-opacity="1.00" stroke="None">
<path d="
M 437.00 512.00 
L 503.00 512.00
C 507.25 510.75 510.67 507.11 512.00 503.00
L 512.00 333.00
C 507.95 321.22 492.93 325.53 480.00 325.00 C 467.07 324.47 448.53 324.92 436.08 325.94 C 423.64 326.96 429.59 343.50 428.00 355.00
C 404.63 347.57 389.47 341.19 365.75 335.26 C 342.03 329.34 309.69 334.28 292.25 341.81 C 274.81 349.34 256.98 357.99 239.25 365.81 C 221.52 373.63 189.90 384.24 202.00 420.00
C 178.39 411.53 147.76 393.45 131.75 384.39 C 115.75 375.34 96.59 364.74 74.92 372.87 C 53.24 381.00 44.89 420.88 70.25 437.75 C 95.61 454.62 117.24 464.04 142.92 480.08 C 168.61 496.11 197.37 513.50 229.98 506.98 C 262.58 500.45 296.98 496.74 329.78 490.78 C 362.58 484.82 395.29 480.25 428.00 474.00
C 429.93 486.53 422.17 506.60 437.00 512.00
M 492.00 345.00 
C 492.00 394.00 492.00 443.00 492.00 492.00
C 477.33 492.00 462.67 492.00 448.00 492.00
C 448.00 443.00 448.00 394.00 448.00 345.00
C 462.67 345.00 477.33 345.00 492.00 345.00
M 428.00 376.00 
C 428.00 402.33 428.00 428.67 428.00 455.00
C 414.04 456.52 400.07 458.89 386.33 461.33 C 372.59 463.77 358.81 465.85 345.00 468.00 C 331.19 470.15 317.77 472.71 303.98 474.98 C 290.19 477.24 275.66 479.46 261.98 481.98 C 248.29 484.49 233.88 485.85 220.33 488.33 C 206.78 490.81 193.34 485.82 182.25 479.75 C 171.17 473.67 162.58 468.05 151.77 462.23 C 140.96 456.41 131.42 450.17 120.75 444.25 C 110.08 438.33 100.96 432.60 89.92 427.08 C 78.89 421.55 68.73 410.45 76.75 397.75 C 84.78 385.06 98.75 388.94 109.23 395.77 C 119.71 402.60 131.04 405.68 141.69 412.31 C 152.35 418.93 162.27 421.81 173.08 428.92 C 183.89 436.04 197.55 439.51 211.00 439.00 C 224.45 438.49 241.66 442.83 253.22 436.22 C 264.78 429.62 279.00 430.08 289.07 424.07 C 299.14 418.07 319.98 421.15 319.00 406.00 C 318.02 390.85 296.33 399.53 286.93 403.93 C 277.52 408.32 260.00 410.73 249.98 415.98 C 239.96 421.22 221.77 423.48 219.67 408.33 C 217.58 393.18 232.53 390.50 243.23 385.23 C 253.92 379.96 265.07 375.66 276.23 370.23 C 287.38 364.80 298.84 360.02 311.07 356.07 C 323.31 352.12 340.80 351.24 354.00 353.00 C 367.20 354.76 378.72 359.78 391.08 363.92 C 403.43 368.07 415.58 372.23 428.00 376.00 Z"/>
</g>
<g fill="#4CB9F5" fill-opacity="1.00" stroke="None">
<path d="
M 492.00 345.00 
C 477.33 345.00 462.67 345.00 448.00 345.00
C 448.00 394.00 448.00 443.00 448.00 492.00
C 462.67 492.00 477.33 492.00 492.00 492.00
C 492.00 443.00 492.00 394.00 492.00 345.00
M 472.00 360.00 
C 484.34 362.06 481.19 382.73 468.00 380.00 C 454.81 377.27 459.85 357.97 472.00 360.00 Z"/>
</g>
<g fill="#FDCCAB" fill-opacity="1.00" stroke="None">
<path d="
M 428.00 376.00 
C 415.58 372.23 403.43 368.07 391.08 363.92 C 378.72 359.78 367.20 354.76 354.00 353.00 C 340.80 351.24 323.31 352.12 311.07 356.07 C 298.84 360.02 287.38 364.80 276.23 370.23 C 265.07 375.66 253.92 379.96 243.23 385.23 C 232.53 390.50 217.58 393.18 219.67 408.33 C 221.77 423.48 239.96 421.22 249.98 415.98 C 260.00 410.73 277.52 408.32 286.93 403.93 C 296.33 399.53 318.02 390.85 319.00 406.00 C 319.98 421.15 299.14 418.07 289.07 424.07 C 279.00 430.08 264.78 429.62 253.22 436.22 C 241.66 442.83 224.45 438.49 211.00 439.00 C 197.55 439.51 183.89 436.04 173.08 428.92 C 162.27 421.81 152.35 418.93 141.69 412.31 C 131.04 405.68 119.71 402.60 109.23 395.77 C 98.75 388.94 84.78 385.06 76.75 397.75 C 68.73 410.45 78.89 421.55 89.92 427.08 C 100.96 432.60 110.08 438.33 120.75 444.25 C 131.42 450.17 140.96 456.41 151.77 462.23 C 162.58 468.05 171.17 473.67 182.25 479.75 C 193.34 485.82 206.78 490.81 220.33 488.33 C 233.88 485.85 248.29 484.49 261.98 481.98 C 275.66 479.46 290.19 477.24 303.98 474.98 C 317.77 472.71 331.19 470.15 345.00 468.00 C 358.81 465.85 372.59 463.77 386.33 461.33 C 400.07 458.89 414.04 456.52 428.00 455.00
C 428.00 428.67 428.00 402.33 428.00 376.00 Z"/>
</g>
<g fill="#000000" fill-opacity="1.00" stroke="None">
<path d="
M 472.00 360.00 
C 459.85 357.97 454.81 377.27 468.00 380.00 C 481.19 382.73 484.34 362.06 472.00 360.00 Z"/>
</g>
<g fill="#000000" fill-opacity="0.24" stroke="None">
<path d="
M 503.00 512.00 
L 512.00 512.00
L 512.00 503.00
C 510.67 507.11 507.25 510.75 503.00 512.00 Z"/>
</g>
</svg>